<svg xmlns="http://www.w3.org/2000/svg" viewBox="0 0 2000 934"><defs><style>.cls-1{fill:#fcfcfc;}.cls-2{fill:#363636;}.cls-3{fill:#fefefe;}.cls-4{fill:#fafafa;}.cls-5{fill:#fbfbfb;}.cls-6{fill:#fdfdfd;}.cls-7{fill:#f7f7f7;}.cls-8{fill:#f8f8f8;}.cls-9{fill:#f9f9f9;}.cls-10{fill:#e2e2e2;}.cls-11{fill:#f2f2f2;}.cls-12{fill:#d5d5d5;}.cls-13{fill:#efefef;}.cls-14{fill:#3a3a3a;}.cls-15{fill:#434343;}.cls-16{fill:#484848;}.cls-17{fill:#444;}.cls-18{fill:#474747;}.cls-19{fill:#4a4a4a;}.cls-20{fill:#494949;}.cls-21{fill:#4b4b4b;}.cls-22{fill:#454545;}.cls-23{fill:#4c4c4c;}.cls-24{fill:#414141;}.cls-25{fill:#4f4f4f;}.cls-26{fill:#404040;}.cls-27{fill:#464646;}.cls-28{fill:#424242;}.cls-29{fill:#3c3c3c;}.cls-30{fill:#3e3e3e;}.cls-31{fill:#505050;}.cls-32{fill:#626262;}.cls-33{fill:#5d5d5d;}.cls-34{fill:#5b5b5b;}.cls-35{fill:#4d4d4d;}.cls-36{fill:#636363;}.cls-37{fill:#3f3f3f;}.cls-38{fill:#3d3d3d;}.cls-39{fill:#696969;}.cls-40{fill:#6c6c6c;}.cls-41{fill:#676767;}.cls-42{fill:#6d6d6d;}.cls-43{fill:#6a6a6a;}.cls-44{fill:#666;}.cls-45{fill:#616161;}.cls-46{fill:#6b6b6b;}.cls-47{fill:#686868;}.cls-48{fill:#737373;}.cls-49{fill:#717171;}.cls-50{fill:#f5f5f5;}.cls-51{fill:#f6f6f6;}.cls-52{fill:#dedede;}.cls-53{fill:#e0e0e0;}.cls-54{fill:#f4f4f4;}.cls-55{fill:#dadada;}</style></defs><title>资源 4</title><g id="图层_2" data-name="图层 2"><g id="图层_1-2" data-name="图层 1"><path class="cls-1" d="M.09,933.91Q.09,469.26,0,4.59C0,.84.84,0,4.59,0Q1000,.15,1995.41,0c3.75,0,4.59.84,4.59,4.59q-.15,462.41,0,924.82c0,3.75-.84,4.59-4.59,4.59Q997.74,933.85.09,933.91Z"/><path class="cls-2" d="M348.46,702.55c3.31,2.85,5.67,5.2,8.35,7.11,5.08,3.64,7.08,8.56,7,14.64-.1,6.66-.13,13.33,0,20,.12,5.77-2.65,9.45-7.74,11.61A38.35,38.35,0,0,1,341,759q-38.49.06-77,0a42.38,42.38,0,0,1-7.43-.84c-12.49-2.29-15.41-5.79-15.41-18.27,0-5,.14-10,0-15-.22-6.49,2-11.64,7.37-15.48,2.55-1.81,4.8-4.05,7.86-6.68-4.2-1.77-7.75-3.29-11.32-4.78-16.2-6.79-31.67-14.87-45.22-26.18-9.66-8.06-17.55-17.38-19.11-30.54a20.44,20.44,0,0,1,.1-6.44c2.36-11.6,7.95-21.8,14.26-31.61A14.33,14.33,0,0,1,204,597c3.48-.81,3.57-2.08,2-5a198.54,198.54,0,0,1-22.38-63.75A190.47,190.47,0,0,1,181,496.48c0-39.15.09-78.3-.09-117.44,0-4.68,1.41-5.86,5.93-5.85q115.71.18,231.41,0c4.5,0,6,1.15,5.94,5.86-.18,38.64-.14,77.29-.09,115.94a197.89,197.89,0,0,1-24.89,96.62c-1.75,3.2-1.89,4.48,2.14,5.59,5.75,1.58,9.54,5.94,12.14,11.19,2.94,6,5.87,12,8.5,18.07,4.29,9.93,2.88,19.55-2.4,28.72-6.95,12.1-17.91,20-29.35,27.27C377.38,690.62,363.49,696.66,348.46,702.55Z"/><path class="cls-2" d="M933.2,636.05c.12,9.82.16,19.63,1.55,29.4a8.81,8.81,0,0,0,6.12,7.71c4.69,1.71,9.39,3.35,14.09,5,2.55.91,4.6,6.31,3.3,8.63-.81,1.44-2,.76-3.09.59-21.55-3.5-43.15-2.74-64.76-.69-3.44.32-5.76,0-6.25-4.11-.28-2.3.15-3.49,2.55-3.77a21.31,21.31,0,0,0,3.38-.89c12.86-3.8,15.46-7,15.9-20.4q1.74-52.69.08-105.39a62.56,62.56,0,0,0-1.69-12.34c-1.43-6.11-5.17-9.49-11.46-10-1.33-.11-2.65-.48-4-.47-3.3,0-5.3-.62-4.71-4.8.48-3.47,1-5.31,5.29-4.86,21.81,2.24,43.56-.4,65.33-1.27,12.67-.5,25,1,36.43,6.7,15.11,7.56,24.44,19.37,25.05,36.79.59,16.54-8,28-21.32,36.47a40.73,40.73,0,0,1-8.91,4.44c-4,1.31-4.83,2.63-2.15,6.37,10.75,15,20.76,30.58,32.24,45.1a147.43,147.43,0,0,0,16,17.18c5.87,5.39,12.47,9.58,20.53,10.58,4.27.54,3.14,3.33,3.24,5.85.12,3.17-1.84,3.32-4.24,3.3a72.21,72.21,0,0,1-48-18.07c-19.78-17.08-34.74-38.06-48.43-60-2.13-3.41-4.39-4.73-8.27-4.88-13.78-.55-13.78-.67-13.78,12.83Z"/><path class="cls-2" d="M1300.2,563.39c-1.41,1.92-1,3.82-1,5.58-.37,26.48-.77,53-1,79.45-.15,17.56,3.41,21.88,20.48,25.74,2.44.56,4.86,1.22,7.33,1.56,2.2.3,3,1.24,3.18,3.53.4,6.45.18,6.73-6.35,6.11-18.3-1.75-36.59-.88-54.89.16-2,.11-5.34,2.2-5.84-2.18-.43-3.71-.24-6.41,4.74-7.39,15.16-3,15.3-3.27,16.3-18.75q3.27-50.88,1.88-101.87a41.63,41.63,0,0,0-.48-5.47c-2.19-13.5-5.57-17.39-19-20.08-4.89-1-6.09-3.13-5.7-7.68.24-2.87,1.41-3.29,3.75-3,11.12,1.43,22.3,1,33.44.72,3.45-.1,5.1,1.83,7,3.9q51,55.57,102.11,111.14c1.19,1.3,2.43,2.56,3.63,3.82,1.57-1.22,1-2.48,1-3.54q-.32-41.48-.77-82.95a79.55,79.55,0,0,0-1-11.43c-1.35-8.33-4.64-11.45-13-12.67-3.13-.46-6.3-.63-9.44-1-1.61-.2-4.22.59-3.6-2.52.47-2.38-.37-5.86,3.5-6.2a55.47,55.47,0,0,1,10-.12c14.78,1.42,29.59,1.69,44.43,1.63,2.54,0,5.4-.8,5.34,3.65-.06,3.6-.68,5.26-4.85,5.44-10.73.47-15.14,4.46-15.9,15.25-1.55,21.93-1.74,43.93-1.72,65.92,0,23.15.28,46.31.28,69.46,0,2.36,2.07,6.08-1.53,6.9s-7.55,1.42-10.92-2.37c-12.64-14.17-25.64-28-38.5-42q-35-38.07-70.06-76.12C1302.21,565.1,1301.2,564.31,1300.2,563.39Z"/><path class="cls-2" d="M1145.76,688.52c-45.5.18-81.59-37.62-81.81-85.69-.21-45.83,38.82-85.71,84-85.78,47.06-.09,84.06,37.07,84.18,84.53C1232.21,648.72,1192.88,688.32,1145.76,688.52Z"/><path class="cls-2" d="M767.73,688.51c-45.72,0-81.68-38-81.7-86.34,0-45.42,39.23-85.12,84.16-85.12,47.09,0,83.91,37.11,84,84.67C854.29,648.82,814.76,688.5,767.73,688.51Z"/><path class="cls-2" d="M1735.6,688.51c-45.73,0-81.66-38-81.68-86.36,0-45.46,39.19-85.11,84.15-85.11,47,0,84,37.21,84,84.7C1822.19,648.82,1782.64,688.49,1735.6,688.51Z"/><path class="cls-2" d="M223.81,279.52c-1.94-.47-3.95,1.4-5.94.46-1-.48-2.79-1.46-2.7-1.89,1.17-5.49-6.55-6.12-6-11.15.16-1.39,1-3.47,1.85-3.24,5.8,1.65,6.43-8.87,12.09-5.4,4.07,2.5,6.14-.22,9.18-1.1-.68-1.83-1.8-1.2-2.57-.91-4.31,1.6-7.65,1.75-7.71-4.32,0-1.57-1.77-1.83-2.8-2.59a5.48,5.48,0,0,1-2.36-6.09c.53-2.3,1.75-3.92,4.26-4.27.64-.09,1.74-.15,1.84-.46,1.4-4.64,5.19-4.21,8.89-3.89-.17-2.41-2.23-2.62-3.27-3.78-1.46-1.63-2.61-3.8-1-5.33,2.33-2.23,2.51-4.61,2.64-7.5.18-4.16,3.35-5.78,6.86-3.67,1.47.88,2.16,1.34,3.67-.11,2.89-2.77,4.82-.82,6,2,.74,1.83.71,3.54,3.81,3.08s3.2,3.14,4.32,5.45c2.09-1.47,1-2.73.21-4.17-3.42-5.94-1.75-8.95,5.1-8.87,1.92,0,2.22-.76,1.59-1.92-1.68-3.07-1.4-5.6,1.07-8.13.91-.93-.18-2.17-.47-3.27-1.62-6.21.65-9,6.95-8.46,3,.24,6.23-3.21,5.61-6.2-.5-2.39-1-4.85,1.39-6.32,2.71-1.65,5.11-.34,7.18,1.63.37.34.77,1,1.07,1,6.79-.94,7.79,5.44,11,8.84,2.95,3.11.85,7.29,1.23,11,3.61-1,4.37-2.66,2.74-6.13-1.53-3.27-1.51-6.87,3.69-7,2.39-.06,2.37-1.89,3-3.31,2.31-4.87,3.93-5.41,8.4-2.62,2.87,1.79,5.17,2.49,8.18-.39,3.25-3.12,7.12-1.38,8.11,3.06a1.23,1.23,0,0,1,0,.5c-.6,4,5.87,4.35,4.53,8.59-1,3.14-4.3,5.71-1.81,9.78,3.36-1.82,6.87-5.56,11-1.11,3.47,3.7.09,6.56-1.26,10,4-5.34,10.34-2.08,15.36-4.81,2.94-1.6,8.64,1,12.71,2.66,2.95,1.2,2.76,4.21.77,6.76-.87,1.11-2.3,1.82-2,3.75s0,3.74,3.36,2.89c5.54-1.42,7.23.74,7.11,6.62-.07,3.2.32,7,5.39,6.55a4.2,4.2,0,0,1,4.62,3.06c.8,2.36.64,4.66-1.34,6.45-1.48,1.34-2.46,2.32-2.05,4.91.67,4.32-3.24,5.2-6,4.12-5.26-2.07-6.4,3.57-9.95,4.37a32.46,32.46,0,0,0,1.33,5c.72,1.7,2,.5,2.91.07,4.29-2,7.84-2.11,9.16,3.5.46,2,2.29,1.67,3.52,2.3,2.47,1.26,4,3,3.61,5.92a4.78,4.78,0,0,1-5,4.53c-1.28,0-2.67-.29-3.28,1.47-1.05,3-3.27,3.47-6.05,2.61-1.12-.34-2.52-.8-3.1.56-2,4.67-7.12,5.33-10.44,8.29-1.5,1.33-1.84,2.11-.88,4,1.93,3.91-.05,5.5-4,6.87-5.39,1.88-10.28-1.15-15.4-.17a2.58,2.58,0,0,1-2.24-.81c-2.11-5-8.72-6.44-9.79-12.24-.56-3.06-2.07-2.74-4.15-1.35-6.32,4.25-10.12,10.07-10.95,17.65-2.06,18.94,3.44,25,16.29,30.15,4.43,1.79,9,3.39,12.35,7.26,1.52,1.74,4.16,1.22,6.57.69,4.07-.89,8-.33,10.91,3.17a8.89,8.89,0,0,1,1.43,9.37c-1.75,4.67-6.3,6.89-11.87,5.71s-11.36.08-17,.07c-4.74,0-9.46-.39-14.24-.16-9.3.44-18.63-.22-28,.17-4.35.18-8.83-.19-13.26-.12-9.45.16-18.91-.74-28.35.26-4.23.45-8.08-.52-10.46-4.35a9.57,9.57,0,0,1,0-10,8.38,8.38,0,0,1,9.83-4.26c6.89,1.62,12.55-.41,18.17-4.09,3.6-2.37,7.61-4.1,11.44-6.11a18.47,18.47,0,0,0,7.89-8.09c2.51-4.76,3.08-9.15-.57-13.83-4.69-6-7.14-13.58-12.57-19.15-4.22-4.31-4.5-4.2-7.14,1-1.17,2.32-1.75,5.74-6,4.29-1.88-.64-1.75,1.51-2.33,2.53-3,5.22-5.57,6.05-10.52,2.9-2-1.25-3.11.33-4.56.74-2.24.63-4.53,1.94-6.33-.58-1.56-2.19-.9-4.36.45-6.51.78-1.26,3.14-2.23,1.58-4.16-1.85-2.29-3.21.25-4.63.94-3.31,1.59-6.19,1.78-7.89-2.08-.75-1.72-2-2-3.56-2.18-2.57-.38-4.34-1.72-4.8-4.36s1.38-3.85,3.41-4.86A1.33,1.33,0,0,0,223.81,279.52Z"/><path class="cls-2" d="M573.2,600.93q.27-30.25-1.23-60.46c-.21-4.32-1.56-6.22-6-6.34-10.82-.27-21.62-1-32.42.59-10.34,1.5-17.53,6.66-21.16,16.63-.44,1.2-.33,4.26-2.77,2.88-2.25-1.27-6.73-1.64-5.26-5.94,3.51-10.23,7.19-20.42,11.23-30.45,1.37-3.4,4.87-2.62,7.18-1,3.5,2.52,7.34,3,11.35,3.06q55,.06,110,0c4.17,0,8.16-.54,11.81-3.19,3.43-2.5,6.57-1,7.47,3.24q2.94,13.66,5.63,27.39c.58,2.93-2.92,7.18-5.74,7.23-1.67,0-1.78-1.47-2-2.4-3.34-14.74-13.76-18.76-27.31-18.44-8.66.21-17.33.11-26,0-3.84,0-5.16,1.51-5.21,5.37-.47,35.64-2.63,71.27-.72,106.93.34,6.16,1.08,12.27,1.86,18.39.67,5.23,3.41,8.13,8.37,9.12a86.46,86.46,0,0,0,12.3,2c3.77.2,3.77,2.11,3.5,4.89s-.33,5.13-4.41,4.9c-17.81-1-35.65-1-53.48-.41-7.32.23-14.67.38-21.95,1.14-5,.52-4.6-2.74-5.34-5.77-1-4,1.91-3.37,4-3.72,4.44-.73,8.93-1.18,13.3-2.16,10.12-2.28,11.3-3.83,11.8-14.09.81-16.82,1.17-33.64,1.19-50.47Z"/><path class="cls-2" d="M1569.21,595.19c-.41,21.15-.47,42.29,1.69,63.37,0,.17,0,.34,0,.5,1.19,12,3.17,14.06,15,15.84,1.64.24,3.3.42,5,.65,5.08.7,6.38,3.1,4.59,8-.93,2.54-2.85,1.84-4.56,1.77q-26.73-1.14-53.45-.28c-7.32.22-14.65.47-22,1.12-5.29.47-4.17-3.46-4.9-6.22-1-3.92,2.2-2.88,4-3.19,6.22-1.11,12.55-1.54,18.58-3.68,3.66-1.3,5.75-3.48,6.09-7.57,1.69-20.27,1.64-40.58,1.81-60.89.17-21-.09-42-1.37-62.92-.43-7.09-.46-7.23-7.33-7.53-10.48-.48-21-1-31.41.64-10.12,1.55-17.17,6.62-20.7,16.42-.47,1.29-.34,4.52-3.12,2.94-2.26-1.29-6.52-1.74-5-6.11,3.58-10,7.2-20,11.07-30,1.43-3.68,4.9-2.85,7.1-1.29,3.67,2.61,7.64,3.16,11.81,3.17q54.7.06,109.42,0c4.34,0,8.48-.52,12.27-3.29,3.32-2.42,6.44-.95,7.3,3,2,9.27,3.86,18.56,5.71,27.86.54,2.76-3.31,7.13-6,7.1-1.17,0-1.25-1-1.57-1.62a22.31,22.31,0,0,1-1.4-3.73c-2.84-10.34-10.2-14.87-20.33-15.21-10.64-.37-21.31-.15-32-.33-4-.07-5.13,1.76-5.11,5.48.11,18.65,0,37.29,0,55.94Z"/><path class="cls-2" d="M1129.22,414.5c6.28,8.44,12.18,16.7,19.24,24,3.6,3.74,7.54,7.09,12.84,8.25,1.12.24,2.44.29,2.22,2s-1.48,1.95-2.92,1.86c-7.66-.44-14.69-2.61-20.84-7.39a95.2,95.2,0,0,1-21.3-23.65c-2.39-3.67-5.28-3.93-8.83-3.92-1.92,0-2.7.79-2.67,2.68.12,6.5.15,13,.29,19.48a5.59,5.59,0,0,0,4.57,5.75c1,.25,1.91.56,2.85.9,1.65.59,4.14.69,3.57,3.23s-2.82,1.14-4.22,1a115.76,115.76,0,0,0-20-.46c-2.16.1-4.31.35-6.47.51-1.37.11-2.82.18-3.12-1.61s1.23-1.84,2.27-2c5.91-1,7.58-4.68,7.66-10.29.2-14.66.59-29.3-.23-43.95-.26-4.68-1.64-8.14-7.07-8.44-1.26-.07-2.87-.1-2.72-2.11s1.75-2.16,3.29-2c10.34,1.3,20.62-.62,30.94-.53,5.76,0,11.32.76,16.44,3.47,6,3.15,9.93,7.76,10.16,14.88s-3.66,11.52-9.21,14.91C1134,412.31,1131.85,413.2,1129.22,414.5Z"/><path class="cls-2" d="M770.08,397.77q0,10.14,0,20.29c0,5.16.07,10.33-.11,15.49-.18,5.37,2.26,8.47,7.5,9.48,1.47.28,2.91.74,4.38,1,1.65.23,2.37,1.1,2.17,2.7s-1.57,1.42-2.69,1.43c-8.32,0-16.65.06-25,0-1.22,0-2.88.47-3-1.6a2.06,2.06,0,0,1,2.21-2.22c7-.25,7.34-5,7.65-10.41.74-12.82.95-25.63.74-38.45-.15-8.7-1.14-9.92-9.32-13-1.32-.48-2.51-.83-2.38-2.63.15-2.09,1.65-1.69,2.92-1.67,4.5.05,9,.29,13.48.18,2.59-.07,3.88,1.62,5.39,3.12q22,21.83,44,43.66c1,1,1.69,2.51,4,2.59-.34-13.33.46-26.58-.78-39.81-.47-5-4-5.92-8.14-6.22-1.41-.1-3.89.59-3.69-2,.19-2.37,2.45-1.83,4-1.81,7.16.1,14.32.3,21.48.5,1.25,0,2.87-.32,3.18,1.56.38,2.37-1.52,2.12-2.93,2.31-4.32.61-6.21,3.08-6.47,7.43-1.09,18-.58,36-.68,53.94,0,1.74,1.32,4.22-1.43,5.13-2.43.8-4-.84-5.58-2.42q-22.65-22.57-45.36-45.09c-1.29-1.27-2.63-2.49-3.94-3.73Z"/><path class="cls-2" d="M1559.41,449.45c-21.8.58-39.2-16.5-38.43-37.72.72-19.67,21.34-36.43,42.26-34.35,19.22,1.91,32.79,14,35.08,31.87,1.6,12.44-3.49,22.46-12.76,30.43A40.29,40.29,0,0,1,1559.41,449.45Z"/><path class="cls-2" d="M1032.56,378.18c8.49,0,17,.14,25.47-.07,3.25-.08,4.71.75,4.14,4.17-.52,3.11-.87,6.26-1.3,9.39-.2,1.43-.63,2.6-2.45,2.47a2,2,0,0,1-2-2.31c.2-6.31-4.1-7.63-9.08-8.34-6.51-.93-13-.25-19.42.49-2.13.24-2.73,1.36-2.94,3.26a123.61,123.61,0,0,0-.73,18.95c.12,2.69,1.07,3.94,3.91,3.78,5-.28,10-.37,15-.53,4.15-.13,8.08-.53,9.14-5.73.26-1.3,1.51-1.69,2.8-1.37s1.25,1.43,1.24,2.4q-.11,8.49-.27,17c0,1,.08,2.13-1.25,2.36a2,2,0,0,1-2.62-1.66c-1.28-7.29-6.8-7.59-12.53-7.83-15.94-.68-15.94-.72-15.51,15,0,.33,0,.66,0,1,.4,12.31.69,12.6,13.23,12.69a60.18,60.18,0,0,0,7-.32c7.63-.84,14.29-3.34,17.91-10.84.6-1.25,1.3-2.44,3-1.87s.94,1.87.86,3a20.38,20.38,0,0,1-.34,2.47c-2.35,11.79-3.31,12.48-15.18,12.45-15.15,0-30.32-.75-45.46.67-1.56.15-3.57.7-3.84-1.86s1.82-2,3.11-2.13c4.16-.52,6-2.79,6.28-6.94a319.08,319.08,0,0,0,.29-50.42c-.29-3.55-2.23-4.92-5.4-5.31-1.36-.17-2.78-.35-2.58-2.27s1.81-1.6,3.06-1.6c8.83,0,17.66,0,26.49,0Z"/><path class="cls-2" d="M664,412.15c1.2-7.49.84-15,.11-22.43-.41-4.24-1.43-7.58-6.8-6.94-1.45.17-3.22.16-3.17-2.1,0-2.42,2-1.81,3.34-1.84,9.65-.27,19.31-.45,29-.61,1.4,0,3.21-.4,3.38,1.89s-1.59,2.17-3,2.49c-7.88,1.77-9.2,2.79-9.51,10.76-.41,11-.51,22-.09,33,.39,10,5.84,15.36,15.7,17a33.84,33.84,0,0,0,15.3-1.06c7.2-2.09,11-7.35,12.37-14.32,2.41-12.69,2.11-25.49.74-38.28-.49-4.49-2.7-6.92-7.41-7-1.55,0-4.27.66-3.94-2.35s2.83-1.62,4.42-1.64c6.82-.12,13.65-.08,20.47-.05,1.24,0,2.9-.53,3.26,1.37.4,2.16-1.31,2.48-2.81,2.57-5.25.29-6.4,3.41-6.45,8.09-.13,11.48-.07,23-1.74,34.39-2.31,15.77-9.23,22.36-25,24.22a54.88,54.88,0,0,1-21.77-1.43c-10.7-3.06-16.26-10.55-16.36-21.7C663.94,421.47,664,416.81,664,412.15Z"/><path class="cls-2" d="M1644.6,378.25a120.64,120.64,0,0,0,24-.24c3.45-.39,4.42.85,4,4.17-.44,3.12-.41,6.31-.62,9.47-.06,1,0,2.1-1.37,2.26-1,.1-2.27.39-2.66-.74-3.59-10.49-12.87-9.15-20.89-9.73-9.91-.72-9.93-.39-10,9.34,0,4.34.06,8.67-.13,13-.12,2.9.84,4.33,3.93,4.25,4.65-.14,9.33.1,14-.16,3.4-.2,6.66-1.08,7.66-5.14a2.21,2.21,0,0,1,2.47-2c1.52.12,1.94,1.11,1.91,2.39-.1,5.16-.19,10.32-.37,15.48,0,1.15-.27,2.4-1.86,2.49a2.15,2.15,0,0,1-2.41-2c-.62-3.75-3.48-4.48-6.54-5a74.46,74.46,0,0,0-15.42-1.12c-2.15.07-3.45.57-3.46,3.06,0,6-.2,12-.35,18-.11,4.63,2.18,7.1,6.69,7.65,1.16.15,2.32.26,3.46.5,1.67.35,4.19-.09,4,2.64-.26,2.94-2.76,1.76-4.36,1.67a222.94,222.94,0,0,0-28,0c-1.36.09-3.26.9-3.65-1.35s1.5-2.39,2.89-2.68c4.19-.88,5.32-3.61,5.67-7.59,1.26-14.47,1-29,.76-43.45-.12-8.29-.33-8.45-8.34-11.46-.86-.33-1.52-.64-1.48-1.65s.79-1.41,1.66-1.48c2.48-.22,5-.5,7.46-.53C1630.28,378.2,1637.44,378.25,1644.6,378.25Z"/><path class="cls-2" d="M951.72,431.47c6.95-14.46,15-27.51,20.7-41.7,1.75-4.33.32-6-4.75-7-1.45-.28-3.71.44-3.57-2.27s2.26-1.91,3.77-1.89q10.49.09,21,.35c1.36,0,3.24-.56,3.37,1.82.1,1.78-1.18,2.12-2.57,2.41-5.38,1.11-8.51,4.79-10.89,9.44-9.38,18.35-20.68,35.72-28,55.11-.49,1.28-1,2.38-2.75,2.37s-2.21-1.15-2.74-2.39c-7.82-18.41-17.91-35.67-26.91-53.48-3.09-6.09-6.4-11.85-14.37-12.12-1.4-.05-2.17-.75-2-2.23.18-1.65,1.44-1.57,2.61-1.55q14.73.27,29.45.6c1.23,0,2.83-.35,2.92,1.73.08,1.84-1.16,2-2.57,2.33-5.74,1.2-5.81,1.27-3.47,6.67C937,403.69,943.3,417.58,951.72,431.47Z"/><path class="cls-2" d="M1333.1,411.73c0,7.67-.24,15.34.07,23s1.1,8.07,8.33,9.26c1.35.23,3.33-.36,3.31,2,0,2.62-2.1,2.13-3.66,2.11-10.84-.16-21.67-.35-32.48.37-1.45.09-2.66.07-2.89-1.82-.24-2.09,1.37-2,2.57-2.25,10.46-2.52,10.4-2.51,10.87-13.32q.93-21-.13-42c-.17-3.42-1.36-4.76-4.67-4.79a82.49,82.49,0,0,0-12.47.35c-4.34.62-8.06,2-10.07,6.31-.46,1-.85,2.34-2.51,1.54s-1.72-1.89-1.15-3.31c1.43-3.55,2.88-7.1,4.31-10.65a2.29,2.29,0,0,1,3.23-1.43c5.3,2.19,10.86,1.41,16.3,1.47,12.66.13,25.32,0,38-.12a29.15,29.15,0,0,0,4.48-.29c6.41-1,6.41-1,7.9,5.54.47,2.11,1,4.22,1.38,6.34.29,1.46-.71,2.12-1.85,2.54-1.35.5-1.77-.55-2.08-1.49-2.18-6.44-7.65-6.87-13.06-6.86-16.64,0-13.25-2.22-13.82,13-.19,4.83,0,9.66,0,14.49Z"/><path class="cls-2" d="M1199,377.73c5.16-1.06,10.81,3.1,16.89.82,1.45-.55,2.27,1,1.83,2.62-1.12,4.12-.73,8.25-.11,12.39.2,1.27.63,2.79-1.41,3.08-1.81.25-2.08-1.15-2.63-2.39-4.28-9.68-14-14.32-23.57-11.18-4.26,1.4-7.2,4.13-7.94,8.73s1.51,7.95,5.37,10.36c3.56,2.22,7.53,3.5,11.4,5,5,1.93,9.9,3.95,14.26,7.1,11.29,8.17,11,22.32-.63,29.95-8.29,5.42-17.41,6-26.91,4.12-3.07-.59-6-2.51-9.45.12-1.92,1.47-3.16-.5-3.08-2.78.19-4.88-.84-9.59-2.06-14.28-.31-1.16-2-2.9.58-3.6,1.77-.48,2.74.54,3.32,2.18,3.65,10.22,12.18,13.12,21.73,13.73,8.64.56,14.11-4.82,13.48-12.27-.37-4.28-2.84-7.12-6.41-8.89-4.46-2.21-9.11-4-13.71-6a60.87,60.87,0,0,1-10.33-4.95c-10.67-7.05-11.06-20.91-.75-28.52C1184.58,378.85,1191.2,377.57,1199,377.73Z"/><path class="cls-2" d="M1420.69,447.93c-4.8.29-10.94.73-17.09,1-1.2.05-3.31,1.06-3.42-1.49-.08-1.83,1.47-1.88,2.79-2.16,7.51-1.57,8-2.13,8.06-9.82.23-19.63.25-19.64-12.74-34.7-3.48-4-7-8-10.61-12-2.94-3.25-6-6.26-10.83-6.44-1.18,0-2.44-.26-2.4-1.88s1.35-1.67,2.51-1.68q15-.16,30-.27c1.23,0,2.4.18,2.54,1.75.15,1.79-1,2.27-2.49,2.4-.82.07-1.66.16-2.49.17-3.69.06-4.59,1.64-2.3,4.56,5.23,6.69,10.59,13.27,15.84,19.95,1.39,1.76,2.34,1.3,3.39-.26,4.16-6.22,8.39-12.4,12.51-18.65,2.22-3.36,1-5.26-2.8-5.78-1.15-.15-2.29-.4-3.45-.52-1.53-.16-1.9-1.08-1.78-2.42s1-1.58,2.11-1.56c7.31.1,14.61,1.24,21.93.17,1.16-.17,1.82.54,1.91,1.76a1.84,1.84,0,0,1-2,2.27c-5.74.07-8.12,4.08-10.75,8.36-4.18,6.79-8.86,13.29-13.5,19.8a11.84,11.84,0,0,0-2.38,7.4c.13,6.33.33,12.66.09,19-.21,5.16,1.82,7.69,7,7.95,1.53.08,4.35-.64,3.87,2.37-.38,2.42-2.69,1.25-4.18,1.24C1427.37,448.42,1424.71,448.17,1420.69,447.93Z"/><path class="cls-2" d="M1255.74,448.16c-5.5,0-11,0-16.48,0-1.21,0-2.93.57-3.17-1.41s1.42-2,2.69-2.12c10.85-1.42,11.43-1.49,12-14.74a285.88,285.88,0,0,0-.61-37.93c-.65-7.22-1.44-8.17-8.48-9.19l-3-.44a1.77,1.77,0,0,1-1.77-2,1.8,1.8,0,0,1,2.18-2c11.64.79,23.29.29,34.94.2,1.21,0,2.4.22,2.52,1.78.15,2-1.31,1.88-2.66,2.07-9.66,1.36-9.76,1.45-10.18,11-.64,14.64-.59,29.28-.16,43.93.15,5.07,2.09,7.42,7.12,7.25a13.2,13.2,0,0,1,2,.08c1.4.19,3.33-.18,3.11,2.16-.18,2-1.87,1.51-3.11,1.52-5.65,0-11.31,0-17,0Z"/><path class="cls-2" d="M870.8,448.15c-5.5,0-11,0-16.49,0-1.21,0-2.93.57-3.23-1.36s1.36-2,2.64-2.17c11.65-1.39,11.31-2.64,12-14.78a272.58,272.58,0,0,0-.64-38.44c-.53-6.4-1.62-7.63-8-8.59-1-.14-2-.3-3-.42-1.3-.15-2.21-.61-2.16-2.15s1-2,2.32-1.92c11.65.82,23.31.25,35,.21,1.32,0,2.31.52,2.27,2s-1.25,1.61-2.45,1.81c-9.77,1.64-9.88,1.66-10.37,11.36-.74,14.65-.55,29.3-.13,44,.15,4.91,2.29,7,7,6.87,1,0,2,.07,3,.15,1.25.1,2.35.49,2.3,2-.05,1.7-1.41,1.6-2.54,1.61-5.83,0-11.66,0-17.49,0Z"/><path class="cls-3" d="M302.19,466.82c-37.47,0-74.94-.08-112.41.1-4.77,0-6.2-1.23-6.16-6.08.23-26.47.19-52.95,0-79.42,0-4,.94-5.42,5.24-5.42q113.66.19,227.32,0c3.93,0,5.06,1.08,5,5q-.24,40.46,0,80.92c0,4.11-1.37,4.95-5.15,4.94C378.13,466.77,340.16,466.82,302.19,466.82Z"/><path class="cls-3" d="M315.81,582.41c-1.22,2.41-1.95,5-3.77,7-6.23,6.93-8.86,14.4-2.83,23.08-11.78-.38-13.62-7.8-12.73-17.29-1.46,2.25-27.56,24.83-30.65,26.34.3-2.46,1.47-3.78,3.76-4,3.72-.33,8-.43,8.51-5.14a13,13,0,0,0-5.41-12.67c-4.27-3.09-8.83-4.51-14.09-3.22a25,25,0,0,1-5,.66c-2.18.07-5.58,1.81-3.83-3.39.87-2.57-1.62-4-4.41-3.94-2.48,0-4.94,1.13-3.93-3.89s.41-6.51,5.89-9.67c8.78-5,17.48-9.76,28.09-10.92,7.57-.82,14.3-5.93,21.89-8,15.74-4.29,30.38-3.12,43.37,7.52,12.58,10.3,16.3,23.48,11.82,39-2.55,8.79-6.91,16.58-14,22.57-2.11,1.77-3.27,4.18-4.59,6.48a91.81,91.81,0,0,1-19.47,23.26c-5.16,4.55-11.1,7.26-18.18,7-4.88-.2-6.31-1.93-4.91-6.66,1.66-5.57,5.12-10,9.34-13.94a137,137,0,0,1,15-11.59c2.6-1.81,5.19-3.62,7.72-5.52,2-1.48,3.43-3.66,3.15-6-.32-2.6-3.3-1.88-5-2.07-11.13-1.26-19.18-14.64-9.45-25.08C314.61,589.69,317.42,586.75,315.81,582.41Z"/><path class="cls-3" d="M331.4,725.64c-7,1.08-52.47.9-56.53,0,10.26-10.73,6.14-23.77,5.43-36-.42-7.41-6.45-12.09-12.54-15.93-6.78-4.27-14.16-7.38-21.4-10.73a160.15,160.15,0,0,1-28.25-16.86c-3.07-2.27-3.1-3.89-.91-6.73,3.52-4.58,6.65-9.45,10.17-14.53a298.23,298.23,0,0,0,44.3,45.41c8.35,6.9,17.1,13.25,26.06,19.34,3.35,2.29,5.85,2.39,9.33.07a300.67,300.67,0,0,0,66.86-60.37l3.68-4.48c4,5.86,7.82,11.37,11.59,16.91,1.55,2.28-.75,2.9-1.87,3.8A133.61,133.61,0,0,1,360.6,662c-7.52,3.54-15.18,6.8-22.38,11-9.71,5.67-15.38,13.54-14.45,25.29a78.86,78.86,0,0,1,0,8C323.62,713.38,323.43,720.46,331.4,725.64Z"/><path class="cls-3" d="M278.33,714.65c-5.81-8.28-13.37-11.69-21.08-14.77-16.56-6.62-32.84-13.76-47.5-24.09-7.93-5.59-15.35-11.72-20.71-20-6.46-10-8-20.26-2.22-31.13,2.09-4,3.85-8.09,6.24-13.17.61,3.93.84,6.89,1.55,9.72,2,7.9,7.09,13.85,12.78,19.3,10.68,10.24,23,18.06,36.34,24.35,7.37,3.47,14.87,6.67,21.92,10.81,8.62,5.06,13.43,12.09,12.74,22.48C278.06,703.12,278.33,708.12,278.33,714.65Z"/><path class="cls-3" d="M327.09,713c-.48-7.8-1.37-15.46.16-23,1.3-6.47,6-10.59,11.38-13.93,7.37-4.59,15.42-7.84,23.23-11.56,14.39-6.88,27.58-15.45,38.64-27.08,6.63-7,11.18-14.85,10.8-25.17,12.15,19.27,15.16,30.53,1.35,47.83C402,673.42,387.42,681.7,372.4,689c-9.41,4.59-19.18,8.46-28.8,12.62C337.44,704.34,331.72,707.62,327.09,713Z"/><path class="cls-3" d="M244.07,721.32c7,6.3,14.55,7.82,22.57,7.81q35.72,0,71.42,0c8.14,0,15.84-1.38,22.8-7.91,0,9.15.13,17.22-.06,25.29-.07,3.1-2.3,5.06-5,6.37a29.55,29.55,0,0,1-13,3.11q-40.2.1-80.4,0a34.55,34.55,0,0,1-7.39-1c-8.94-2-11-4.59-11-13.65Z"/><path class="cls-3" d="M247,522.82c0-13.53,0-25.85,0-38.16,0-3.06,1.92-4.52,4.34-5.43A14.58,14.58,0,0,1,265.56,481c2.78,2,5.58,3.65,9.16,3.25,2.68-.3,3.4,1,3.38,3.54-.09,10.83-.12,21.66,0,32.49,0,2.93-1.09,3.7-3.82,3.64a20.56,20.56,0,0,1-8.17-2C260,519.08,253.81,517.69,247,522.82Z"/><path class="cls-3" d="M244.1,523c-6.84-5.23-13-4-19.18-1.11a27.75,27.75,0,0,1-2.78,1.11c-7.45,2.54-9.17,1.37-9.17-6.19,0-9.5.09-19-.05-28.49,0-3,.81-4.39,3.94-4.06s5.47-1,7.8-2.74a15.15,15.15,0,0,1,10.75-3.25c6.5.6,8.68,3,8.69,9.54C244.11,499.09,244.1,510.41,244.1,523Z"/><path class="cls-3" d="M357.26,501.92c0,5.65,0,11.31,0,17,0,1.54.32,4-2.54,2.18-5.16-3.18-10.2-1.85-15.28.16-12.66,5-13.29,4.59-13.29-8.62,0-8.15.1-16.29-.05-24.44-.05-2.91.71-4.44,3.89-4.05,3,.36,5.49-.84,7.83-2.6a15.47,15.47,0,0,1,9.67-3.43c7.16.09,9.84,2.75,9.86,9.88v14Z"/><path class="cls-3" d="M360.17,522.9c0-13.72-.05-26.33,0-38.94,0-2.75,2.2-4,4.43-4.84a14.91,14.91,0,0,1,14.68,2.06c2.34,1.67,4.69,3.29,7.74,2.92,3.29-.39,4.32,1,4.27,4.24q-.24,15.74,0,31.48c0,3.1-1.09,4.17-4.09,4a20.13,20.13,0,0,1-6.76-1.6C373.9,519.32,367.32,517,360.17,522.9Z"/><path class="cls-4" d="M201.17,510.32c0-5.83-.1-11.67.07-17.49,0-1.55-1.17-4.49,1.55-4.36,2.41.11,1.28,3,1.3,4.57.12,10.33.06,20.66.06,31,0,6.68,0,6.69,6.93,6.69,5.84,0,11.67,0,17.5,0,4.62,0,9.27-.51,13.54,2.18a5.76,5.76,0,0,0,5.8.27c6.19-3.53,12.92-2.28,19.49-2.43,4.5-.11,9-.27,13.49,0s6.2-1,6.05-5.82c-.34-10.49-.11-21-.1-31.49,0-1.16,0-2.33.08-3.49.06-.85.29-1.74,1.37-1.69s1.4.84,1.42,1.73c.06,2.66.09,5.33.09,8,0,9.83-.23,19.67.11,29.49.17,4.83-.87,6.89-6.24,6.49-7-.52-14-.14-21-.12-4.77,0-9.57-.59-14,2.32a6.08,6.08,0,0,1-6.72-.09c-3.91-2.78-8.21-2.2-12.48-2.22-7.83,0-15.67-.25-23.49.08-4.13.17-5.11-1.37-5-5.16C201.36,522.66,201.17,516.48,201.17,510.32Z"/><path class="cls-4" d="M314.49,510.86c0-6.5,0-13,0-19.49,0-1.17-.52-3.15,1.47-3.07s1.31,2,1.31,3.2c.06,11.16.21,22.32,0,33.47-.1,4.32,1.14,6,5.63,5.76,7-.33,14-.08,21-.09,3.82,0,7.57-.22,11.08,2a6.22,6.22,0,0,0,6.27.42c6.21-3.51,12.93-2.27,19.49-2.42,4.66-.12,9.34-.24,14,0,4,.24,5.55-1,5.44-5.31-.28-11.15-.13-22.31-.05-33.47,0-1.29-.87-3.52,1.33-3.62s1.53,2.18,1.54,3.47c.08,12.66,0,25.32.14,38,.06,3.46-1.33,4.18-4.41,4.12-8-.15-16-.08-24,0-4.27,0-8.55-.52-12.49,2.19a6.54,6.54,0,0,1-7.19-.11c-3.48-2.32-7.2-2.11-11-2.1-8.5,0-17-.09-25.49.06-3,0-4.15-1-4.08-4C314.58,523.52,314.48,517.19,314.49,510.86Z"/><path class="cls-3" d="M340.14,726.22c-5.08,1.26-8.15-2.07-10-6s.86-7.25,4-9.83c8.7-7.18,10.46-7.26,19,0,2.38,2,6.6,3.34,5.71,7.41s-5,5.52-8.61,6.82A29.69,29.69,0,0,1,340.14,726.22Z"/><path class="cls-3" d="M264.88,726.26c-5.39-.14-10.62-1-15.22-4s-4.84-5.86-.8-9.43A34.83,34.83,0,0,1,253.5,709c2.41-1.48,3.81-5.66,7.08-4.42,5.56,2.11,11.31,4.68,14.07,10.48C277.25,720.54,271.8,726.56,264.88,726.26Z"/><path class="cls-5" d="M283.06,487.24c1.53,1.31.91,3.1.92,4.68.06,10.32-.19,20.64.13,30.94.14,4.37-1.46,5.33-5.44,5.14-6.31-.3-12.64-.09-19-.08-3.95,0-8-.51-11.45,2.23a3.88,3.88,0,0,1-4.29.45c-6.4-4.19-13.52-2.34-20.36-2.64-4.32-.2-8.66-.18-13,0-2.9.13-3.7-1.05-3.67-3.79.11-11.14,0-22.29,0-33.44,0-1.81-.19-3.75,3.08-4.38v18.79c0,5.83.13,11.65-.05,17.47-.09,3.08,1.18,4,4.09,4.13a28.44,28.44,0,0,0,13-2.77c5.35-2.47,10.51-3,15.27,1.45a4.08,4.08,0,0,0,5.9.11c5.12-4.82,10.56-3.84,16.2-1.3,5.29,2.37,10.7,3.58,16.4,1.54,1.71-1.4,1.1-3.35,1.11-5.09.06-9.42,0-18.83,0-28.25C282.1,490.67,281.6,488.75,283.06,487.24Z"/><path class="cls-6" d="M200.65,627.38c-5.73-9.07-5.47-18.91.15-24.72,4.9-5.06,8.21-4.71,11.93,1.09,3.14,4.9,6.47,9.66,9.68,14.51.6.9,1.94,1.79,1,3-.74,1-2.16.73-3.28.56-3.41-.51-6.41-1.79-8.18-5-1.37-2.51-2.62-2-4,0C205.68,620.25,203.29,623.61,200.65,627.38Z"/><path class="cls-6" d="M404.56,627.06c-3.2-3-5-6.72-7.46-10-1.54-2.09-2.79-2.89-4.26,0a7.56,7.56,0,0,1-3.58,3.35c-2.42,1.16-5.62,2.79-7.43.86s1.51-3.83,2.61-5.66c2.73-4.55,6.07-8.75,8.59-13.4,2.08-3.82,4.54-3.74,7.75-2.08,5.33,2.74,8.21,8.83,7.55,16.12A19.86,19.86,0,0,1,404.56,627.06Z"/><path class="cls-7" d="M323.29,525.64c5.14,1.91,10.19,1.15,15-.95,6.24-2.72,12.16-4.49,18,.94a4.06,4.06,0,0,0,5.53-.36c5-4.6,10.27-3.71,15.74-1.23,5.28,2.39,10.71,3.46,16.44,1.86a2.6,2.6,0,0,1,2.88,1.08c-6.33,1.86-12.8.45-19.19.83-5.7.35-11.63-1.07-16.91,2.5a3.83,3.83,0,0,1-3.33.21c-7.92-4.62-16.55-2.38-24.86-2.6-12.45-.33-12.45-.09-12.45-12.55,0-7.82,0-15.64,0-23.45,0-1.59-.59-3.37.9-4.7,1.45,1.52.95,3.43,1,5.19,0,9.4,0,18.81.06,28.21C322.11,522.34,321.45,524.31,323.29,525.64Z"/><path class="cls-6" d="M381.22,625.12c5.2-.6,9.47-1.26,12.52-4.84.27-.31,1-.68,1.17-.56,3,2.63,4.84,6.24,7,9.52,1.25,1.86-.67,3-1.64,4.22-7.21,8.87-7.22,8.86-13.56-.32C385.05,630.71,383.38,628.26,381.22,625.12Z"/><path class="cls-6" d="M223.7,625.12c-3.65,5.3-6.77,9.79-9.83,14.32-1,1.48-2,1.57-3.18.32-2.39-2.54-4.75-5.12-7.16-7.65a2.47,2.47,0,0,1-.22-3.55,40.57,40.57,0,0,0,2.82-4.12c2.07-3.76,4-6.11,8.17-1.77C216.33,624.8,219.84,624.6,223.7,625.12Z"/><path class="cls-4" d="M298.24,623.16c.37-3,2.72-3.13,4-4.8-3.65-1.44-5.49,1.94-8.36,2.45,1.43-3.8,4.3-5.94,8.29-5.77,7.63.33,14.85,2.61,21.94,5.83C315.68,623,307,620.8,298.24,623.16Z"/><path class="cls-5" d="M396.89,527,394,525.9V486.55c2.74-.21,3.19,1.27,3.18,3.08Q397.06,508.3,396.89,527Z"/><path class="cls-8" d="M261.47,610.12c-1.06,1.23.23,3.13-1.41,4.07-2-4.82-1-7.64,3.3-9.39,2.45-1,5.24-.82,7.54-2.37,1.56-1,2.5.25,3.16,1.34,1,1.69,2.3,3.65,1.62,5.53-.6,1.64-2.66,1-4,.56-3-1-5.37-1.79-7.53,1.87C263,613.67,263,610.26,261.47,610.12Z"/><path class="cls-3" d="M283.06,487.24c0,11.39.07,22.78-.09,34.16,0,1.49,1.53,4.3-2,4.37,0-11.88-.05-23.76.05-35.63C281,489,279.55,486.14,283.06,487.24Z"/><path class="cls-3" d="M323.29,525.64c-3.77.19-2.09-2.8-2.11-4.21-.18-11.4-.1-22.8-.1-34.21,3.22-1.68,2.18,1.19,2.19,2.28.11,7.92.06,15.84.06,23.76C323.33,517.38,323.3,521.51,323.29,525.64Z"/><path class="cls-3" d="M933.87,567.78c.31-9.31,0-18.65,1-27.94.84-7.42,3.09-9.55,10.49-9.81,6.87-.24,13.63.18,20.14,2.68,17.53,6.71,27,27.2,20.34,44.75-4.56,12.09-14.74,16.56-26.47,18.35-7.25,1.1-14.6.8-21.93.38-2.81-.15-3.68-1.19-3.63-3.93C934,584.1,933.87,575.94,933.87,567.78Z"/><path class="cls-3" d="M1204,616.56A67.42,67.42,0,0,1,1195,651c-13.81,24-40,31.2-64.09,17.55-14.88-8.41-24.36-21.53-30.46-37.12-8.38-21.42-12-43.41-4.64-65.89,12.2-37.18,52.67-47.1,80.94-19.92,14.36,13.82,21.4,31.47,25.12,50.64A110.17,110.17,0,0,1,1204,616.56Z"/><path class="cls-3" d="M826,613.07c.1,15.4-2.62,26.77-8.57,37.3-14.34,25.4-42.16,32.37-66.79,16.67-13.59-8.66-22.39-21.25-28.1-36-8.23-21.28-11.76-43.12-4.56-65.41,12-37.22,52.55-47.29,80.79-20.15,14.37,13.8,21.44,31.42,25.17,50.58A100.19,100.19,0,0,1,826,613.07Z"/><path class="cls-3" d="M1793.91,614.55c.18,12.7-2.17,23.17-7.07,33-14.17,28.53-45.25,36.27-71.11,17.61-14.36-10.37-22.87-24.89-28-41.48-6-19.27-8.38-38.76-1.82-58.41,12.38-37.08,52.86-46.91,81-19.62,14.18,13.74,21.2,31.21,24.94,50.19A102.63,102.63,0,0,1,1793.91,614.55Z"/><path class="cls-3" d="M320.06,264.79c-5.46,7.76-5.34,15.37-6,22.81-.07.93-.51,2.12.76,2.58s1.78-.57,2.4-1.32c1.78-2.18,3.54-4.37,5.94-7.31-.55,6.05,3.5,2.47,5.79,3.66-13.6,7.71-16.5,19.62-15.1,33.82,1.63,16.57,16.08,19,28.45,25.54-12.07,3.37-17.72-5.84-24.83-10-9-5.22-5.34-16.65-8.46-25.16a32.19,32.19,0,0,0-.46,13.61c.77,5,2.24,9.65,6,13.4,3.43,3.42,9,3.52,12.41,8.36-5.06-.19-9.42,1.41-14,0a4.64,4.64,0,0,1-3.08-2.05c-3.38-5.27-7.83-5.3-11.2.05-1.37,2.18-2.53,3.25-5,2.07-2.76-1.32-1.47-3.39-.79-5.09,1.76-4.42,4.87-8.36,4-13.9-1.37,2.58-2.45,5.38-4.2,7.67s-1.24,7-5.82,7.14c-3.25.1-6.5.5-8.64,3.14-2.81,3.46-6-.37-8.86.76,3-3.28,7.13-4.64,10.85-6.6,3.92-2.05,7.38-4.54,9.63-8.43,3.51-6.07,5.22-11.91.18-18.38-3.65-4.69-6.16-10.26-9.39-15.3a29.94,29.94,0,0,0-9.33-8.89c4.68-3.25,8.08-6.87,8.35-13.07,3.08,3.1,3.15,6.59,3.12,10-.06,9.06,4.92,15.25,11.43,20.62,2.65,2.19,4.65,1.29,4.64-1.9,0-11,.63-22.44-11.56-28.55-1.46-.74-1.46-1.42-.59-2.67,1.82-2.61,4.65-1.26,6.94-1.73s1.55,2.15,1.68,3.31c.78,7.14,5.1,12.57,8.57,18.4,1.81,3.05,3.18,1.42,4-.85a35.13,35.13,0,0,0,1.82-17.68c-.8-4.58.51-6.15,5.11-6.48C316.14,266.3,317.34,265.66,320.06,264.79Z"/><path class="cls-1" d="M308.51,264.88c-4.05-3-7.23-6.4-12.41-8,2.8,3,5.26,5.31,7.35,7.95,1,1.22,3.26,3,1.28,4.53-1.77,1.41-5,.68-5.75-1.13-1.6-3.62-3.64-2.2-6-1.54-3.41,1-5.24-.56-3.73-3.77,1.69-3.57-.34-4-2.75-4.58-2.67-.61-4.11-1.63-1.76-4.27a2.5,2.5,0,0,0,.36-2.76c-1.35-3.78-.35-5.52,3.89-4.37.45.13,1.24.23,1.41,0,4.64-6.3,5.26.31,7.15,2.3,1,1,1.69,2.22,3.21,1.21,2.86-1.9,3.66-.21,4.38,2.21.67,2.2.67,4.36,3.81,5.66C311.91,259.55,308.28,262.46,308.51,264.88Z"/><path class="cls-6" d="M315.25,255.17c.31-5.47,3.94-9.24,4.9-14.89-3.93,3.52-5,7.76-7.57,11.79-1.34-3.34-3.42-5.92.5-8.45,2.14-1.39.36-3.25.1-5-.41-2.64-2.69-6.35,3-6,.47,0,1.42-.73,1.41-1.1-.17-6.51,6.22-5.44,9.44-8.63,1.55,2.38,1,5.58,4.45,6.74,2,.68.34,3.17-.91,4.51s-2.84,2.31-1.17,4.91c1.29,2-1.94,2.45-3,3.72s-5,1.55-1.22,4.39c1.5,1.12-.28,2.4-1.17,3.17A21.87,21.87,0,0,1,315.25,255.17Z"/><path class="cls-1" d="M362.32,234.17a12,12,0,0,0-1.76.86c-2.84,2-5.54,3.78-4.45-2.22a6.68,6.68,0,0,0-.32-2.43c-.25-1.22-3.06-.92-2-2.58s2.69-.45,3.94.31c2.44,1.5,3.59-.34,5-1.76,1.85-1.91,3.55-4.39,6.28-.77,1.24,1.65,3,.34,4.6-.09s3.39-1.31,4.31.82c.79,1.85-.53,3.14-1.87,4.21-1,.83-2.17,1.54-3.18,2.4-1.43,1.2-2.31,2.39-.18,3.91,2.8,2,1.63,3.17-1,3.69a23.92,23.92,0,0,1-4,.36c-2.78.06-5.45.07-3.07,4.06.93,1.56,0,2.63-1.43,3a21.45,21.45,0,0,1-5.36.93c-2.07,0-5.07,1-5.9-1.31-.94-2.62,1.6-4.44,3.61-5.94C358.24,239.6,361.27,237.84,362.32,234.17Z"/><path class="cls-1" d="M243.93,216.55c.39,1.6.82,3.2,1.17,4.81.56,2.55,1.77,3.6,4.14,1.78,1.57-1.21,2.28-.16,2.2,1.06-.3,5,2.6,6.4,6.89,6.63a8.64,8.64,0,0,1,4.18,1.67A61.48,61.48,0,0,0,247.79,234c-2.26.54-3.64-2-5-3.62a35.92,35.92,0,0,0-4.19-4.87c0,4.68,2.74,7.88,6.12,10.54,3.87,3.05,3.69,5.78-.19,9.08-1.26-3.46-2.27-7.08-7.13-5.08-1.54.64-2.26-1-2.92-2.15s.16-1.85,1.05-2.33c3.53-1.88,1.25-2.85-.58-3.93-1.28-.77-2.57-1.52-3.81-2.35-.9-.6-1.66-2-.81-2.45,3.89-1.92,2.59-5.26,2.73-8.28.08-1.85,1.07-3.16,2.8-1.47,2.83,2.76,5.24,3.88,7.27-2.18Z"/><path class="cls-1" d="M261,269.92c2.51,6.3,9.63,7.08,11.76,12.56-2,1.51-4.11,1.62-6.25,1.62-.95,0-2.63-.07-2.3-1.16,1.44-4.79-2.09-4.09-4.68-4.62-2.13-.44-4.72-.73-2.69-4.05a3.87,3.87,0,0,0,.2-1.44c-6.56-.76-1.72-7.28-4.93-9.79a1.86,1.86,0,0,1-.26-2.69,1.93,1.93,0,0,1,2.64-.57c2.15,1,3.92,2.52,6.62.25,1.35-1.15,2.51,1.38,3.05,2.94.39,1.12,1.13,2.85,2.21,1.77,5.17-5.14,3.67,1.44,4.38,2.69.95,1.67-.05,4.56,3.76,3,1.28-.53,1.57,1.76,1.73,3,.19,1.42,1.2,3.13-.08,4.25s-2.49-.25-3.62-.85C268.79,274.86,265.75,271.7,261,269.92Z"/><path class="cls-1" d="M283.21,215.06c-2.65-3.5-3.78-7.91-8.11-10.07-.11.74-.39,1.4-.21,1.55,5.32,4.63-.47,7.14-2,10.41-.14.3-1.21.35-1.76.2-1-.27-1.22-1.09-.6-1.89,2.67-3.37.61-4.35-2.38-5.4-3.34-1.18-7.62-2.34-2-6.65,1.77-1.36-.38-3.3-.86-4.94s-1.59-3.6.33-5,3.86-.54,5.34,1c2.41,2.46,4.47,4.58,7.35.29,1.06-1.57,2.35,0,2.7,1.39a47.41,47.41,0,0,1,.81,4.91c.21,1.52.73,2.62,2.56,2,1.24-.45,2.38-.61,2.53,1.12.11,1.27.68,3.08-.77,3.63C282.37,209,282.9,211.85,283.21,215.06Z"/><path class="cls-1" d="M305.45,213.56c0-4.75,1.74-9.92-5.75-12.24,5.7-1,4.77-3.52,3.28-6.4-1.34-2.62-3-5.41,2.38-5.35,2.59,0,2.48-2.76,3.36-4.43.67-1.25.79-3.21,2.85-2.79,1.44.29,1.91,1.74,2.22,3.07.58,2.5-1.68,6.35,3.88,6.47,1.24,0,.43,4.14-.88,6.2-1.17,1.85-3.11,3.08.59,5.27,3.19,1.89-.23,5-1.79,6.82-1.27,1.52-3.6,2.16-5.88,3.43.13-5.26,2.19-9.82.93-15.61C308.11,203.57,308.36,209.06,305.45,213.56Z"/><path class="cls-6" d="M337.6,283.15c3.71-.65,7-3.61,9.17,1.6.26.63,1.72.91,2.67,1.1,2.54.5,6.13-.39,5.22,4.33-.06.33.88,1.21,1.4,1.24,5.14.39,2,6,4.93,7.78a6.6,6.6,0,0,1-.46,1.26c-3.56-1.65-6.83,3.72-10.47.43-1.54-1.38-2.93-2.64-5-.48-1.31,1.35-2.38-.12-3.11-1.27-1.68-2.63-2.11-6.08-6.29-6.89-1.3-.25-1.95-3.61-1.19-6,4.35.31,7.11,4,11.57,5.65C344.67,287.32,341,286.05,337.6,283.15Z"/><path class="cls-6" d="M323.12,265.58c3.27-5.67,10.09-5.12,14.89-9.22-6.15-.68-10.64,2.64-16.23,3.64,1-3.25,1-6.63,5.65-6.08.77.09,1.73-.89,2.5-1.49,2.1-1.63,4.63-1.69,6.86-2.29,4.58-1.24,8.07,1.65,12.07.86,1-.18,2.11-.21,2.36,1.13a1.91,1.91,0,0,1-1.08,2.07c-2.07,1.11-3.47,2.46-2.66,5.15.26.85-.59,1.55-1.51,1.59-2.86.13-6.33-.82-6.32,4a6.59,6.59,0,0,1-2.33.34c-2.7-.1-5.21-1-7.73,1.64C328.17,268.39,325.32,266.82,323.12,265.58Z"/><path class="cls-1" d="M283,244.13c-1.86,4.66-.38,8.45-2.19,11.89-.78,1.49.39,3.53,2.13,4,4,1,3.15,4.1,3,6.71-.12,2.29-1.49,4.37-3.86,4.53-2.53.17-2.26-2.52-2.67-4.11-.91-3.59-1.5-7.26-2.69-10.83-1.36,2.73-.58,5.47-.58,8.18,0,.94.32,2.15-1.16,2.25a1.66,1.66,0,0,1-1.79-1.41c-.55-3.12-5-5.64-1.48-9.4a1,1,0,0,0,.08-.92c-5.05-3.65.06-7.57-.26-11.35-.12-1.41.37-3.16,2.18-3.49,1.63-.3,2.41,1.16,2.83,2.34C277.58,245.39,279.74,245.39,283,244.13Z"/><path class="cls-1" d="M377.12,251c-1.58,0-3-.23-3.31.72-2.3,6.4-7.23,3.9-11.53,3.59-1.82-.14-3.66-.12-5.44-.43-.88-.15-2.11-.64-2.1-1.75,0-1.37,1.31-1.23,2.25-1.26,2.67-.1,6,.23,7.62-1.62,3.32-3.7,6.1-7.56,11.46-8.76,1.72-.38,1.33-3.13.58-4.9-.42-1-1.75-2,.11-2.77,1.5-.58,2.87.1,2.88,1.71,0,3.68,2,4.06,4.89,3.34,1.5-.37,3.05-.66,3.71,1.31a3.12,3.12,0,0,1-1.5,3.84c-2.18,1.42-4,2.59-2.49,5.91,1,2.22-1.45,2-2.8,1.84A39.8,39.8,0,0,1,377.12,251Z"/><path class="cls-6" d="M308.23,250c-2.46-2.38-3.81-4.6-6.64-3.16-1.35.68-2.13-.24-2.82-1.28a16.17,16.17,0,0,0-4.68-4.38c-2.49-1.66-4.13-3.56-.76-6.15,1.71-1.31.78-3.41,1-5.16.17-1.5.29-3.09,2-3.64,1.45-.46,2.53.48,3.54,1.35,2.36,2,3.76,6.6,8.22,2.92.57-.47,1.36.51,1.41,1,.31,3.38,1.43,7.12.38,10.06C309,244.06,307.89,246.34,308.23,250Z"/><path class="cls-5" d="M250.37,295.1c6.49-1.83,10.56-5.77,16-6.33,0,5.05-.06,5.11-5.18,6-2.16.39-2.38,2.49-3.32,4-1.68,2.68-2.41,8.34-7.26,2.38-1.45-1.78-3.68.22-5.52.74-1.48.42-3.19,2.21-4.43.31-.92-1.39.65-2.73,1.62-3.82,1.1-1.25,2.53-2.37,1.67-4.3-1.65-3.68.23-4.83,3.51-5,1.8-.1,3.41.45,3-2.83s2.39-1.34,3.78-1.13c2.17.31,5.88,3.7,4.16-2.47-.21-.78.35-1.22,1.1-1.29s1.1.45,1.21,1.2c.3,2.16,1.94,4.4-1.83,5.65C255.88,289.21,253.6,291.66,250.37,295.1Z"/><path class="cls-6" d="M332,213.34c-4,0-5.39,3.5-8.38,5-.53-1.41-1-2.74-1.55-4-.76-1.85-1.45-3.28,1.75-3.51,2.62-.19,2.28-3.33,3.49-5s2.19-4,4.07-.49c1,1.82,2.36,1.43,3.71.31,1.15-1,2.28-2,3.48-2.83a2.78,2.78,0,0,1,4,.5,2.5,2.5,0,0,1-.17,3.6c-1.82,2-3.65,3.73-1.19,6.8,1.37,1.71-.93,2.86-2.19,3.79-2.11,1.55-5.57,2-3.95,6.15.43,1.09-.89,2.06-2.08,2.41-1.7.49-1.92-.75-2.14-1.95,0-.16,0-.38-.14-.47C326.66,219.81,328.12,216.55,332,213.34Z"/><path class="cls-1" d="M225,253.81c2.17-3.25,1.08-5.1-2.68-5.95a3.21,3.21,0,0,1-2.79-3.6c.3-2.1,1.81-2.51,3.7-2.3,1.33.14,2.71.26,3-1.67.75-5.16,3.54-2.88,5.33-1.08,2.25,2.25,3.79,4.57,7.83,3.79,2.08-.4,2.33,2.5,1.08,4.06-2.61,3.26-2.25,6,.75,8.67.82.71,1.45,1.83.27,2.44a28.17,28.17,0,0,1-5.92,2.11c-.49.12-.71-.85-.73-1.58-.17-6.34-.43-6.5-6.62-4.82C227.32,254.13,226.37,254.62,225,253.81Z"/><path class="cls-6" d="M247.11,282.82c-1.37,4.17-4.73,5.14-7.43,6.66-1.23.69-2.68,1.16-3.91,2-2.51,1.69-4.81,2.78-5.9-1.48-.45-1.77-2.05-2-3.61-2s-3.24-.1-3.68-1.87,1.49-1.84,2.5-2.53c.27-.18.78-.28.83-.5,1-4.45,3.11-5.77,7.38-3.13,1.31.81,2-1.16,2.3-2.5,1.15-4.41,3.38-5,6.57-1.86C244.39,277.81,243.72,281.78,247.11,282.82Z"/><path class="cls-1" d="M294.41,212.93a19.56,19.56,0,0,0,.13,8c.2,1,.68,2.11-.35,2.74-1.4.85-2.07-.61-2.83-1.35-2.84-2.77-2.07-7.44-5.17-10.1,3.89-2.37,3.25-6.63,4.54-10.14.53-1.44,2.63.09,3.68,1.13,1.8,1.77,2.82,4.11,6.5,2.38,2.08-1,2.23,2.23,1.73,3.91-.92,3.14-3.16,6.45,2.56,7.3,1.35.2,1.13,1.72.41,2.37-1.59,1.44-2.73,3.44-4.19,4.67-1.67,1.41-3.46-.58-4.13-2.66C296.49,218.76,296.45,216.05,294.41,212.93Z"/><path class="cls-1" d="M359.66,216.83c-4.82.65-9,2.49-13.53,3.49-1.12.25-2.07,1.1-3.07-.22s-.46-2.23.5-3c2.68-2.19,3.48-8,9-4.84a.54.54,0,0,0,.48,0c3.95-3.77,8.28-2.33,12.73-1.15,1.47.39,3.55-.87,4.58.85,1.21,2-1.67,2.64-1.93,3.92-.84,4.15-4.58,5.29-7,7.83s-4.3,1.38-5.88-.24c-2.36-2.42-.11-3.66,1.78-4.84A28.1,28.1,0,0,0,359.66,216.83Z"/><path class="cls-1" d="M276,237.11c-2.93.36-5.11-.53-7.39-2.7-2.6-2.47-4.07-7-9-6.25-1-4.29-2.07-8.55-2.74-12.88-.12-.77,1.75-1.37,3-1.07,4.59,1.13,8.24,4.23,11.83,6.89,1.83,1.35,1.51,5.57,1.86,8.37a35.46,35.46,0,0,0,2.35,7.73Z"/><path class="cls-1" d="M223.18,269.66c2.91,2,5.31,1.32,7.5,1.56,2.35.27,2.59,1.51,2.25,3.42-.42,2.38-1.76,1.24-2.94.85-2.88-1-5.47-.07-8.16,1-2.2.87-5.56,2.58-3.54-2.62,1-2.48-1.2-2.64-2.56-3.33-1.56-.79-4-1-3.46-3.46s2.67-1.24,4.2-1.21c1.74,0,3.6.09,3.53-2.32-.12-4.69,2.13-2.94,4.17-1.6s3.81,3.88,5.82-.05c.8-1.56,2-.6,2.88.16,1.9,1.64,4,3.48,3.79,6.11-.12,1.87-2.16.73-3.31.74C230.24,268.91,227.11,268.6,223.18,269.66Z"/><path class="cls-1" d="M319.89,347.72c5.52.29,9.8.79,14.13,0,2.54-.43,10.75,8.8,10.76,11.44,0,2.08-1.84,1.77-2.87,1.41a11.59,11.59,0,0,0-8.06.09c-2.68.9-5.23-.64-6.93-2.88C324.74,354.94,322.78,351.89,319.89,347.72Z"/><path class="cls-1" d="M372.27,273.92c.78-.16,2-.07,2.27-.51.61-1.16-.63-1.2-1.35-1.38-1.91-.49-3.83-.92-6.12-1.46,1.54-2,1.28-6.15,5.54-2.63,1.31,1.08,3.18-1.27,4.86-1.89s4.38-1.57,4.2,1.1c-.23,3.73,1.9,4,4.31,4.63,1.7.43,3.26,1.09,3.13,3.22-.16,2.48-2.08,2.22-3.72,2.1-2.24-.17-3.95.17-4.31,2.85-.24,1.82-1.41,2-2.94,1.4-2-.72-3.81-1.88-5.84.38-.71.79-2.22-.47-2.13-1.84a5.91,5.91,0,0,0-2.13-4.83C368.81,272.31,370.71,273.75,372.27,273.92Z"/><path class="cls-1" d="M279.05,347.68c5.44.45,9.7.7,14,.09,2.55-.35,10.71,9.06,10.75,11.55,0,1.53-1.27,1.66-2.05,1.36-3.24-1.23-6.29-.71-9.54.1-2.14.54-4.3-.75-5.66-2.52C284.16,355.15,282,351.87,279.05,347.68Z"/><path class="cls-1" d="M250.66,360.9c-5.12,0-8.22-2.86-8.1-6.93.12-4.22,3.17-6.78,7.75-6.5,4,.25,12.21,7.81,12.55,11.62.18,1.89-1.4,1.87-2.32,1.61C257,359.67,253.47,359.26,250.66,360.9Z"/><path class="cls-1" d="M316.75,186.42c2.76.54,4.73.19,6.15-2.16.77-1.26,1.94-2.52,3.66-2.07,2,.51,1.58,2.31,1.54,3.75-.05,1.61.17,2.86,2,3.52,3.55,1.31,3.1,3.25.76,5.53-1.13,1.1-3.64,1.9-1.37,4.24.64.66-.06,1.22-.69,1.45-2.64.93-3.74,3.16-4.73,5.48-.41,1-.88,1.94-2.1,1.71-1.61-.29-.61-1.52-.73-2.38-.57-4.15-1.28-8.2-.24-12.5C321.63,190.24,319.11,188.39,316.75,186.42Z"/><path class="cls-1" d="M274.8,191.43c4.37-2.05,4.72-5,2.75-8.72A1.91,1.91,0,0,1,278,180c1.2-.74,2.18,0,3.14.76,2.11,1.55,3,5.28,7.18,3.12,1.44-.76,1.58,1.94,1.92,3.34.45,1.86-1.29,5.31,3.11,4.52.19,0,.76.68.71,1-.33,2,1.37,5.42-1.67,5.71-2.64.26-6.87,4.36-8.37-2C282.63,190.66,281.07,190,274.8,191.43Z"/><path class="cls-1" d="M340.45,278.55c2.48-1.66,4.7-2.72,7.76-1.73,5.05,1.64,10.42.3,15.64.83,2.19.23,3.62.22,3.24,2.87a4.18,4.18,0,0,1,0,.5c-.73,2.59,4.11,2.56,2.63,5.1-1,1.71-3.83.55-5.37,2.83-1.71,2.54-5.41,1.47-6.35-1.53-.36-1.15-.6-2.79-1.64-2.81C350.35,284.51,347.18,276.93,340.45,278.55Z"/><path class="cls-6" d="M295.67,301.71c-9.06-6.24-10.54-15.08-10.27-24.68C293.22,278.72,297.9,289.71,295.67,301.71Z"/><path class="cls-4" d="M266.43,260.44c-4-6.26-9.88-2-14.65-3.57-1.52-.5-3.32-.11-4.88-.55a7.14,7.14,0,0,1-5.11-4.89c-.67-2.76,2.81-2.15,4-3.44,3.54-3.91,5.66-1.11,7.07,1.66,2.19,4.29,5.62,4.62,9.63,4.22,1.82-.18,3.92-2,5.35.51C269,256.46,267.13,258,266.43,260.44Z"/><path class="cls-9" d="M335.73,271.33c-5.37.23-8.64,3.53-12.78,5.83-.45-3.89,2.93-5.12,4.53-6.2,4.12-2.77,9.33-3.11,14.27-3.5,2.17-.17,1,2.36,1.89,3.47s.34,2.58-1.18,3.16c-2.86,1.09-6.76.49-6.3,5.94.1,1.2-5.38,2.16-8.54,1.62C327.49,276.24,333,275.29,335.73,271.33Z"/><path class="cls-5" d="M360.15,258c3.81.12,7.11,1,8.25,4.19.88,2.45-6,9.34-8.46,8.57-3.83-1.23-3.66-4.94-3.88-8.22S357,257.4,360.15,258Z"/><path class="cls-5" d="M335.4,232.4c-1.76-4.46,3.8-6.72,3.11-11-.15-1,1.89-.2,2.51.81,1.3,2.09,2.91,2.35,5.05,1.29,2-1,4.87-3.08,5.78.1.73,2.56-1.88,4.84-4.82,5.64Z"/><path class="cls-4" d="M245,273.74c-4.13-1.89-4.83-5.39-6-8.64-1-2.74.77-3.06,2.63-3.51a8.16,8.16,0,0,0,1.33-.65c1.7-.79,4.21-3,5.08-1s3,4.92.84,7.8C247.36,269.68,246.2,271.8,245,273.74Z"/><path class="cls-9" d="M347.72,232c2.07.85,5.81-1,5.32,3.65-.31,3-.31,6.24-3.77,7.23-2.31.66-7-4.46-6.93-7.39C342.36,231.67,345.51,232.52,347.72,232Z"/><path class="cls-7" d="M305.35,288.31c-2.08-3.63-3.85-6.37-5.28-9.29-1-2-2.73-4.78-1.07-6.31,1.22-1.13,4.32-.27,6.58-.22,1.73,0,1.5,1.51,1.63,2.56A24.29,24.29,0,0,1,305.35,288.31Z"/><path class="cls-5" d="M256.07,234.9c2,1.21,4.88-.36,4.84,3,0,2.42-4.77,8.95-6.22,8.47-3.55-1.17-4.29-4.46-4.44-7.61C250,233.7,254.78,237.19,256.07,234.9Z"/><path class="cls-8" d="M276,215.51c3.73,2.35,7.26,1.8,9.58,4.32,1.33,1.44,2,2.63-.53,3.6-1.84.7-3.52,1.8-5.32,2.64-1.12.52-2.13,2.2-3.4,1.28s-1.5-2.94-1.13-4.59C275.66,220.68,276.66,218.72,276,215.51Z"/><path class="cls-7" d="M320.63,219.41c-.07,1.35-.15,3-1.78,2.26-3.07-1.29-7-.27-9.29-3.17-.74-.93,5.81-5.87,7.68-5.35C320.4,214,319.83,217.24,320.63,219.41Z"/><path class="cls-1" d="M275.87,237.2c3.72.52,7.18,2.4,11.2,1.46,2.17-.51,2.74,1.9,2.7,3.34-.06,2.19-2,1.95-3.41,1.37-3.74-1.59-8.47-1.63-10.4-6.26Z"/><path class="cls-10" d="M317.32,283.14c0-4.89.65-9.1,2.73-13,.45-.85.88-1.93,2.15-1.56.6.17,1.42.53,1.6,1,.47,1.23-.75,1.71-1.49,2.21-2.29,1.55-2.68,3.76-2.16,6.17S320.07,281.82,317.32,283.14Z"/><path class="cls-11" d="M332.19,242.13c2.2,2.67,1.76,4.5-1.16,5.77-.79.34-1.48,1.37-2.17-.29C327.37,244,330.62,243.74,332.19,242.13Z"/><path class="cls-10" d="M301.48,344.63c.69-2.75,2.36-3.29,4.52-2.51,1.16.42,2.07,2.17,1.41,2.71C305.6,346.32,303.57,344.66,301.48,344.63Z"/><path class="cls-12" d="M372.27,273.92,368,275.06c-2.39-.5-4.89.6-8.34-.81C364.5,272.22,368.38,273.05,372.27,273.92Z"/><path class="cls-13" d="M319.14,257.5c-.79,2.32-.4,4.79-3.09,5.1-1.14.13-.91-1.18-1-1.92C314.9,257.82,316.86,257.87,319.14,257.5Z"/><path class="cls-6" d="M1107.26,399.42c0-3.36-.08-5.53,0-7.69.35-8.87,1.25-9.69,10.19-8.77,6.69.69,11.6,3.91,13.85,10.5,2.36,7-.56,13.14-7.43,15.7-4.61,1.73-9.76,2.85-14.21,1.28C1103.34,408.21,1109.49,402.07,1107.26,399.42Z"/><path class="cls-3" d="M1556.26,382.94a24.52,24.52,0,0,1,6.92.93c19.41,5.56,29.31,35.89,16.88,51.79-7.06,9-19,10.87-29.64,4.56-13.49-8.05-20.55-29.81-14.14-44.1C1540.11,387.59,1546.79,383.05,1556.26,382.94Z"/><path class="cls-2" d="M329.52,426.11c.08-2.55,3.6-3.67,2.07-6.56-1.07-2-3.15-1.09-5.58-.87,1.93-2.93,3.07-5.7.66-8.4a2.11,2.11,0,0,0-2.7-.47c-3.19,1.51-3,4.46-2.92,7.35-5.87-2.2-6.18-1.85-5.55,5.84,2.4,1.22,1.85-2.36,3.78-2.23,1.52,2.27.74,4.27-1.38,5.33-3.95,1.95-7.88,1.74-11.82-1.43,1.84-.93,4.74.36,4.3-3.05-.28-2.21.29-4.62-3.35-3.58-.77.22-.86-.7-1-1.38-.47-3.25-3.07-1.67-4.74-1.89-1.32-.17-3.31-.44-2.8,2.14.15.78-.1,1.44-1,1.2-4-1.1-3.36,1.69-3.4,4-.06,3.2,2.5,1.66,4.57,2.06C295,428,291,427.93,287,426.27c-2.32-1-3.44-3.11-1.54-5.62,1.82,0,1.08,3.08,3.71,2.44-1.18-2.18,2.46-4.84-.73-6.78-2.22-1.34-3.81.47-5.42,3.33.17-4.19,1.53-7.59-2.06-9.65a2.21,2.21,0,0,0-3.11.38c-2.3,2.56-1.17,5.21.48,8.16-2.8-.31-5.61-.72-5.7,2.07-.06,1.73,1.47,4.53,2.92,5,1.93.68.66-2.36,2.17-3.74,2.39,2.59,2.24,4.91-.29,7.09a8.24,8.24,0,0,1-12.26-1.33c-3.29-4.42-6.37-9-8-14.3C253.9,403,259.83,394.59,270.76,394a26.49,26.49,0,0,1,9.77,1.72c3,1,6,1.95,9,2.85,3.19.95,5.27.34,4.85-3.64a12.22,12.22,0,0,1,.06-2.49c.09-1,.18-2.23,1.45-2.22s1.24,1.34,1.24,2.27c.05,5.16.27,10.34,0,15.48-.24,4.26,2.37,3.86,5.12,3.92,2.91.06,5.24.08,5-4-.29-5-.08-10,0-15,0-1.13-.1-2.69,1.49-2.67s1.24,1.65,1.34,2.73c.63,6.73.9,6.93,7.66,4.92,3.67-1.08,7.24-2.58,11-3.39,6.43-1.39,12.37-.16,16.81,5,4.24,5,3.23,10.52,1.08,16a53.1,53.1,0,0,1-7.72,12.8c-3,4-10.38,3.43-13-.71a3.77,3.77,0,0,1-.29-4.22c.3-.48,1.14-1.1,1.52-1C328.7,422.92,327.13,425,329.52,426.11Z"/><path class="cls-14" d="M302.67,462.31c-8.8-.07-16.62-.41-24.14-2.84-2.46-.8-5.56-1.54-5.56-4.87s3-4.21,5.55-4.86a91.9,91.9,0,0,1,47.29.07c2.51.67,5.48,1.61,5.32,5-.14,3-3,3.78-5.29,4.55C318,462,309.85,462.23,302.67,462.31Z"/><path class="cls-14" d="M260.16,427.19a11,11,0,0,1,1,.62c2.44,2.27,2.44,7.15,5.58,7.73,2.66.49,5.77-2.16,8.81-2.92,20.13-5,40.13-5.25,59.74,2.37,2.71,1.06,3.79.55,4.82-1.9a38.14,38.14,0,0,1,3-5.16,7.53,7.53,0,0,1,1.35-1.24,5.15,5.15,0,0,1-.15,1.59c-2.05,3.6-1.23,9.46-4.51,11.07-3.07,1.51-6.91-2.93-10.79-3.84-21-4.95-41.77-5.81-61.89,3.68-2.2,1-3.34.87-4-1.59C262.31,434.27,261.27,431,260.16,427.19Z"/><path class="cls-14" d="M330.93,459.18c6.84-6.11,6.48-9.43-1.11-11.94a86.73,86.73,0,0,0-55-.18c-7.67,2.46-8.14,4.93-2.72,11.84-3.7-.76-5.82-2.64-6.57-5.63-.82-3.29,1.44-5.35,3.94-6.84,7.53-4.5,16.06-5.37,24.51-6.09a92.49,92.49,0,0,1,32.7,2.77,37,37,0,0,1,7.8,3.25c2.54,1.4,4.87,3.48,4.13,6.74S335.48,458.36,330.93,459.18Z"/><path class="cls-15" d="M302.5,390.08c-1-2.94-4.48-3.69-5-5.75-.3-1.21,3.81-2.4,4.5-5,2.09,1.18,2.55,4.2,5.28,4.65C306.28,386.41,302.73,386.67,302.5,390.08Z"/><path class="cls-16" d="M252.25,414.78c-1.43-.33-2.3-1.14-2.16-2.7a2.11,2.11,0,0,1,2.25-2.07,2.2,2.2,0,0,1,2.47,2.37A2.44,2.44,0,0,1,252.25,414.78Z"/><path class="cls-17" d="M255.37,423a2.31,2.31,0,0,1-2.17-2.66,2.22,2.22,0,0,1,2.28-2.11,2.27,2.27,0,0,1,2.47,2.42C257.93,422.12,256.94,422.92,255.37,423Z"/><path class="cls-18" d="M284.59,435a2.29,2.29,0,0,1,2.35,2.12,2.36,2.36,0,1,1-4.69,0A2.29,2.29,0,0,1,284.59,435Z"/><path class="cls-18" d="M334,389.24c0,1.79-.81,2.7-2.33,2.79a2.17,2.17,0,0,1-2.42-1.89,2.24,2.24,0,0,1,2-2.78C332.81,387.08,333.54,388.16,334,389.24Z"/><path class="cls-19" d="M352,401c1.72,0,2.66.86,2.68,2.3a2.29,2.29,0,0,1-2.43,2.46,2.14,2.14,0,0,1-2.23-2.11A2.18,2.18,0,0,1,352,401Z"/><path class="cls-20" d="M250,403.31a2.23,2.23,0,0,1,2.56-2.26,2.16,2.16,0,0,1,2.17,2.18,2.3,2.3,0,0,1-2.33,2.56C250.89,405.84,250.08,404.84,250,403.31Z"/><path class="cls-21" d="M348.12,393.24a2.35,2.35,0,0,1,2,2.93,2.33,2.33,0,0,1-4.61-.51A2.39,2.39,0,0,1,348.12,393.24Z"/><path class="cls-16" d="M259.07,395.84a2.24,2.24,0,0,1-2.62,2.15,2.16,2.16,0,0,1-2.13-2.22,2.28,2.28,0,0,1,2.39-2.5C258.18,393.27,259,394.23,259.07,395.84Z"/><path class="cls-18" d="M317,394.36c-.2,1.52-1,2.48-2.61,2.37a2.23,2.23,0,0,1-2.17-2.33,2.21,2.21,0,0,1,2.59-2.36A2.27,2.27,0,0,1,317,394.36Z"/><path class="cls-22" d="M281.5,394c-1.58-.36-2.49-1.23-2.23-2.75a2.37,2.37,0,0,1,4.71.44A2.36,2.36,0,0,1,281.5,394Z"/><path class="cls-23" d="M289.92,392a2.15,2.15,0,0,1,2.27,2.14,2.18,2.18,0,0,1-2.29,2.61,2.23,2.23,0,0,1-2.29-2.65A2.15,2.15,0,0,1,289.92,392Z"/><path class="cls-16" d="M266.71,390.87c-.26,1.63-1.14,2.44-2.71,2.31a2.3,2.3,0,0,1,.09-4.58A2.4,2.4,0,0,1,266.71,390.87Z"/><path class="cls-16" d="M302.06,405.55c1.69.19,2.58,1,2.47,2.6a2.07,2.07,0,0,1-2.3,2,2.1,2.1,0,0,1-2.29-2.52C300,406.26,301,405.76,302.06,405.55Z"/><path class="cls-24" d="M339.86,388.61c1.73,0,2.72.78,2.79,2.29a2.07,2.07,0,0,1-2.09,2.25,2.09,2.09,0,0,1-2.55-2.23A2.14,2.14,0,0,1,339.86,388.61Z"/><path class="cls-23" d="M304.61,400.8c-.17,1.27-.74,2.2-2.13,2.29a2.33,2.33,0,0,1-.51-4.63C303.56,398.34,304.36,399.3,304.61,400.8Z"/><path class="cls-25" d="M301.8,396a2,2,0,0,1-1.86-2.09,2.19,2.19,0,0,1,2.26-2.66,2.25,2.25,0,0,1,2.35,2.61C304.47,395.2,303.66,396,301.8,396Z"/><path class="cls-26" d="M351.32,420.51c-.2,1.35-.71,2.32-2.1,2.42a2.36,2.36,0,0,1-.44-4.7C350.42,418.1,351.07,419.18,351.32,420.51Z"/><path class="cls-27" d="M273.74,392c-1.89.13-2.76-.51-3-1.83a2.19,2.19,0,0,1,2-2.8c1.58-.17,2.44.86,2.47,2.38A2.07,2.07,0,0,1,273.74,392Z"/><path class="cls-28" d="M304.62,435.82a2.16,2.16,0,0,1-2.07,2.35,2,2,0,0,1-2.5-1.82,2.08,2.08,0,0,1,2.21-2.63A2.21,2.21,0,0,1,304.62,435.82Z"/><path class="cls-26" d="M352.15,414.76a2.26,2.26,0,0,1-2.21-2.2A2.11,2.11,0,0,1,352.2,410a2.06,2.06,0,0,1,2.25,2.1A2.36,2.36,0,0,1,352.15,414.76Z"/><path class="cls-19" d="M267.51,440.61c1.38.07,2.39.45,2.57,1.86a2.3,2.3,0,0,1-4.51.88C265.29,441.78,266.22,441,267.51,440.61Z"/><path class="cls-29" d="M323.23,394c-1.66-.09-2.45-.89-2.54-2.15a2.18,2.18,0,0,1,2.27-2.58,2.39,2.39,0,0,1,.27,4.73Z"/><path class="cls-30" d="M336.64,440.61c1.48.3,2.37,1,2.32,2.38a2.06,2.06,0,0,1-2.27,2.14c-1.53,0-2.56-.84-2.35-2.52A2.36,2.36,0,0,1,336.64,440.61Z"/><path class="cls-19" d="M320.17,439.79a2.32,2.32,0,0,1-2.57-2.43,2.12,2.12,0,0,1,2.08-2.29,2.09,2.09,0,0,1,2.44,1.88A2.3,2.3,0,0,1,320.17,439.79Z"/><path class="cls-31" d="M257.58,578.8c-2.94,4-8.88,4.42-5.23,10.46-3.46-1.14-4.79-2.92-4-5.15C249.61,580.56,253.11,580.11,257.58,578.8Z"/><path class="cls-32" d="M301.34,648.77c4-1.38,7.5-1,11.33,0C308.9,651.54,306,651.55,301.34,648.77Z"/><path class="cls-33" d="M314.38,636.44c3.83-2,7-1.23,11.18.06C321.37,638.68,318.19,638.65,314.38,636.44Z"/><path class="cls-27" d="M333.21,565.33c-.8.31-1.29.71-1.63.61-2.77-.84-5.86-1-7.92-3.4-.4-.47.2-1.46.89-1.37A13.25,13.25,0,0,1,333.21,565.33Z"/><path class="cls-20" d="M293.21,565.84c-1.82,1.83-4.21,2.86-6.51,4-.93.45-2,.46-2.44-.77s.45-1.81,1.46-2.15c2.28-.77,4.58-1.5,6.87-2.25C292.8,565,293,565.44,293.21,565.84Z"/><path class="cls-29" d="M318.42,643a11.38,11.38,0,0,1-10.79-.37A17.05,17.05,0,0,1,318.42,643Z"/><path class="cls-34" d="M266.81,572.71c-.16,1.14-1.1,2.26-1.25,2-1.21-2.33-4.48-.13-5.12-2.15-.5-1.56,1.38-2.41,2.94-2.39A3.47,3.47,0,0,1,266.81,572.71Z"/><path class="cls-22" d="M294.91,571.56c-2.62,2.7-4.72,3.79-7.32,3.27a1,1,0,0,1-.42-1.66C289.11,571.24,291.58,571.79,294.91,571.56Z"/><path class="cls-35" d="M333.18,571c-1.26.47-1.61.74-1.84.66-2.09-.7-4.49-.76-6-2.69-.11-.14.36-1.05.61-1.07C328.68,567.64,330.76,568.88,333.18,571Z"/><path class="cls-36" d="M294.82,579.29c-2.16,2-4.1,2.3-6.17,1.36a1,1,0,0,1,0-1.65C290.58,577.66,292.48,578.26,294.82,579.29Z"/><path class="cls-18" d="M305.24,655.79c-2.44,1.57-4.84,1.68-8-.18A10.58,10.58,0,0,1,305.24,655.79Z"/><path class="cls-28" d="M345.41,576.75c-3.43-.16-5.17-1.6-6.3-3.83-.09-.16.53-1,.76-.95C342.54,572.28,344,574.07,345.41,576.75Z"/><path class="cls-30" d="M232.23,664.25l5.81,2.91c-4.54,2.36-5.27,6.65-6.8,10.41a3.24,3.24,0,0,0,1.56,4.27,3,3,0,0,0,4.31-1.2c2.2-3.48,5.25-6.7,3.94-11.46,4,.82,5.92,2,2.29,5.61-1.33,1.32-1.76,3.53-2.75,5.25-2,3.55-4.83,5.64-9,3.54s-4.29-5.39-2.63-9.29C230.28,671.18,232.51,668.4,232.23,664.25Z"/><path class="cls-28" d="M210.73,662.65c-2.09-.6-1.17-4.11-3.61-2.9A3.69,3.69,0,0,0,205.3,664c1,3,3.4,2,6.1.89-1.17,3.48-2,5.73-5.17,2.82-.85-.78-1.77-1.5-2.69-2.2-2-1.55-3.24-2.38-.75-5.36,2.68-3.21,5.23-7.2,5.15-12,7.52,3.58,8.95,5.68,6.59,9.54-1.42-.13-.75-1.14-.76-1.84a2.78,2.78,0,0,0-2.67-3c-1.56,0-1.64,1.82-2.24,2.92-.94,1.73.32,2.32,1.62,2.88C214.12,660.25,210.54,661.22,210.73,662.65Z"/><path class="cls-15" d="M195.63,633.9c2.48,2.77,5.26,4.26,1.93,8.19-1.56,1.85-1.73,5.56-1.3,9.31,2.85-2.88,6.11-4.62,5.84-9.45,2.54,2.28,6,3.49,1,6.35-2.38,1.38-4.14,3.82-6.25,5.7-.81.72-1.59,2-2.9,1.45-1.59-.7-1.09-2.3-.93-3.54C193.81,646.18,194.68,640.46,195.63,633.9Z"/><path class="cls-26" d="M251,692a10,10,0,0,1-5.8-2.5c4.34-2.89,5.11-7.77,6.9-12,.86-2-.6-2.4-5.1-.69.22-3.19,1.1-4.9,4.54-3.17,2.36,1.19,4.76,2.32,7.18,3.38,3.21,1.41,2.76,3.14.64,5.14-2-.24-.93-1.79-1.32-2.7-.55-1.28-1.87-2.09-2.52-.63C253.6,683.05,250.2,686.76,251,692Z"/><path class="cls-24" d="M224.94,674.67c-2.34,4.7-2.95,4.6-11.44-2,4.08-4.25,6.25-9.45,7.37-15.19a13,13,0,0,1,5,3.29c-4.45,2.44-5.39,7.11-7.18,11.12-1.27,2.84,1.25,3.21,3.27,3.36C222.93,675.3,223.65,673.39,224.94,674.67Z"/><path class="cls-37" d="M369.48,670.69c-2.26-1-4.89-2-6.18.82-.78,1.69.46,4,1.87,4.75,2.4,1.25,3.33-1.54,4.47-3.13a5.34,5.34,0,0,1,2.12,4.34c-1.91.33-4.69-.8-5.24,2-.24,1.22.52,3.45,2.07,3.61,2.9.31,4.22-1.93,4.92-4.58,2.7,4,1.49,5.18-8.32,8.46-.47-.18-.87-.37-.58-1,.89-2-.1-3.64-1.43-4.85-1-.88-2.23,0-3.15.71a3.84,3.84,0,0,0-.95,5c2.72,4.68-1.3,3.34-3.69,4.65,2-6.14,1.36-11.82,2.37-17.32.44-2.4,8.19-7.8,10.28-7C369.33,667.58,370,668.76,369.48,670.69Z"/><path class="cls-30" d="M405.17,657.89c-.05,5.45-3.48,9.28-8.27,9.22-4.09-.05-7.65-4.52-7.55-9.48.09-4.78,4.3-9.39,8.57-9.41C402,648.2,405.22,652.54,405.17,657.89Z"/><path class="cls-15" d="M377.74,661.1c-1.18,5.86,3.35,7.25,6,11.31.27-5,.8-8.68-1.73-12.08-1.08-1.45-.94-1.55,3.4-3.86.25,5.21.55,10.34.71,15.47.05,1.57.94,3.68-.91,4.54-2.19,1-3.05-1.41-4.28-2.55-3.11-2.87-5.55-6.43-9.72-9.12Z"/><path class="cls-26" d="M328.79,742.54c-.13,5.15-4,9.3-8.55,9.14-4.79-.18-8.16-3.9-8.05-8.91a8.71,8.71,0,0,1,8.87-8.75C325.68,734.14,328.91,737.7,328.79,742.54Z"/><path class="cls-15" d="M292.42,750.76c-3.73,1.57-4.71-.74-5.78-3.13-.58-1.28-1.11-3.26-3.05-2.47-1.43.58-.88,2.25-.7,3.56.11.77,1.72,1.74,0,2.3a6.94,6.94,0,0,1-3.42.05c-1.71-.37-.45-1.43-.36-2.25a39.12,39.12,0,0,0-.14-12.36c-.11-.57-.93-1.38-.28-1.67,3.06-1.36,6.2-.67,9.18.33,2.22.74,2.86,2.64,2.34,4.85C288.79,746.08,288.77,746.07,292.42,750.76Z"/><path class="cls-38" d="M295.9,751.18a22.3,22.3,0,0,0,.69-14c-1-3.48.3-3,2.26-3a28.07,28.07,0,0,1,4.93.35c1.88.33,4.5,2.13,3.54,3.23-3.6,4.16,5,9.19-1.22,12.57C303.07,751.92,299.7,751.37,295.9,751.18Z"/><path class="cls-29" d="M346.85,750.63c-3.5,1.77-4.59-.43-5.68-2.82-.66-1.44-1.19-3.68-3.28-2.9-1.62.6-.68,2.6-.65,4,0,.74,2,1.57.06,2.17a6.41,6.41,0,0,1-3.42,0c-1.82-.5-.12-1.45-.1-2.21.09-3.8,1-7.9-.06-11.33-1.18-3.69.26-3.51,2.64-3.33a25.47,25.47,0,0,1,5.86.9c2.1.69,3.77,2.94,2.46,4.62C341.05,744.38,344.36,747.32,346.85,750.63Z"/><path class="cls-30" d="M275.15,751.62c-2.78-1-6.24,1.74-5.49-3.44.25-1.73-2.22-1.5-3.66-1.47s-2.6,0-2.81,2c-.26,2.46-.44,2.44-3.85,2.26,1.9-4.89,3.78-9.73,5.65-14.57.42-1.1.79-2.35,2.29-2.15,1.13.16,1.4,1.25,1.77,2.18C270.92,741.14,271.89,746.23,275.15,751.62Z"/><path class="cls-39" d="M254.08,511c6.54-1.55,11.46,3.07,17.25,4.6C265.06,516.28,260.32,510.81,254.08,511Z"/><path class="cls-32" d="M253.22,494.5c6.93-2.39,12,3,18.09,4.46C264.86,499.41,259.8,493.76,253.22,494.5Z"/><path class="cls-40" d="M271.28,490.56c-6.38.42-11-4.77-17.32-4.56C260.68,484.17,265.49,489.29,271.28,490.56Z"/><path class="cls-41" d="M271.45,507.37c-6.62.14-11.72-5-18.37-4.65C260.25,500.39,265.3,506,271.45,507.37Z"/><path class="cls-42" d="M219.5,490.66c5.92-1.38,10.86-6.35,17.63-4.68C230.74,485.82,226,491.15,219.5,490.66Z"/><path class="cls-43" d="M219.78,515.71c5.71-1.81,10.7-6.09,17.32-4.76C230.84,510.84,226.11,516,219.78,515.71Z"/><path class="cls-32" d="M237.92,494.41c-6.57-.57-11.6,4.78-18.06,4.6C225.82,497.27,231,492.47,237.92,494.41Z"/><path class="cls-44" d="M237.79,502.68c-6.69-.36-11.83,5.15-18.49,4.75C225.52,506,230.69,500.73,237.79,502.68Z"/><path class="cls-42" d="M350.14,511c-6.29-.13-11,5.25-17.34,4.63C338.62,514.07,343.53,509.45,350.14,511Z"/><path class="cls-45" d="M351.05,494.49c-6.69-.82-11.68,5-18.26,4.46C338.89,497.45,344,492.31,351.05,494.49Z"/><path class="cls-46" d="M332.91,490.64c5.71-1.68,10.63-6.08,17.24-4.71C343.86,485.79,339.27,491,332.91,490.64Z"/><path class="cls-47" d="M332.69,507.38c6.16-1.55,11.24-6.74,18.29-4.69C344.28,502.31,339.26,507.7,332.69,507.38Z"/><path class="cls-48" d="M384.77,490.62c-6.64.73-11.72-5.22-18.35-4.59C373.37,484,378.63,489.21,384.77,490.62Z"/><path class="cls-49" d="M366.17,511.68c4.19-2.35,4.71-2.23,19.63,4.4C378.05,516.5,373,510.2,366.17,511.68Z"/><path class="cls-32" d="M366.13,494.81c4.75-1.94,7.25-1.3,19,4.56C377.81,499.48,372.87,493.59,366.13,494.81Z"/><path class="cls-44" d="M366.35,502.77c7.07-2.39,12.16,3.34,18.42,4.56C378.18,507.84,373.06,502.31,366.35,502.77Z"/><path class="cls-1" d="M344.56,411.89c-5.14-7-12.86-6.78-23.31-11.34,6.47-4.5,15.14-4.93,20.28-1C345.42,402.53,346.33,406.23,344.56,411.89Z"/><path class="cls-5" d="M260.25,412.79c-2.1-5.51-1.42-9.44,2.18-12.7,4.81-4.35,12.32-4.27,21.74.51-6.22.52-10.42,4.68-16.12,5.18C264.56,406.08,262.35,408.87,260.25,412.79Z"/><path class="cls-50" d="M278.09,406.08c-2.31,2.22-4.46,4.51-4.39,8,0,.47-.13,1.2-.43,1.37-4.8,2.64-3.76,6.36-2,10.27a4.25,4.25,0,0,1,0,1.53c-6.14-4.42-4.92-7.28-.23-15.11-3.42.73-3.42.73-7.39,6.95-1.62-5.86.57-10.15,6.17-10.92a19.31,19.31,0,0,0,8.26-2.93C278.77,405.53,278.77,405.8,278.09,406.08Z"/><path class="cls-51" d="M327.05,406a32.61,32.61,0,0,0,7.48,2.14c6,.83,8.61,6.05,6,12-1.08-4-2.75-7.21-7.7-9,3.41,5.82,7.33,11,.58,16.33,3.92-9.09-3.25-14.65-6.33-21.5Z"/><path class="cls-8" d="M327.09,406c-3.54.62-6.67,1.88-8.33,5.42-.35.75-.79,1.64-1.72,1.55-1.55-.14-3.33,2.21-4.4.21-.79-1.48,1.39-2.3,2.43-3.25.83-.75,1.79-1.36,3-2.28-3.43-1.37-5.11,1.52-7.56,2.05-1.28-2.76.67-4,2.59-4.81,4.77-2,9.54-2.25,13.92,1.17Z"/><path class="cls-50" d="M278.09,406.08c0-.27,0-.53,0-.8a14.94,14.94,0,0,1,12-1c2.26.7,4.72,1.75,4,5.16-2.68-.36-4.36-3.06-7.42-2,1.55,2.32,4.78,3,5.8,6.24-3,0-5.51.05-7.06-2.94S281.13,406.66,278.09,406.08Z"/><path class="cls-6" d="M302.24,459.62c-7.63-.36-15.3-.41-22.68-2.77-1.32-.42-3.36-.59-3.26-2.45.09-1.43,1.93-1.76,3.15-2a93.74,93.74,0,0,1,45.37,0c1.21.3,3,.63,3.06,2.13s-1.77,1.83-3,2.22C317.55,459.16,309.88,459.24,302.24,459.62Z"/><path class="cls-52" d="M359.35,673.17c1.8,2.47,3.29,3.69,2.17,5.7-.24.43-1.49.87-1.7.68C358.19,678,359.34,676.25,359.35,673.17Z"/><path class="cls-5" d="M402.4,660.18c-.1,2.09-.9,4.41-4,4.6-3,.19-6.42-5-6.16-9,.17-2.76,1.35-4.86,4.45-4.91C399.57,650.77,402.47,655.3,402.4,660.18Z"/><path class="cls-1" d="M325.26,742.41c-.15,3.45-.61,7-4.58,7.23-4.15.25-4.87-3.34-4.89-6.6s.37-6.75,4.54-7C324.72,735.79,324.89,739.41,325.26,742.41Z"/><path class="cls-53" d="M282.49,739.44c.32-1.27-.56-3.35,1.82-3.35,2,0,2.88,1.45,2.92,3.34a2.86,2.86,0,0,1-2.64,3.11C282.15,742.85,282.72,740.83,282.49,739.44Z"/><path class="cls-50" d="M300,746.76c.11-1.59-.32-3.41,2.17-3.07,1.62.22,3,.84,3.08,2.68.14,2.08-1.21,3-3,3.26C299.9,749.89,300.1,748.09,300,746.76Z"/><path class="cls-50" d="M301.1,736c2,.08,3,.81,3.27,2.31.27,1.77-.76,2.79-2.39,3.21s-2-.74-1.9-2S299.49,736.53,301.1,736Z"/><path class="cls-54" d="M337,739.53c.49-1.17-.9-3.27,1.53-3.43,1.94-.13,3,1.25,3.22,3a3,3,0,0,1-2.81,3.4C336.32,742.94,337.38,740.76,337,739.53Z"/><path class="cls-55" d="M266.66,738.57c.79,2.25,2.49,4,1,6.06-.29.41-2.45.25-2.6-.12C264.18,742.4,265.3,740.64,266.66,738.57Z"/></g></g></svg>