<svg xmlns="http://www.w3.org/2000/svg" viewBox="0 0 2000 934"><defs><style>.cls-1{fill:#fefefe;}.cls-2{fill:#002f65;}.cls-3{fill:#fcfcfc;}.cls-4{fill:#dbe1e9;}.cls-5{fill:#edf0f4;}.cls-6{fill:#fdfefe;}.cls-7{fill:#fdfdfe;}.cls-8{fill:#f8f9fb;}.cls-9{fill:#f9fafb;}.cls-10{fill:#fdfdfd;}.cls-11{fill:#f1f4f6;}.cls-12{fill:#fcfcfd;}.cls-13{fill:#fcfdfd;}.cls-14{fill:#fafbfc;}.cls-15{fill:#f6f7f9;}.cls-16{fill:#f3f5f7;}.cls-17{fill:#fbfcfc;}.cls-18{fill:#fbfbfc;}.cls-19{fill:#f8f9fa;}.cls-20{fill:#fafbfb;}.cls-21{fill:#f7f8fa;}.cls-22{fill:#f6f8f9;}.cls-23{fill:#f5f6f8;}.cls-24{fill:#eef1f4;}.cls-25{fill:#e3e8ee;}.cls-26{fill:#dee4eb;}.cls-27{fill:#d1d9e3;}.cls-28{fill:#e6ebf0;}.cls-29{fill:#eff2f5;}.cls-30{fill:#b4c2d1;}.cls-31{fill:#f2f4f7;}.cls-32{fill:#b9c5d4;}.cls-33{fill:#ccd5e0;}.cls-34{fill:#b4c1d1;}.cls-35{fill:#778fac;}.cls-36{fill:#013065;}.cls-37{fill:#053368;}.cls-38{fill:#063468;}.cls-39{fill:#0f3b6e;}.cls-40{fill:#164172;}.cls-41{fill:#194474;}.cls-42{fill:#133e70;}.cls-43{fill:#174172;}.cls-44{fill:#1b4575;}.cls-45{fill:#184373;}.cls-46{fill:#133f70;}.cls-47{fill:#184273;}.cls-48{fill:#1c4676;}.cls-49{fill:#0e3b6d;}.cls-50{fill:#234b7a;}.cls-51{fill:#204978;}.cls-52{fill:#0e3a6d;}.cls-53{fill:#1a4474;}.cls-54{fill:#0b386b;}.cls-55{fill:#09366a;}.cls-56{fill:#244c7a;}.cls-57{fill:#6581a2;}.cls-58{fill:#abbacc;}.cls-59{fill:#274f7c;}.cls-60{fill:#2e5480;}.cls-61{fill:#154072;}.cls-62{fill:#214a79;}.cls-63{fill:#113c6f;}.cls-64{fill:#2b527e;}.cls-65{fill:#1c4675;}.cls-66{fill:#1e4877;}.cls-67{fill:#3a5e88;}.cls-68{fill:#164072;}.cls-69{fill:#103c6e;}.cls-70{fill:#194374;}.cls-71{fill:#41648c;}.cls-72{fill:#335883;}.cls-73{fill:#486990;}.cls-74{fill:#0a376b;}.cls-75{fill:#0d3a6d;}.cls-76{fill:#0f3b6d;}.cls-77{fill:#0c396c;}.cls-78{fill:#28507d;}.cls-79{fill:#0d396c;}.cls-80{fill:#123e70;}.cls-81{fill:#eaeef2;}.cls-82{fill:#1d4776;}.cls-83{fill:#1f4877;}.cls-84{fill:#073569;}.cls-85{fill:#09376a;}.cls-86{fill:#6b86a5;}.cls-87{fill:#6682a3;}.cls-88{fill:#4d6e93;}.cls-89{fill:#103c6f;}.cls-90{fill:#486a90;}.cls-91{fill:#496a91;}.cls-92{fill:#345a84;}.cls-93{fill:#47698f;}.cls-94{fill:#1a4475;}.cls-95{fill:#4d6d93;}.cls-96{fill:#113d6f;}.cls-97{fill:#47688f;}.cls-98{fill:#4b6c92;}.cls-99{fill:#40638b;}.cls-100{fill:#45678e;}.cls-101{fill:#4e6e94;}.cls-102{fill:#4c6c92;}.cls-103{fill:#395d87;}.cls-104{fill:#154071;}.cls-105{fill:#4b6d92;}.cls-106{fill:#6e88a7;}.cls-107{fill:#c6d1dc;}.cls-108{fill:#3d618a;}.cls-109{fill:#3f628b;}.cls-110{fill:#dae1e8;}.cls-111{fill:#f2f5f7;}.cls-112{fill:#f1f3f6;}.cls-113{fill:#d5dde5;}</style></defs><title>Resource 1</title><g id="Layer_2" data-name="Layer 2"><g id="Layer_1-2" data-name="Layer 1"><path class="cls-1" d="M1000.12,933.88q-497.65,0-995.31.12C.65,934,0,933,0,929.09Q.18,467,0,4.9C0,.91.7,0,4.82,0Q999.89.19,1995,0c4.36,0,5,1.07,5,5.17q-.16,462.09,0,924.18c0,3.67-.73,4.63-4.56,4.63Q1497.78,933.83,1000.12,933.88Z"/><path class="cls-2" d="M181.17,511.72,180.9,504a9.14,9.14,0,0,1-.29-3.45q0-61.51,0-123a8.35,8.35,0,0,1,.32-3.44c1.38-1.44,3.15-.74,4.72-.74q116.39-.06,232.78-.12c4.19,0,5.77.88,5.74,5.48-.29,43.28-.33,86.57-.43,129.85a4.19,4.19,0,0,0,.23,1c-.91,2.09,0,4.39-.76,6.49-3.41,27.35-11.46,53.21-25,77.26-1.33,2.36-.49,3.18,1.58,3.68,6.59,1.62,10.74,6,13.62,11.86,3.89,7.94,8.24,15.68,10.82,24.21a32.54,32.54,0,0,1,.05,9.95c-3.88,15.76-14.66,26.07-27.37,35-13.86,9.71-29,16.93-44.7,23-3.25,1.25-4.13,2.13-.74,4.4,2.46,1.65,4.57,3.81,6.89,5.67,4.43,3.56,5.33,8.53,5.43,13.75.12,6-.16,12,.07,18,.34,8.84-3.31,12.21-13.08,15.05a69.93,69.93,0,0,1-8.71,1.4c-7.6.67-15.22.3-22.83.27-18.7-.08-37.41.41-56.12-.26-5.63-.88-11.42-.57-16.6-4.09-3.49-2.36-5.35-4.91-5.31-9.07.08-8,0-16,.06-24,0-5.61,2.12-9.88,7.15-13,2.43-1.49,4.07-4.28,6.16-6.57-7.81-3.4-16.2-6.52-24.09-10.61-10.82-5.6-21.29-11.74-30.78-19.66-8-6.69-14.33-14.28-17.72-24a28.74,28.74,0,0,1,1.18-22.85c2.33-4.79,4.54-9.64,6.81-14.47,3.52-7.5,8.14-13.43,17.58-14.87-13.51-24.69-23.1-50.22-25.62-78C181.09,516,182.17,513.71,181.17,511.72Z"/><path class="cls-2" d="M954.44,518.09h10.14c1.73.82,3.66,0,5.4.7,11.81,2.32,23.09,5.57,32.48,13.92,7.48,6.65,11.37,14.94,13.72,24.29.76,2.08-.18,4.35.72,6.42v.11c-.92,2.07.09,4.36-.77,6.43-3.32,14.08-12.48,23.52-24.44,30.71a15,15,0,0,1-2.16,1.08C981.15,605,981,605.13,986,612.2c14.48,20.41,27.35,42.1,46,59.23,6.33,5.81,13.37,10.7,22.59,10.63,2.14.64,2.11,2.15,1.55,3.87l-.22,4.79c-3.26,1.39-6.6.64-9.92.4-11.09-.36-21.2-3.88-30.81-9.25-8.91-5-16.36-11.78-23.29-19.06-13.15-13.81-24.08-29.39-34.69-45.19-2-3-2.64-7.33-6.8-8.75-4.76-1.12-9.64.22-14.4-.74l-2,.1c-1.18,5.57-.47,11.21-.45,16.82,0,8.78-.58,17.57.35,26.34a96.75,96.75,0,0,0,.77,14.32c.55,4.36,3,6.48,6.39,7.77,5.51,2.07,11.19,3.7,16.8,5.51,1.45,2.32,0,5.06,1,7.44-3.39,3.4-7-.28-10.54.41-1.7-.84-3.62,0-5.34-.71l-5.67-.28c-3.39-1.07-6.93.16-10.33-.72h-8c-3.73.93-7.61-.36-11.34.73l-7.66.27c-2.44.81-5.07-.22-7.5.74a22,22,0,0,0-4.44,0c-5.09,1-3.68-3.78-4.74-5.79-1.19-2.27,2-1.74,3.3-2.19,4.47-1.5,8.91-2.85,13-5.55,3.74-2.49,5.62-5.48,5.55-9.85.77-1.77,0-3.72.7-5.5.34-4.86.88-9.71.29-14.58a6.08,6.08,0,0,0,.41-2.92q0-37.31,0-74.6a7.65,7.65,0,0,0-.43-3.42c.6-3.85,0-7.67-.25-11.5-.72-1.74.1-3.68-.71-5.4-.47-2.15-.79-4.36-1.44-6.45-1.9-6.06-3.63-7.82-13.17-9.22-2-1-4.49.37-6.45-1.09,1.32-3.11-1.83-6.95,1.6-9.71,3,1,6.26-.16,9.32.72,4.2.29,8.38.8,12.6.28a41.36,41.36,0,0,0,12.95,0l6.49-.25c2-.8,4.28.22,6.3-.73l6.7-.28C944.8,517.88,949.68,519.2,954.44,518.09Z"/><path class="cls-2" d="M1284.79,618c.25-11.5.77-23,.26-34.5a104.22,104.22,0,0,0,0-21c.58-2.87,0-5.71-.25-8.56-.82-1.64.21-3.56-.78-5.17-1.21-7.24-3.76-13.5-11.17-16.68-4-1.72-8.24-2.24-12.38-3.24-2-1.75-.82-3.87-.7-5.86-1.28-3.51,0-4.66,3.53-4a16.09,16.09,0,0,0,3.33,0c3.38,1.09,6.92-.19,10.3.74l16,0c2.67-.32,5.34-.81,7.94.32,10.31,11.42,20.56,22.89,30.94,34.24q33.39,36.5,66.9,72.88c3.37,3.66,7,7.11,10.47,10.65a1.09,1.09,0,0,0,1.19-1.21c-.18-16.38.57-32.77-.37-49.15.5-13.19.35-26.38-.27-39.57-.72-1.74.09-3.68-.72-5.41-1.41-12.53-8.11-13.38-17.79-14.66-2.36-1-4.92.1-7.3-.72-2-.14-2.83-1.49-1.62-2.86,1.62-1.85-1-6.17,3.8-6,4.42.11,8.85-.11,13.28-.18,2.09.89,4.38,0,6.5.72l7.59.29c8.78.93,17.58.18,26.38.41,7,.19,6.5-1.43,6.52,6.71,0,.95.31,2-.78,2.69-3.78-.63-7.47.23-11,1.21-5,1.37-9.48,5.66-8.78,13.47-1,2.73.14,5.64-.72,8.38-.28,5.17-.75,10.33-.26,15.51-1.15,7.13.23,14.34-.74,21.48-.65,28-.59,56,0,84,.32,4.66.83,9.32-.28,13.95-7,.94-12-1.21-16.81-7-10.54-12.66-22.42-24.17-33.19-36.68-4.08-4.74-8.43-9.32-12.8-13.78-14.66-15-28.23-31-42.83-46-6-6.25-11.68-12.91-17.51-19.38-2.48.75-1.14,2.77-1.2,4.14-.32,6.92.32,13.87-.37,20.79l-.28,41.56a149.66,149.66,0,0,0,0,24.78c.1,9.38,3.17,13.76,11.85,16.71a75.84,75.84,0,0,0,18,4,15.3,15.3,0,0,1,0,9.89l-4.5,0c-2.37-1-4.94.1-7.32-.73l-10.52-.26a54.46,54.46,0,0,0-15,0l-10.54.27c-3.76.92-7.66-.35-11.4.73a8.83,8.83,0,0,1-2-.22c-1.89-.65-5.34,2.29-5.52-2.35-.13-3.45-.74-7,4.57-7.26,2.41-.1,4.77-1.16,7.18-1.58a9.32,9.32,0,0,0,8.07-8.46c.37-3.81,2.23-7.55,1.16-11.5,1-3.11-.14-6.38.74-9.5l.27-10.58C1285.18,629,1283.87,623.43,1284.79,618Z"/><path class="cls-2" d="M1822.07,609c-2.41,19.66-10,37-23.48,51.59-14.53,15.62-32.68,24.46-53.69,27.6-2.41.78-5-.25-7.4.7a6.26,6.26,0,0,0-4.12,0c-2.4-1-5,.11-7.43-.73-25-2.7-44-15.3-57.82-35.82a85.12,85.12,0,0,1-13.22-34.64,96.82,96.82,0,0,1-.65-27.58,77.52,77.52,0,0,1,11.23-30.56c17.22-27.86,42.12-42.82,75-42.3,40.14.64,71.47,28.55,79.43,66.66.77,3.7,1.44,7.41,2.15,11.12A60.91,60.91,0,0,1,1822.07,609Z"/><path class="cls-2" d="M758.05,688.1c-32-4.24-53.15-22.19-65.76-51.5a83.82,83.82,0,0,1-6.82-34.69c.39-21.36,8.12-40.31,22.84-56.56,17.4-19.21,38.82-28.69,64.33-28.15C812.78,518,844,545.45,852,583.87c.78,3.69,1.44,7.41,2.15,11.12a60.91,60.91,0,0,1,0,14c-2.42,19.3-9.61,36.53-22.85,50.93-14.65,16-32.91,25.19-54.32,28.26-2.41.77-5-.25-7.4.71a6,6,0,0,0-4.1,0C763.09,687.88,760.47,689,758.05,688.1Z"/><path class="cls-2" d="M1232.13,608c-2.08,20.11-9.76,37.83-23.56,52.59C1194.06,676.05,1176,685,1155,688.13c-2.41.8-5-.24-7.4.71a6.25,6.25,0,0,0-4.14,0c-2.4-1-5,.11-7.41-.73-26.43-3.2-45.91-16.72-59.94-39.17-6.45-10.32-9-21.74-11.85-33.15-.74-3,0-6.55-.41-9.84a21.52,21.52,0,0,1,0-8,79,79,0,0,1,14.33-42.74c17.12-24.83,40.93-38.41,71.4-38.07,40.49.46,71.61,27.57,80.38,66.16,1,4.16,1.48,8.43,2.2,12.65A44.76,44.76,0,0,1,1232.13,608Z"/><path class="cls-2" d="M305,186.07a26.66,26.66,0,0,0,1.1-2.72c1.34-4.52,4-5.76,7.52-3s6,3.31,9.41-.28c2.2-2.33,5.11-1.18,7,1.4a4.39,4.39,0,0,1,.93,2.72c-.44,3.85,4.31,4.1,4.84,7.41.5,3.16-4.64,4-2.61,7.49.61.83.05,2.89,2.21,2.12,2-2.41,4.25-2.36,7-1.34,3.6,1.35,3.9,4.08,3.68,7.21-.34.5-.71,1.23-.29,1.58s1-.45,1.59-.47c3.3-.15,6.84,1.5,9.71-1.87.61-.72,3.33-.66,4.22.08,2.33,1.94,4.84,1.57,7.46,1.73,4.32.26,6.52,4.6,3.55,7.59-2.27,2.29-2,4.54-1.88,7.15,1.45.71,2.7-.56,4.11-.7,4.41-.42,7.37,2.2,6.22,6.4-.65,2.35.28,3.28,1.53,4.53.19,1.75,1,2.63,2.93,2.52,1.26-.06,2.68-.52,3.8.56,2.84,3.45,3.22,6.74-.49,9.88-.71.6-1.91,1.1-1.52,2.31.63,1.95,1.17,3.86-1,5.15s-4.85,2.26-6.58,1.34c-4-2.14-4.22,1-5.46,3-.29,1.11-3,.18-2,2.36.12,2.47-.57,5.16,3.89,3.11,3.82-1.77,8.07-1.45,8.9,4.14.35,2.39,2.27,1.5,3.38,2.11,2.34,1.31,4.3,2.67,3.87,5.66s-2.21,5.08-5.23,4.7c-4.09-.51-3.51,5.89-7.73,4.72-3.29-.91-5.21-.16-7.09,3.31-1.32,2.43-5.65,2.66-8,5-1.26,1.25-2,2-.83,4,2,3.5.49,6.59-3.25,6.68a14.87,14.87,0,0,0-5.55,1.21c-3.59,1.46-14-2.82-15.91-6.23-.57-1-.8-2.14-2.29-2.26-2.69-.21-3.65-2.33-4-4.46-.61-4.2-2.12-4.38-5.32-2-8.92,6.55-11,15.69-10.52,26,.44,9.88,5.22,16.41,14.31,20.24,5.28,2.22,10.94,3.78,15,8.49,1.42,1.66,4.18.92,6.54.4,4.54-1,8.7.06,11.39,4.19,2.33,3.59,1.86,7.28-.59,10.67-3,4.17-7.35,4.5-11.82,3.5a10.42,10.42,0,0,0-3.8-.62c-10.07,1.47-20.16.62-30.25.33-3.65-.1-7.34,1.09-11,.06a16.7,16.7,0,0,1-8-.06c-5.53.19-11.12,1-16.58.41-4.9-.5-9.76.15-14.65-.17a70.41,70.41,0,0,0-15.28.2c-6.48,1-8.74,0-11.53-5.5a13.91,13.91,0,0,1-.13-7c.93-3.2,2.66-5.59,6.19-6.17a15.29,15.29,0,0,1,7,0c5.43,1.11,10-.51,14.5-3.68a73.68,73.68,0,0,1,11.24-6.07c6.16-2.88,9.43-8,11.44-14.13a4.09,4.09,0,0,0-.29-3.84c-6.06-7.79-8.92-17.72-16.59-24.47-2.4-2.12-3.53-3.11-4.89.86-1,3-2,7-7.05,5.69-1.27-.32-1.33,1.67-1.89,2.61-3.21,5.41-4.95,5.86-10.53,2.5-1.82-1.09-3.18.29-4.64.84-2.24.86-4.78,1.83-6.43-.18-1.3-1.6-.81-4.08.19-6.1a20.22,20.22,0,0,1,1.37-2.61c.71-1,1.38-2.09.35-3.07s-1.77.23-2.63.59c-3.87,1.63-8.23,5.48-10.07-2.27-.27-1.13-1.7-.69-2.64-.81-5.18-.65-6.57-4.23-3.44-8.88-.4-2.68-3-.42-4-1.74-1.36-.49-3.22-.8-2.81-2.7,1.14-5.37-10.34-7.91-3.19-14.51,1.89-1.07,5.36,1.09,5.86-2.84.25-2.32,2.39-2.12,3.82-2.88,1.09.38,2.28.07,3.36.53,1.55.43,3.1,1.06,4.62.11.72-.11-.37-.86,0-.31-1.54,1-3.1.58-4.65.05-1.65-.1-1.29-1.75-2-2.57a9.23,9.23,0,0,0-3.9-5.84c-3.79-2.62-2.15-8.56,2.34-10.09a5.84,5.84,0,0,0,2.14-1.08c3.85-3.59,3.83-3.61,8.26-3.4.33-1.41-.73-2-1.61-2.68-3.43-2.58-4.92-5.26-.38-8.15,1.87-1.19,1.22-2.87,1.13-4.43-.11-2.27.26-4.49,2.18-5.72s3.81-.29,5.21,1.38c.84,1,1.58.89,2.35,0,3.07-3.64,5.9-2.26,6.62,1.36.79,4,3.22,2.69,5.38,2.9a4.26,4.26,0,0,1,3.19,3.49c0-.08.12.11.11,0-.29-1.8-1.91-3-1.94-4.86.37-6.47,2.09-7.63,8.89-6,1.12-.52,1.86.83,3,.64a5.4,5.4,0,0,1-2.95-1.61c-2.35-2.79-2.86-6-.4-8.66,1.6-1.74.57-2.82.22-4.24a10.26,10.26,0,0,1,0-6c.57-1.4,1.79-1.85,3.11-2.16a7.6,7.6,0,0,1,5,0c3.37-1.38,5-3.6,4.42-7.5-.28-1.84-1.21-4.39,1.62-5.54a7.35,7.35,0,0,1,5,.07l3.76,3.17c1.92,1.17,4.35-.5,6.19,1.13,1.79,5.89,8.4,10.09,5.55,17.5,6.37-.35,1.45-4,2.33-5.76a8.36,8.36,0,0,1,.06-4.95l1.14-1.13C301.61,186,303.54,187.27,305,186.07Z"/><path class="cls-2" d="M602.22,571,602,594.53a358.73,358.73,0,0,0,0,38.94c-.58,4.18,0,8.34.26,12.51.81,2.41-.23,5,.72,7.42.09,2.78-.17,5.62.33,8.33,2,10.69,5.78,13.24,19.26,13.32,1.75.87,3.79-.11,5.52.86l.05,0a7.34,7.34,0,0,1,.09,5c-.52,1.84-.1,4.18-2.65,4.93-4.44-1.13-9,.21-13.48-.75a406.89,406.89,0,0,0-41,0c-4.75.93-9.6-.39-14.33.72l-6.67.28c-2.61,0-5.94,2-6.87-2.53-1.25-6.15-1.28-6.41,5.28-7.23,5.42-.67,10.8-1.35,15.95-3.16,3.65-1.29,6.67-3.34,6.77-7.8.88-2.08-.06-4.35.72-6.44.3-3.85.77-7.7.27-11.57,1.1-6.11-.21-12.31.71-18.42.51-20.67.64-41.35,0-62-.92-4.44.37-9-.72-13.43q-.15-4.78-.29-9.57c-.83-2.74.29-5.64-.71-8.37-.6-1.22-1.58-1-2.59-.7-1.76-.8-3.71-.06-5.49-.71-11.24-.71-22.44-1-33.59,1.33-9.05,1.87-14.05,7.91-17.27,15.94-.71,1.76-1.08,4.89-3.55,3-1.94-1.46-6.9-1.34-4.67-6.67,3.88-9.22,7-18.77,10.6-28.1.5-1.3-.23-3.13,1.49-4,2.31,0,4.74-1.15,6.85.71,1.06,2.74,3.46,2.58,5.75,2.64,2,.9,4.29-.05,6.35.7q54,.94,108,0c2.11-.76,4.4.14,6.5-.72,2.85.24,4.52-1.85,6.51-3.31,2.31-.09,4.72-1.16,6.85.66,1.88,9.65,3.69,19.32,5.67,28.95,1,4.87-1,8.38-5.58,9.4-1.16.26-1.47-.07-1.91-1.35-.87-2.52-1.94-5.07-2.79-7.55-2.53-7.36-8.38-10.06-15-11.08-11.76-1.84-23.69-1.12-35.57-1.05-3.48,0-5.31,1-5,4.85.25,3,.11,6,.15,8.92C601.81,555.32,603.18,563.17,602.22,571Z"/><path class="cls-2" d="M1594.92,675.75c1.71,3.7,1.8,7.15-1.49,10.1-4.44-1.11-9,.21-13.47-.73a406.89,406.89,0,0,0-41,0c-4.75.94-9.61-.38-14.35.73l-6.65.27c-2.42,0-5.29,1.81-6.87-1.67.15-1-.49-1.85-.69-2.72-.51-2.34-1-4.51,3-5,6.35-.69,12.83-1.25,18.89-3.59,4-1.56,7.44-3.64,6.77-8.82,1-2.4-.12-5,.73-7.4a65.8,65.8,0,0,0,.25-12.55c1.15-6.78-.24-13.65.73-20.44.45-17.67.56-35.35,0-53-.92-4.78.39-9.66-.72-14.43.5-3.2,0-6.38-.25-9.56-.93-3.05.32-6.27-.75-9.31.56-2.27-.14-3.35-2.61-2.77-2.08-.89-4.37.06-6.46-.74a131.6,131.6,0,0,0-30.66.85c-9.92,1.58-16.18,7.52-19.3,16.86-.74,2.21-1.85,4.1-3.9,2.42-1.89-1.54-6.4-1.63-4.68-6.1,3.57-9.33,7.25-18.63,10.56-28,.55-1.55,1.46-2.81,2-4.29,2-.42,4-.73,6,.23,1.47,2.62,3.91,3.13,6.63,3,2,.89,4.3-.05,6.37.7q54,.94,108,0c2.1-.75,4.37.16,6.46-.71,2.85.21,4.54-1.85,6.55-3.32,2.4-.06,5-1.4,6.94,1.28,1.86,9.5,3.66,19,5.6,28.5.94,4.63-.89,7.84-5.48,9.19-1.6.47-1.62-.3-2.11-1.61-2.36-6.41-3.92-13.33-11.41-16.38-4.86-2-9.93-2.51-15-2.81-8-.48-16-.27-23.94-.19-8.44.08-8.44.16-7.76,8.79-1.15,7.44.24,15-.73,22.41l-.27,23.57c-.95,12-.25,24.05-.38,36.07,0,4.59-.54,9.22.38,13.79l.27,9.59c.76,2.09-.16,4.38.72,6.46a34.59,34.59,0,0,0,1.28,12.71c1.75,6.57,8.12,6.27,13.14,7.73,1.38.41,3,.12,4.45.15C1591.35,676,1593.25,675,1594.92,675.75Z"/><path class="cls-2" d="M1094.07,395.5c-.08-4.46.93-9.29-4.1-12.06-.56-.31-1.24-.41-1.79-.74-1.27-.78-4.32,2-4-2.1.32-3.73,3.15-1.73,4.84-2.32l.46-.16a54.41,54.41,0,0,0,14.81,0l7.69-.27a45.61,45.61,0,0,1,12,0c7.16,1.84,14.46,3.42,18.72,10.42.92,1.52,1.63,3.16,2.44,4.75a15.68,15.68,0,0,1,0,6.95c-3.43,7.72-4.29,8.5-16.15,14.47,7.4,9.51,13.9,19.67,23.17,27.57a26.34,26.34,0,0,0,9,4.94c1,.32,2.58-.33,2.4,1.59-.13,1.55-1,2.18-2.67,2.19a34.72,34.72,0,0,1-22.7-7.88c-8.57-6.87-15-15.49-21.25-24.34-2.43-3.46-5.7-2.77-8.89-2.72-1.78,0-1.12,1.75-1.12,2.75,0,5.15.1,10.31.17,15.47.68,1.77-.07,3.73.71,5.48-.53,3.1,2,3.35,3.9,4.14a11.23,11.23,0,0,0,3.72,1.23c2.43.05,2.94,1.78,2.61,3.3s-2.14.59-3.3.68c-.82.07-1.65,0-2.47.05-3.39-1.07-6.93.18-10.33-.73h-1c-3.44.87-7-.33-10.44.72-1.91-1.16-5.33,1.74-6-1.39-.81-3.66,3.32-2.6,5.13-3.49,4.81-2.37,4.64-6.39,4.45-10.62A342.45,342.45,0,0,0,1094.07,395.5Z"/><path class="cls-2" d="M778.05,448.18a85.1,85.1,0,0,0-16,0c-3,.26-6,.94-8.94-.36.1-1.48,0-3.48,1.92-3.5,7.7-.05,7.13-6.08,8.11-10.93a25.55,25.55,0,0,0,0-4.95c1.14-7.44-.24-15,.71-22.41v-9c-.77-2,.22-4.28-.71-6.31-1-5-3.85-7.93-9.22-7.76-2.26.07-1.59-1.57-1.72-2.77-.17-1.48.47-2.09,2-2.05,5.15.13,10.3.18,15.45.28,1.92,0,2.81,1.64,4,2.78q21.39,21.3,42.75,42.64c1.15,1.15,2.46,2.14,3.7,3.2,1.11.22,1.5-.44,1.48-1.36-.18-11.71.55-23.43-.39-35.14-.35-5.92-2.54-8-9.12-8.8-1.93-.23-4.56.17-2.85-3.25,3.18-1.86,6.55-.73,9.86-.61a125.81,125.81,0,0,0,18.62.28c1.2,4,1.2,4-4,4.78-5.18.36-4.94,4-4.71,7.7-1.11,5.09.22,10.29-.73,15.39-.06,12.62-.08,25.24-.23,37.85,0,1.65,1.14,4.07-1,4.84-2.36.84-4.61.13-6.64-1.94-9.76-10-19.72-19.74-29.59-29.6q-9.5-9.51-18.94-19.08c-2.47.75-1.15,2.77-1.21,4.14-.33,7.92.35,15.86-.37,23.78-.07,1.33-.17,2.65-.18,4-.12,11.28,2.28,13.75,13.75,14.12C784.83,448.78,784.74,448.85,778.05,448.18Z"/><path class="cls-2" d="M1558.53,449.91h-.16c-2.06-.91-4.34.08-6.41-.75-17.74-2.74-27.72-14.2-30.68-28.25-4.46-21.21,10.36-39.58,31.82-43,18.07-2.86,34.48,6.49,40.93,18.52a34.41,34.41,0,0,1-9.53,44.22c-5.92,4.48-12.65,6.62-19.58,8.52C1562.85,449.94,1560.58,449,1558.53,449.91Z"/><path class="cls-2" d="M1050.51,378.11c3.82.7,7.63-.15,11.45-.08.93,2.3.6,4.64.18,7a22.2,22.2,0,0,0-1.23,8.62,3.33,3.33,0,0,1-4.8,0c.28-6.2-1.3-8-8.6-9.72a62.52,62.52,0,0,0-15.88,0l-3.65.26a2.79,2.79,0,0,0-2.8,2.82c-.1,1.54-.19,3.07-.29,4.61a71.41,71.41,0,0,0,.07,17.47l0,0a76,76,0,0,0,18.34.05c3.73.25,7.21.25,8-4.68.42-2.56,2.71-2.27,4.6-2.38,1.28,6.66.45,13.38.48,20.07,0,3.3-2.14,3-4.28,1.49-2.74-7.4-4.35-8.65-12.29-8.94-3.64-.13-7.3.26-10.93,0-4.07-.23-5.9,1.11-4.71,5.33,1,5.76-.4,11.62.73,17.38-.68,3.14.45,4.75,3.78,5.2,10.06,1.33,19.87,1.43,28.8-4.45,2.19-1.45,3-3.85,3.94-6,.83-1.89,2-2.38,3.79-2,2.36.52.82,2.15.73,3.16a33.79,33.79,0,0,1-5,14.67c-9.32,1-18.64.59-28,.19h-5c-6.45.93-13-.4-19.42.71h-3.95c-1.43,0-3.07.56-3.41-1.73-.38-2.55,1.48-1.81,2.79-2.24,2.83-.93,6.4-1.27,6.1-5.65.91-1.66,0-3.56.72-5.25.1-2.86.19-5.71.29-8.57a216.2,216.2,0,0,0,0-29.9c1.06-3.63-.7-7-1-10.52-.16-1.65-1.85-2.49-3.78-2.26s-4.15-.07-4.21-2.66c-.07-3.24,2.57-1.62,4-1.8,2.1-.25,4.24-.16,6.36-.21A342.17,342.17,0,0,0,1050.51,378.11Z"/><path class="cls-2" d="M677.2,398c0,10.93-1.43,21.94.8,32.76,1.66,8,7.14,12,15.51,12.34a21,21,0,0,0,9,0A19.38,19.38,0,0,0,720.42,428c.32-1.53.47-3.1.71-4.66,1-2-.08-4.25.73-6.27a146.05,146.05,0,0,0-.57-26.94c-.53-5.38-4.12-7.63-10.72-7.16q-2.42-2.42,0-4.84l1,0a148,148,0,0,0,24.91,0c.33.42.64.4,1,0,2.06,2.7,1.18,4.22-2,4.83-4.87-.58-6.8,1.64-6.61,6.45.2,5.38,0,10.78,0,16.17-1.11,4.1.21,8.35-.76,12.46-1.2,6.56-1.65,13.29-5,19.34-4,7.24-10.65,10.15-18.2,11.82-1.73.76-3.68-.1-5.4.74h-9.27c-1.67-.9-3.6,0-5.29-.75-11.82-1.62-20.55-8.25-21.17-20.17a15.87,15.87,0,0,1,0-7c.09-3.86.18-7.73.26-11.59a62,62,0,0,0,0-15.93c1-3.15-.84-6-1.27-8.95-.26-1.77-2.42-2.79-4.67-2.77-1.59,0-3.8.95-4.34-1.79-.72-2.8,1.33-2.35,2.9-2.46,3.25-.21,6.54.46,9.77-.42,6.41,0,12.82,0,19.23.14,1.48,0,4.1-1.26,4.1,1.86,0,2.78-2.35,2.5-4.24,2.7-5.92.64-7.22,2-7.67,7.91C676.92,393.07,678.07,395.64,677.2,398Z"/><path class="cls-2" d="M991.84,383c-6,.07-10,3.35-12.53,8.33-9.39,18.58-20.95,36.06-28.39,55.64-.6,1.57-1,3.17-3.57,3.18-2.78,0-2-1.94-2.6-3.21-7.36-15.32-14.85-30.56-23.35-45.3-2.51-4.35-4-9.22-7-13.37-2.34-3.24-5.19-5.38-9.14-5.37-2.22,0-4.16.25-4.21-2.63,0-3.32,2.52-1.61,4-1.91a22.31,22.31,0,0,1,2.45-.23c8.79,1,17.61.24,26.42.4,3.45.06,4.7,1.15,2.76,4.41-9,.27-8.93.25-5.28,8.31,5.32,11.81,10.5,23.69,17,34.92.82,1.4,1.32,3.57,3,3.61s1.27-2.34,2-3.49c7.17-10.89,11.63-23.17,17.83-34.56,3.21-5.92.84-8.56-8.06-9.29.42-2,.54-4.08,3.32-4.3,7.42.92,14.87.29,22.31.37C992.45,378.53,993.41,379.8,991.84,383Z"/><path class="cls-2" d="M1637.11,395c-.08,3.79-.06,7.59-.27,11.37-.14,2.59.41,3.91,3.45,3.72,4.27-.27,8.57-.07,12.86-.06,3.89,0,6.95-1.39,8.8-5,.87-2.65,2.49-3.37,5-1.91l-.07,17.42c-.83,3.35-2.3,4.33-4.85,1.32-.88-5.83-6-4.73-9.71-6-1.69-.86-3.61,0-5.32-.72a5.37,5.37,0,0,0-1-.17c-10.9.18-9.25-2.18-9.15,9.54a40,40,0,0,0,0,12.74c-.77,4.54,2.26,5.62,5.72,6.27,1.29.23,2.61.29,3.88.55,1.67.34,4,.11,4.11,2.5.1,2.88-2.69,1.58-4.1,2.3-4.12-1.1-8.37.17-12.5-.72l-3,0c-4.44.93-9-.37-13.41.72-.92-.81-2.88.79-3.19-1.27-.17-1.13-.07-2.42,1.4-2.74,7.57-1.68,7.48-7.5,7.31-13.38,1.08-3.77-.18-7.69.73-11.48V398c-.91-3.32.39-6.81-.78-10.11-.53-5.62-5.15-5.11-8.89-5.91-2.26-4.16,1.66-3,3.29-3.85h12.13a262,262,0,0,0,32.92,0,51.13,51.13,0,0,0,6.44-.13c3-.44,4.19.77,4,3.68-1,2.71.14,5.61-.72,8.33-.76,1.25.94,3.48-1.65,4a3.12,3.12,0,0,1-3.85-2.08c-3-7.68-9.83-7.39-16.25-8a16.13,16.13,0,0,0-8,0,8.26,8.26,0,0,0-4.46.28C1636.65,387.74,1638.08,391.46,1637.11,395Z"/><path class="cls-2" d="M1191.74,382.94c-5.35.27-8.55,3.26-9.69,8.26s.89,9,6.27,11.58,10.94,4.48,16.34,6.87c7.23,3.2,13.62,7.41,16.43,15.38a18.27,18.27,0,0,1,0,8c-3.87,10.2-12.16,14.36-22.15,16.2a38,38,0,0,1-11-.06,76.42,76.42,0,0,1-7.88-1.63c-1.17-.36-1.94-.63-3.1,0-3.49,2-3.54,1.93-4.21-2.55-.86-2.34.31-4.89-.75-7.21l-2.2-8.79c1.81-2.58,3.46-1.94,5.05.25,1.42,7.8,9.06,13.51,18.57,13.87a12.55,12.55,0,0,0,6.85,0c5.6-.76,8.76-4.66,9.47-9.54.59-4.06-1.42-7.74-5.69-10.22-6.26-3.65-13.18-5.53-19.65-8.55-6.87-3.2-12.57-7.17-13.16-15.81-.67-9.8,5.14-17.28,14.9-19.86,1.92-.51,3.87-.87,5.81-1.3a48.76,48.76,0,0,1,12,0c3.48.8,6.78,2.25,10.6.67,1.9-.78,4.14.13,2.89,3.19-.85,2.08-.44,4.21-.3,6.33.75,1.69-.16,3.61.73,5.29-.57,1.12.93,3.3-1.61,3.39-1.71.07-2.67-.35-3.24-2.58-1.76-6.86-7.29-9.68-13.67-11.23A15.13,15.13,0,0,0,1191.74,382.94Z"/><path class="cls-2" d="M1302.59,384.92c-4.83-.21-8.76,1.22-10.71,6-.67,1.68-1.85,2.37-3.41,1.75-1.92-.76-.91-2-.62-3.53.78-4,3.52-7.12,4.33-11.1.44-2.11,2.83-1.22,4.15-.71a17,17,0,0,0,9.21.76c14.31.67,28.62.7,42.92,0a11.72,11.72,0,0,0,6.38,0c6-1.45,5.89-1.51,7.16,4.73.46,2.23,1.16,4.41,1.76,6.61.4,1.47,0,2.82-1.32,3.37a2.4,2.4,0,0,1-3.24-1.47c-.82-4.55-4.45-5.3-7.9-6.41a63.54,63.54,0,0,0-17.26.14l0,0c-1.38,3.89.14,8-.86,11.91-.43,11.68-.93,23.35,0,35,.84,2-.29,4.21.77,6.16-.53,6,4.32,5.39,7.69,5.67,3,.25,3.67,1.36,3.3,3.91-2.57,1.36-5.25.69-7.91.41h-18c-3.75.89-7.63-.35-11.37.71-.88-.56-2.45-.31-2.39-2a2.43,2.43,0,0,1,2.12-2.37c3.66-.66,9.15,0,10.28-3.18a32.87,32.87,0,0,0,1.46-16.85,174.43,174.43,0,0,0,0-26.95c-.13-4.37,1.34-9.07-2.6-12.65A47.82,47.82,0,0,0,1302.59,384.92Z"/><path class="cls-2" d="M1423.86,438.45c-1.58,5.89,3,5.72,6.49,6.52,1.6.36,4.1-.67,4,2.12-.08,2.44-2.64,1.1-3.92,1.82-3.43-1.05-7,.15-10.46-.72h-1c-2.76.83-5.68-.28-8.42.71-2.81,0-5.61.09-8.42.08-.92,0-2.1.25-2.07-1.32a2.15,2.15,0,0,1,1.47-2.25c9.63-4.09,9.63-4.11,9.51-14.46,0-1.66-.15-3.31-.23-5-.86-3.11.31-6.38-.73-9.48-4.5-7.36-10.31-13.72-16.2-19.91-4-4.21-6.24-10.28-12.33-12.37-1.47-.51-2.54-2.05-4.5-1.43-3.46,1.11-2.57-1.79-3-3.46,1.33-1.53,3.09-.71,4.64-.77,9.23-.33,18.48.51,27.7-.45,1.46.51,3.63.32,3.16,2.85-.37,2.06-2.17,1.63-3.59,1.78-6,.68-6.37,1.27-2.89,5.94,4.54,6.08,9.34,12,14,17.93,1.24,1.57,2.38,2.05,3.93.1,4.77-6,8.73-12.51,12.78-19,1.92-3.05.09-4.23-2.67-4.78-2.13-1.2-7.67,1.15-5.1-4.92l9.49.09a35.27,35.27,0,0,0,11.82,0,13.09,13.09,0,0,0,2,.11c1.48-.11,2.6,0,2.63,2,0,1.7-.91,1.76-2.19,1.87-5.12.43-8.11,3.57-10.37,7.92-4.39,8.44-11.35,15.22-15.5,23.83A142.67,142.67,0,0,0,1423.86,438.45Z"/><path class="cls-2" d="M1250.8,425q0-8,0-16c-.91-4.44.38-9-.72-13.44.33-9.55-1.48-11.92-9.6-12.62-2.72-.51-5.63-.89-3.24-4.83l8.31,0a107.7,107.7,0,0,0,20.86,0,62.06,62.06,0,0,0,7.2.27c2.71-.19,3.37,1.17,3.33,3.42-1.94,1.51-4.38.07-6.4,1.11-4.24-.46-6.24,1.92-6.49,5.71-.25,4-.89,7.94-.16,11.92a246.21,246.21,0,0,0,0,31.91c-.74,2.46,0,4.92,0,7.37.11,3.78,2.43,4.68,5.7,4.28,2,1,4.38-.25,6.4.89,0,.34.11.69.17,1,.69,2.29-.8,2.5-2.42,2.45-4.91-.15-9.84.39-14.73-.3h-12c-2.29.63-4.63.35-6.93.25-1.58-.07-4,1.16-4.44-1.66-.41-3,2.49-1.85,3.84-2.65,7.51-.28,9.4-1.85,10.63-8.85C1251.17,431.92,1249.89,428.4,1250.8,425Z"/><path class="cls-2" d="M878.92,437.35c-.53,4.28,0,7.7,5.66,6.76,2,1,4.42-.3,6.41,1l.08,2.91a77.58,77.58,0,0,1-17,.15H862c-2.45.65-5,.29-7.41.26-1.46,0-3.65.9-4-1.64-.38-3,2.46-1.87,3.8-2.68,7.67-.29,9.25-1.74,10.68-9.84a317.82,317.82,0,0,0,0-36.78c1-3.64-.2-7.24-1.16-10.48-1-3.5-5-4-8.45-4.1-2.7-.52-5.57-.93-3.24-4.83l8.29,0a105.77,105.77,0,0,0,20.9,0,63.62,63.62,0,0,0,7.29.27c2.56-.18,3,1.3,3.2,3.21-1.81,2-4.41.16-6.39,1.32-4.56-.37-6.65,1.81-6.58,6.3,0,2.12,0,4.24,0,6.36Q877.89,416.48,878.92,437.35Z"/><path class="cls-1" d="M180.93,374.05l0,129.92c-1.29-1.42-.79-3.17-.79-4.78q0-60.19,0-120.38C180.11,377.2,179.59,375.45,180.93,374.05Z"/><path class="cls-3" d="M906.09,562.46c1.06,4.07.56,8.23.58,12.34q.09,31.35,0,62.7c0,2-.35,3.93-.54,5.89Q906.1,602.93,906.09,562.46Z"/><path class="cls-1" d="M263.1,759.12h78.95c-1.25,1.2-2.82.8-4.28.8q-35.19,0-70.39,0C265.93,759.91,264.36,760.31,263.1,759.12Z"/><path class="cls-3" d="M1410.06,587.53c1.12,14.71.58,29.45.79,44.18a31.42,31.42,0,0,1-.1,6.44c-.3,1.56-1,.23-1.51-.26,1.24-1.62.68-3.51.69-5.27C1410,617.59,1410,602.56,1410.06,587.53Z"/><path class="cls-3" d="M1569.85,638.39a321.67,321.67,0,0,1,0-49.86Z"/><path class="cls-3" d="M933.91,651.39c-1-14.39-1.35-28.78.1-43.16Q934,629.82,933.91,651.39Z"/><path class="cls-3" d="M1445.65,528.9c1.52-9,1.52-8.87-7.38-9.07-8.24-.19-16.53.66-24.74-.74q13.47-.06,27-.1C1447.52,519,1449.17,522.15,1445.65,528.9Z"/><path class="cls-3" d="M1348.46,378.11a327,327,0,0,1-42.92,0Z"/><path class="cls-3" d="M878.92,437.35a261.09,261.09,0,0,1,0-41.76Z"/><path class="cls-3" d="M821.11,390.51c1.51,12.05.49,24.17.79,36.25.06,2.51-1.11,1.15-1.88.25,1.63-1.47,1-3.41,1-5.16C821.08,411.41,821.08,401,821.11,390.51Z"/><path class="cls-3" d="M602,633.47a211.05,211.05,0,0,1,0-38.94Q602,614,602,633.47Z"/><path class="cls-3" d="M1050.51,378.11a212.8,212.8,0,0,1-38,0Z"/><path class="cls-3" d="M1094.07,395.5a256.53,256.53,0,0,1,0,37.91Q1094.09,414.45,1094.07,395.5Z"/><path class="cls-3" d="M865.1,397.5a163.22,163.22,0,0,1,0,36.77Z"/><path class="cls-3" d="M936.69,382.92c.84-2.76.45-4.1-3.07-4.11-8.7,0-17.44.8-26.1-.7l26.64-.09C938.28,378,939.23,379.54,936.69,382.92Z"/><path class="cls-3" d="M1662.43,378.12a159.56,159.56,0,0,1-32.92,0Z"/><path class="cls-3" d="M1406.38,378.12c-8.82,1.18-17.68.57-26.53.68-1.94,0-4-.51-5.81.54.86-1.79,2.52-1.31,3.94-1.31C1387.45,378,1396.91,378.09,1406.38,378.12Z"/><path class="cls-3" d="M1263.87,432.46a177.14,177.14,0,0,1,0-31.91Q1263.88,416.5,1263.87,432.46Z"/><path class="cls-3" d="M770.2,426c.06-9.23.12-18.46.23-27.69,0-.3.57-.6.87-.91l.48.68c-1.65,7.35-.29,14.8-.77,22.18C770.89,422.18,771.66,424.25,770.2,426Z"/><path class="cls-3" d="M991.84,383c1.27-3,.55-4.16-2.89-4.12-7.46.08-14.94.44-22.37-.74,7.64,0,15.29-.09,22.94-.09C993.72,378,994,380,991.84,383Z"/><path class="cls-3" d="M1011.1,395.56a126.1,126.1,0,0,1,0,29.89Z"/><path class="cls-3" d="M1033,448.18l28-.19c-2.11,2-4.72,1-7,.95C1047,448.68,1039.93,450,1033,448.18Z"/><path class="cls-3" d="M1299.15,589c.07-8.23.12-16.46.24-24.69,0-.31.56-.61.86-.91l.47.67c-1.66,6.18-.26,12.48-.76,18.69C1299.79,584.8,1300.66,587,1299.15,589Z"/><path class="cls-3" d="M1052.1,423.6c1.6.46,3.82,2.08,3.89-1.25.14-6.77,0-13.54-.09-20.31,2.41,6.93,1,14.08.81,21.09C1056.65,426,1053.93,425.75,1052.1,423.6Z"/><path class="cls-3" d="M1319.07,397.58a123.26,123.26,0,0,1,0,26.95Q1319.07,411.06,1319.07,397.58Z"/><path class="cls-3" d="M1298.87,655.29c-1.22-8.26-.76-16.52,0-24.78Z"/><path class="cls-3" d="M1423.86,438.45a91.91,91.91,0,0,1,0-24.63Z"/><path class="cls-3" d="M736.53,378.11a95.29,95.29,0,0,1-24.91,0Z"/><path class="cls-3" d="M602.22,571c-.05-7.82-.37-15.63.73-23.41C602.68,555.35,604,563.2,602.22,571Z"/><path class="cls-3" d="M763.84,406c.12,7.48.48,15-.71,22.41C763.36,421,762.11,413.46,763.84,406Z"/><path class="cls-3" d="M1570.12,565c-.06-7.48-.34-15,.73-22.41C1570.61,550,1571.87,557.54,1570.12,565Z"/><path class="cls-3" d="M1424.13,589c0-7.17-.52-14.35.74-21.48C1424.58,574.63,1425.94,581.84,1424.13,589Z"/><path class="cls-3" d="M1266.4,378.12a68.82,68.82,0,0,1-20.86,0Z"/><path class="cls-3" d="M881.44,378.12a69.08,69.08,0,0,1-20.9,0Z"/><path class="cls-3" d="M1259,448.18c4.61.06,9.23.06,13.84.2,1.82.06,3.35.05,3.31-2.35,1.29,1.71.77,3-1.25,2.9C1269.6,448.72,1264.22,449.94,1259,448.18Z"/><path class="cls-3" d="M1285.07,562.52a85.05,85.05,0,0,1,0,21Q1285.07,573,1285.07,562.52Z"/><path class="cls-3" d="M1540.77,624c.09,6.82.46,13.65-.73,20.43C1540.29,637.6,1539,630.74,1540.77,624Z"/><path class="cls-3" d="M854.42,444.12c-1.09,1.05-4.25,0-3.4,2.94.64,2.26,2.75.92,4.18,1,2.25.18,4.53.07,6.8.08-2.41,1.64-5.12.63-7.69.78-1.82.11-4.3.7-4.24-2.51S852.59,444.19,854.42,444.12Z"/><path class="cls-3" d="M1008.56,448.9c6.43-1.35,12.93-.79,19.42-.71C1021.56,450,1015,448.64,1008.56,448.9Z"/><path class="cls-3" d="M1239.43,444.12c-1,1.08-3.85-.12-3.45,2.6s2.62,1.25,4,1.38c2.31.21,4.65.07,7,.08-2.42,1.64-5.13.63-7.7.78-1.84.11-4.32.67-4.22-2.54S1237.61,444.21,1239.43,444.12Z"/><path class="cls-3" d="M572.86,629c.12,6.15.39,12.31-.71,18.42C572.37,641.26,571.13,635.06,572.86,629Z"/><path class="cls-3" d="M874,448.18l17-.15C885.41,449.86,879.72,449.34,874,448.18Z"/><path class="cls-3" d="M1043.28,409.1c-6.11,1-12.23,1.73-18.34-.05Z"/><path class="cls-3" d="M1334,385.06c5.74-1.65,11.5-1.19,17.26-.14Z"/><path class="cls-1" d="M1024.9,437.42c-1.25-5.75-.8-11.58-.73-17.38C1026,425.76,1024.6,431.63,1024.9,437.42Z"/><path class="cls-3" d="M1025,409.08a42.32,42.32,0,0,1-.07-17.47Q1024.94,400.34,1025,409.08Z"/><path class="cls-3" d="M1284.79,618c.11,5.48.37,11-.72,16.41C1284.31,628.93,1283.07,623.39,1284.79,618Z"/><path class="cls-3" d="M664.13,394.51a39.88,39.88,0,0,1,0,15.92Z"/><path class="cls-3" d="M828.19,406c-.07-5.14-.5-10.3.73-15.39C828.67,395.74,830,400.94,828.19,406Z"/><path class="cls-3" d="M666.52,378.12c-3.24.23-6.47.53-9.71.68-1.57.07-3,.09-3,2.2-1.58-2.32-.22-2.94,1.81-3C659.28,378,662.9,378.09,666.52,378.12Z"/><path class="cls-3" d="M1031.63,383.92a32.3,32.3,0,0,1,15.87,0Z"/><path class="cls-3" d="M1524.58,685.85c4.73-1.24,9.55-.77,14.35-.73C1534.22,686.84,1529.36,685.64,1524.58,685.85Z"/><path class="cls-3" d="M1540,556.52c1.12,4.76.83,9.6.72,14.43C1539.06,566.21,1540.25,561.33,1540,556.52Z"/><path class="cls-3" d="M1104.32,378.12a34.05,34.05,0,0,1-14.8,0Z"/><path class="cls-3" d="M854.17,609q0-7,0-14A24.65,24.65,0,0,1,854.17,609Z"/><path class="cls-3" d="M1822.07,609q0-7,0-14A24.65,24.65,0,0,1,1822.07,609Z"/><path class="cls-3" d="M936,608.13c4.81-.07,9.64-.28,14.4.74C945.63,608.66,940.75,609.87,936,608.13Z"/><path class="cls-3" d="M556.7,685.85c4.72-1.23,9.53-.78,14.33-.72C566.32,686.84,561.47,685.63,556.7,685.85Z"/><path class="cls-3" d="M954.44,518.09c-4.76,1.07-9.59.79-14.41.72C944.76,517.09,949.63,518.29,954.44,518.09Z"/><path class="cls-3" d="M1291.49,684.85a33.23,33.23,0,0,1,15,0Z"/><path class="cls-3" d="M1423.86,686.92c1.22-4.62-.37-9.31.28-13.95C1425.33,677.65,1425.79,682.31,1423.86,686.92Z"/><path class="cls-3" d="M1617.51,448.9c4.42-1.13,8.92-.84,13.41-.72C1626.53,449.93,1622,448.67,1617.51,448.9Z"/><path class="cls-3" d="M1250.07,395.55c1.24,4.43.78,8.95.72,13.44C1249.05,404.59,1250.33,400,1250.07,395.55Z"/><path class="cls-3" d="M1580,685.12c4.5,0,9-.35,13.46.73C1588.94,685.59,1584.37,686.89,1580,685.12Z"/><path class="cls-3" d="M572.15,553.53c1.05,4.43.79,8.94.72,13.43C571.12,562.56,572.39,558,572.15,553.53Z"/><path class="cls-3" d="M612.06,685.11c4.51,0,9-.36,13.48.75C621.05,685.58,616.47,686.9,612.06,685.11Z"/><path class="cls-3" d="M1302.59,384.92a28.12,28.12,0,0,1,13.88,0Z"/><path class="cls-3" d="M1634,448.2c4.18-.11,8.38-.45,12.49.72C1642.29,448.68,1638,449.89,1634,448.2Z"/><path class="cls-3" d="M1636.85,437.3a28.11,28.11,0,0,1,0-12.74Q1636.84,430.94,1636.85,437.3Z"/><path class="cls-3" d="M1124,377.87l-12,0A18.29,18.29,0,0,1,1124,377.87Z"/><path class="cls-3" d="M1204,377.85l-12,0A18.53,18.53,0,0,1,1204,377.85Z"/><path class="cls-3" d="M1232.13,608V596A18.17,18.17,0,0,1,1232.13,608Z"/><path class="cls-3" d="M920.54,520.07c-4.32,1.18-8.63.79-12.95,0Z"/><path class="cls-3" d="M1333.14,397c.13-4-.89-8.05.86-11.91C1333.53,389.05,1334.88,393.13,1333.14,397Z"/><path class="cls-4" d="M253.18,217.9c1.18,2.24,4.08,3.81,2.75,7-1.11.67-1.31-.33-1.73-.94,0-2-1.11-3.42-2.38-4.77Z"/><path class="cls-3" d="M728.18,418c0-4.17-.23-8.35.76-12.46C728.69,409.69,730,413.93,728.18,418Z"/><path class="cls-3" d="M1447.35,378.13a22.89,22.89,0,0,1-11.82,0Z"/><path class="cls-3" d="M1188,449.13l11,.06A15.18,15.18,0,0,1,1188,449.13Z"/><path class="cls-3" d="M907.65,685.85c3.73-1,7.54-.86,11.34-.73C915.3,686.8,911.44,685.66,907.65,685.85Z"/><path class="cls-3" d="M1307.58,448.9c3.73-1.13,7.55-.85,11.37-.71C1315.25,449.85,1311.37,448.73,1307.58,448.9Z"/><path class="cls-1" d="M217.1,280.12a9.12,9.12,0,0,0,6.87-1.51c.36,3-1.45,3-2.91,3.25C220.09,280.48,218,281.65,217.1,280.12Z"/><path class="cls-3" d="M778.05,448.18c2.14-1,7.64,2.61,5.72-4.1,1.8,1.16,1.82,3.19.63,4.15C782.58,449.7,780.16,449.46,778.05,448.18Z"/><path class="cls-3" d="M1623.76,420c.12,3.85.39,7.71-.73,11.48C1623.25,427.68,1622.07,423.77,1623.76,420Z"/><path class="cls-3" d="M1269.55,685.85c3.75-1,7.58-.83,11.4-.73C1277.24,686.81,1273.35,685.66,1269.55,685.85Z"/><path class="cls-1" d="M1637.11,395c.24-3.6-1.14-7.32.83-10.78C1637.5,387.8,1638.89,391.52,1637.11,395Z"/><path class="cls-3" d="M1046,691.12c3.29-.47,6.65.77,9.92-.4C1052.71,692.86,1049.37,692.23,1046,691.12Z"/><path class="cls-3" d="M1250.8,425c.1,3.44.5,6.9-.74,10.24C1250.26,431.86,1249.15,428.35,1250.8,425Z"/><path class="cls-3" d="M424.26,642.93c0-3.32,0-6.63-.05-9.95A12.73,12.73,0,0,1,424.26,642.93Z"/><path class="cls-3" d="M1623,387.89c1.37,3.28.83,6.71.78,10.11C1622.1,394.74,1623.25,391.26,1623,387.89Z"/><path class="cls-3" d="M1090.53,448.91c3.42-1.12,6.94-.79,10.44-.72C1097.59,449.9,1094,448.68,1090.53,448.91Z"/><path class="cls-3" d="M1102,448.18c3.46-.06,7-.46,10.33.73C1108.89,448.69,1105.35,449.9,1102,448.18Z"/><path class="cls-3" d="M1328.81,685.9a27.39,27.39,0,0,0,0-9.89A9.38,9.38,0,0,1,1328.81,685.9Z"/><path class="cls-3" d="M1420,448.19c3.51-.07,7-.35,10.46.72C1427,448.68,1423.37,449.89,1420,448.19Z"/><path class="cls-3" d="M927,685.13c3.47-.17,6.94-.33,10.33.72C933.91,685.63,930.37,686.83,927,685.13Z"/><path class="cls-3" d="M1426,378c-2,5.44,3.18,3.5,5.1,4.92C1424.35,383.09,1424.11,382.85,1426,378Z"/><path class="cls-3" d="M819,377.85c-3.27.44-6.64-.68-9.86.61C812.28,375.87,815.64,376.85,819,377.85Z"/><path class="cls-3" d="M1277,519.82c-3.45.11-6.93.45-10.3-.74C1270.09,519.31,1273.63,518.09,1277,519.82Z"/><path class="cls-3" d="M1410.05,416.51c1.12,3.1.87,6.29.73,9.48C1409.15,422.94,1410.25,419.68,1410.05,416.51Z"/><path class="cls-3" d="M389,236.18a19.49,19.49,0,0,0-4.23-.21c-2.58.4-2.45-1.24-2.5-2.87C383.56,236.27,387.37,233.89,389,236.18Z"/><path class="cls-1" d="M347.38,208.19c-1.16,1.18-1.78,2.95-3.94,3.52-.47-2.49,1.86-3.14,2.64-4.63Z"/><path class="cls-3" d="M1283.8,645c.08,3.19.38,6.4-.74,9.5C1283.27,651.31,1282.15,648,1283.8,645Z"/><path class="cls-3" d="M833.63,382.91c1.82-1.19,6.43-.05,4-4.78,1.8.75,1.72,2.35,1.12,3.6C837.64,384,835.4,382.7,833.63,382.91Z"/><path class="cls-5" d="M262.13,211c2.12.16,3.84,1.2,6.19,2.31-3.11,1.6-4.4-.88-6.25-1.34A7.77,7.77,0,0,1,262.13,211Z"/><path class="cls-3" d="M543.16,683.6c1.08,4.13,4.5,1.9,6.87,2.53C547.23,686.66,543.6,689.49,543.16,683.6Z"/><path class="cls-3" d="M1539,537.65c1,3,.85,6.18.75,9.31C1538.13,544,1539.23,540.76,1539,537.65Z"/><path class="cls-3" d="M895,519.81c-3.13.08-6.28.35-9.32-.72C888.78,519.26,892,518.19,895,519.81Z"/><path class="cls-3" d="M753.07,447.83l8.94.36C759,449.31,756,449.92,753.07,447.83Z"/><path class="cls-3" d="M1300.93,520.12l-7.94-.32C1295.69,518.68,1298.36,518.23,1300.93,520.12Z"/><path class="cls-3" d="M1511.06,684.45c1.66,3.15,4.62.93,6.87,1.67C1515.37,686.65,1512.35,689.13,1511.06,684.45Z"/><path class="cls-1" d="M298.08,363.08l8,.06A8,8,0,0,1,298.08,363.08Z"/><path class="cls-3" d="M1662,421.89c2.43,2.58,3.92,1.67,4.85-1.31,0,1.43.43,3.1-1.75,3.36C1663.5,424.13,1662.06,424,1662,421.89Z"/><path class="cls-3" d="M571.15,535.59c1,2.73.81,5.55.71,8.37C570.23,541.29,571.31,538.39,571.15,535.59Z"/><path class="cls-3" d="M1672.11,390a23.4,23.4,0,0,1,.72-8.33C1672.66,384.45,1673.76,387.34,1672.11,390Z"/><path class="cls-3" d="M1221.11,433l0-8A8,8,0,0,1,1221.11,433Z"/><path class="cls-3" d="M1174.91,429.24c-1.61-1.77-3.23-3-5.05-.25-1.22-1.65,0-1.94,1.21-1.94C1172.71,427,1174.83,426.43,1174.91,429.24Z"/><path class="cls-3" d="M1425.13,552c-.08-2.82-.43-5.67.72-8.38C1425.68,546.38,1426.79,549.29,1425.13,552Z"/><path class="cls-1" d="M217,260.07c.33,5.65-4.18,1.33-5.86,2.84C212.76,261.37,215.85,262.76,217,260.07Z"/><path class="cls-3" d="M702.54,443.11a13.16,13.16,0,0,1-9,0Z"/><path class="cls-3" d="M1237.23,378.1c-1.25,3.17.26,4.49,3.24,4.83C1235.41,382.79,1235.09,382.31,1237.23,378.1Z"/><path class="cls-3" d="M1063.83,598l0,8A8.55,8.55,0,0,1,1063.83,598Z"/><path class="cls-3" d="M1630.91,517.06c-2-2.2-4.65-.71-6.94-1.28C1626.52,514.9,1629.18,513.45,1630.91,517.06Z"/><path class="cls-3" d="M852.25,378.09c-1.47,3.31.32,4.45,3.24,4.83C850.45,382.79,850.14,382.32,852.25,378.09Z"/><path class="cls-3" d="M1337,448.18l7.91-.41C1342.36,449.86,1339.69,449.25,1337,448.18Z"/><path class="cls-3" d="M1410.52,448.9c2.74-1,5.58-.8,8.42-.71C1416.25,449.83,1413.33,448.73,1410.52,448.9Z"/><path class="cls-3" d="M677.2,398c-.12-2.46-.44-4.94.74-7.27C677.77,393.16,678.81,395.72,677.2,398Z"/><path class="cls-3" d="M1145.16,400l0-6.95A6.7,6.7,0,0,1,1145.16,400Z"/><path class="cls-3" d="M1737.5,688.84a21.22,21.22,0,0,1,7.4-.7C1742.56,689.71,1740,688.69,1737.5,688.84Z"/><path class="cls-3" d="M1726,688.11a20.51,20.51,0,0,1,7.43.73C1730.9,688.68,1728.29,689.74,1726,688.11Z"/><path class="cls-3" d="M1147.56,688.84a21.23,21.23,0,0,1,7.4-.71C1152.62,689.72,1150,688.69,1147.56,688.84Z"/><path class="cls-3" d="M1136,688.11a20.6,20.6,0,0,1,7.41.73C1140.94,688.68,1138.34,689.73,1136,688.11Z"/><path class="cls-3" d="M735.53,382.92c2.62-.81,3.78-2.22,2-4.83,1.91.65,1.73,2.19,1.33,3.61C738.32,383.43,736.77,382.87,735.53,382.92Z"/><path class="cls-3" d="M769.6,688.85a21.47,21.47,0,0,1,7.4-.71C774.66,689.71,772.08,688.69,769.6,688.85Z"/><path class="cls-3" d="M758.05,688.1a20.18,20.18,0,0,1,7.45.75C763,688.67,760.39,689.75,758.05,688.1Z"/><path class="cls-3" d="M662.92,516.45c-2.2-1.08-4.58-.31-6.85-.66C658.47,514.8,660.87,513.84,662.92,516.45Z"/><path class="cls-3" d="M522.93,516.46c-2.19-1.09-4.58-.3-6.85-.71C518.49,514.85,520.9,513.82,522.93,516.46Z"/><path class="cls-3" d="M892.49,686.86c2.42-1.07,5-.81,7.5-.74C897.63,687.74,895,686.66,892.49,686.86Z"/><path class="cls-3" d="M1617.38,378.13c-1.6.85-4.71.41-3.29,3.85C1612.47,378.36,1612.63,378.18,1617.38,378.13Z"/><path class="cls-3" d="M1317,685.12a17.13,17.13,0,0,1,7.32.73C1321.86,685.69,1319.3,686.72,1317,685.12Z"/><path class="cls-3" d="M1384,527.17c2.47-.1,4.94-.29,7.29.72C1388.84,527.74,1386.28,528.75,1384,527.17Z"/><path class="cls-3" d="M1666.9,403.15c-2.34-1.15-4-.59-5,1.91C1662.25,400.91,1664.28,401.28,1666.9,403.15Z"/><path class="cls-1" d="M1642.4,383.94a12,12,0,0,1,8,0Z"/><path class="cls-3" d="M958.91,686.43c-1.15-2.37-.46-5-1-7.44C960.05,681.21,958.65,683.94,958.91,686.43Z"/><path class="cls-3" d="M1172.06,437.78c1.12,2.31.94,4.76.75,7.21C1171.22,442.72,1172.25,440.19,1172.06,437.78Z"/><path class="cls-1" d="M239.91,351.06c0,2.32.09,4.64.13,7A6.27,6.27,0,0,1,239.91,351.06Z"/><path class="cls-1" d="M253.06,344.88h-7A6.7,6.7,0,0,1,253.06,344.88Z"/><path class="cls-3" d="M1062.14,385l-.18-7C1063.68,380.31,1063.42,382.65,1062.14,385Z"/><path class="cls-3" d="M1539.79,657c.1,2.5.38,5-.73,7.4C1539.21,661.89,1538.16,659.3,1539.79,657Z"/><path class="cls-3" d="M663.87,422c0,2.32,0,4.64,0,7A6.79,6.79,0,0,1,663.87,422Z"/><path class="cls-3" d="M602.94,653.4c-1.07-2.4-.85-4.91-.72-7.42C603.82,648.32,602.78,650.91,602.94,653.4Z"/><path class="cls-1" d="M1191.74,382.94a9,9,0,0,1,7.62,0Z"/><path class="cls-3" d="M1333.91,438.19c-1.08-1.95-.88-4.06-.77-6.16C1334.66,433.93,1333.74,436.13,1333.91,438.19Z"/><path class="cls-3" d="M885.54,382.92c2-1.27,4.49.26,6.39-1.31C890.25,384.19,887.69,382.6,885.54,382.92Z"/><path class="cls-3" d="M1617.42,519.1c-2.05,1.2-4.27.84-6.46.71C1613,518.28,1615.25,519.22,1617.42,519.1Z"/><path class="cls-3" d="M1270.53,382.92l6.39-1.11C1275.12,384.08,1272.68,382.65,1270.53,382.92Z"/><path class="cls-3" d="M1016.13,570c0-2.17-.08-4.35.77-6.42C1016.76,565.69,1017.75,568,1016.13,570Z"/><path class="cls-1" d="M291,181.3c-1.88-1.38-4.36.51-6.19-1.13C286.9,180.44,289.28,179.06,291,181.3Z"/><path class="cls-3" d="M763.13,390.69c1.16,2,.85,4.16.71,6.31C762.34,395,763.24,392.81,763.13,390.69Z"/><path class="cls-3" d="M1259.79,523q.35,2.93.7,5.86C1258,527.19,1258.77,525.11,1259.79,523Z"/><path class="cls-3" d="M1570.84,654.44c-1-2.07-.86-4.27-.72-6.46C1571.66,650,1570.71,652.27,1570.84,654.44Z"/><path class="cls-1" d="M181.17,511.72a12.92,12.92,0,0,1,.75,6.25C180.38,516,181.33,513.81,181.17,511.72Z"/><path class="cls-1" d="M262,192.09q0,3,0,6A4.88,4.88,0,0,1,262,192.09Z"/><path class="cls-3" d="M649.56,519.1c-2.06,1.23-4.3.83-6.5.72C645.08,518.27,647.38,519.23,649.56,519.1Z"/><path class="cls-3" d="M1530,534.14c2.19-.11,4.39-.25,6.46.74C1534.27,534.74,1532,535.71,1530,534.14Z"/><path class="cls-3" d="M1552,449.15a17,17,0,0,1,6.41.75C1556.22,449.78,1553.94,450.74,1552,449.15Z"/><path class="cls-3" d="M571.88,659c.15,2.19.32,4.38-.72,6.43C571.28,663.25,570.33,661,571.88,659Z"/><path class="cls-3" d="M1502.93,519.8c-2.17.16-4.35.46-6.37-.7C1498.69,519.2,1500.94,518.3,1502.93,519.8Z"/><path class="cls-3" d="M423.21,516a13.32,13.32,0,0,1,.76-6.49C423.81,511.66,424.8,514,423.21,516Z"/><path class="cls-3" d="M1558.53,449.91l6.39-.72C1562.93,450.71,1560.67,449.79,1558.53,449.91Z"/><path class="cls-3" d="M721.86,417c.14,2.13.32,4.27-.73,6.27C721.25,421.21,720.34,419,721.86,417Z"/><path class="cls-3" d="M1405.94,518.8c-2.2.09-4.42.29-6.5-.72C1401.61,518.24,1403.91,517.27,1405.94,518.8Z"/><path class="cls-3" d="M1489.93,516.06l-6-.23C1486,514.6,1488,514.37,1489.93,516.06Z"/><path class="cls-3" d="M535,519.8c-2.16.16-4.33.45-6.35-.7C530.81,519.2,533.05,518.3,535,519.8Z"/><path class="cls-3" d="M933.33,519.09a13.12,13.12,0,0,1-6.3.73C929,518.29,931.22,519.2,933.33,519.09Z"/><path class="cls-3" d="M1276,445l-6.4-.89C1271.73,444.28,1274.06,443.16,1276,445Z"/><path class="cls-3" d="M891,445.12l-6.4-1C886.74,444.33,889.12,443.05,891,445.12Z"/><path class="cls-3" d="M884.07,528.8l6.44,1.09C888.35,529.61,885.91,531,884.07,528.8Z"/><path class="cls-1" d="M1200.33,443.11a8,8,0,0,1-6.85,0Z"/><path class="cls-3" d="M1016.9,563.42c-.87-2.07-.7-4.25-.72-6.42C1017.71,559,1016.77,561.27,1016.9,563.42Z"/><path class="cls-3" d="M1025.18,387c-.33-2.19.53-3.2,2.8-2.82Z"/><path class="cls-3" d="M1056.16,685.93c-.25-1.4.26-3.1-1.55-3.87C1057.81,682.27,1057.31,684,1056.16,685.93Z"/><path class="cls-3" d="M1284,548.79c1,1.61.9,3.39.78,5.17C1283.38,552.41,1284.15,550.53,1284,548.79Z"/><path class="cls-3" d="M628.19,680.93l-.09-5A3.61,3.61,0,0,1,628.19,680.93Z"/><path class="cls-3" d="M1594.92,675.75a9.5,9.5,0,0,1-5.21-.72C1591.47,675.11,1593.34,674.37,1594.92,675.75Z"/><path class="cls-3" d="M628.05,675.91c-1.86-.11-3.79.18-5.52-.86C624.4,675.17,626.43,674.25,628.05,675.91Z"/><path class="cls-3" d="M372,260.22c-2.51-3.5,1.72-1.25,2-2.36Z"/><path class="cls-3" d="M943,686.13a9.59,9.59,0,0,1,5.34.71C946.57,686.78,944.65,687.54,943,686.13Z"/><path class="cls-3" d="M1056.11,393.64c1.6.53,3.2,1.11,4.8,0C1059.32,395.74,1057.72,395.73,1056.11,393.64Z"/><path class="cls-3" d="M1647,415.19a8.94,8.94,0,0,1,5.32.72C1650.47,415.85,1648.56,416.61,1647,415.19Z"/><path class="cls-3" d="M563.07,534.18c1.87-.12,3.75-.23,5.48.71C566.71,534.79,564.75,535.6,563.07,534.18Z"/><path class="cls-3" d="M710.57,378.1a4.05,4.05,0,0,0,0,4.84Q707.08,380.53,710.57,378.1Z"/><path class="cls-3" d="M905.82,658c.1,1.87.39,3.77-.7,5.5C905.21,661.63,904.4,659.66,905.82,658Z"/><path class="cls-3" d="M970,518.79a10.9,10.9,0,0,1-5.39-.7C966.4,518.16,968.33,517.39,970,518.79Z"/><path class="cls-1" d="M335.4,201.21c-.38.73-1,1.77-1.71,1.36-1.31-.79-.38-2.29-.5-3.48Z"/><path class="cls-3" d="M1409.07,542.55c1,1.7.88,3.55.72,5.41C1408.35,546.32,1409.14,544.38,1409.07,542.55Z"/><path class="cls-3" d="M1107.88,439.51c-1.06-1.72-.88-3.6-.71-5.48C1108.61,435.7,1107.8,437.67,1107.88,439.51Z"/><path class="cls-1" d="M270.06,190l-5,0A3.63,3.63,0,0,1,270.06,190Z"/><path class="cls-1" d="M299,188.09l-.06,4.95A3.73,3.73,0,0,1,299,188.09Z"/><path class="cls-1" d="M305,186.07c-1.42,1.56-3.31.48-4.93.89C301.51,185.46,303.36,186.29,305,186.07Z"/><path class="cls-3" d="M685.05,449.16a10.85,10.85,0,0,1,5.29.75C688.55,449.84,686.64,450.61,685.05,449.16Z"/><path class="cls-3" d="M1010.81,434a8.64,8.64,0,0,1-.72,5.25C1010.17,437.51,1009.42,435.62,1010.81,434Z"/><path class="cls-1" d="M224.07,258.14l-3.29-.95A2.21,2.21,0,0,0,222.1,255l2,2.22a.55.55,0,0,1,.24.61C224.22,258,224.14,258.14,224.07,258.14Z"/><path class="cls-3" d="M905.13,545.56c1,1.7.82,3.55.71,5.4C904.4,549.32,905.19,547.38,905.13,545.56Z"/><path class="cls-3" d="M1217.88,393.33a9.51,9.51,0,0,1-.73-5.29C1218.57,389.64,1217.82,391.54,1217.88,393.33Z"/><path class="cls-1" d="M281.06,177l-5-.07A3.59,3.59,0,0,1,281.06,177Z"/><path class="cls-3" d="M699.61,449.9a10.52,10.52,0,0,1,5.4-.74C703.38,450.63,701.44,449.83,699.61,449.9Z"/><path class="cls-1" d="M302.58,376.1c38,0,75.95,0,113.93-.08,3.57,0,4.79.64,4.76,4.55q-.28,41,0,81.93c0,3.52-1,4.4-4.43,4.4q-114.18-.15-228.35,0c-3.6,0-4.85-.69-4.82-4.6q.27-41,0-81.93c0-3.6,1.11-4.35,4.5-4.34Q245.37,376.2,302.58,376.1Z"/><path class="cls-1" d="M295.16,595.37c-.14.29-.47.63-.4.85,3.68,12.67-5.31,18.37-13.63,24.08-3.26,2.24-7.41,2.83-11.16-.14-1.83-1.45-2.25,2.12-4.33,1.21.46-2.13,1.53-3.68,4.05-3.85,3.55-.24,7.51-.31,8.38-4.65A12.48,12.48,0,0,0,274.23,601c-4.17-3.88-9.13-5.93-15.1-4.66-3.36.71-6.79,1.58-10.34.63,2.37-5,1.21-6.88-4.15-7.08-2.37-.08-5.78.31-2.74-3.8a1,1,0,0,0,0-.88c-1.54-2.57-1.81-3,.63-5,8.47-6.81,17.56-12.7,28.64-14.07a43.23,43.23,0,0,0,12.29-3.69c13.59-6,27.5-10.18,42.52-5.64,24,7.25,34.46,29.59,24.62,52.54-2.78,6.48-6.42,12.4-12,16.91-2.14,1.74-3.27,4.18-4.58,6.47a92.51,92.51,0,0,1-19.44,23.27c-5.15,4.55-11.06,7.29-18.13,7.06-5.19-.17-6.61-1.91-5-6.92,1.77-5.52,5.22-10,9.47-13.86A150.68,150.68,0,0,1,317.14,630c2.33-1.61,4.64-3.25,6.83-5a6.72,6.72,0,0,0,2.74-5.65c-.27-2.47-3-1.13-4.58-1.82-2.1-.93-4.52-1.2-6.56-2.24a13.76,13.76,0,0,1-5.18-20.36c1.5-2.2,3.22-4.24,4.67-6.47,1.22-1.88,2.29-3.91.68-6.38a20.12,20.12,0,0,1-3.88,7.64c-6.3,7-8.64,14.46-2.44,23-12.29-.14-13.46-8.4-12.9-18Z"/><path class="cls-1" d="M330.17,726.15H274c11.45-10.21,6.48-23.14,6.68-35,.11-6.56-4.6-11.54-9.92-15.43-6.91-5-14.75-8.34-22.45-11.86a160,160,0,0,1-30.83-18.28c-2.45-1.88-2.6-3.1-.78-5.52,3.69-4.89,7-10,10.64-15.28a301.65,301.65,0,0,0,70.23,64.69c3.6,2.4,6.12,2.38,9.69,0a299.71,299.71,0,0,0,66.8-60.43c1.05-1.29,2.11-2.57,3.48-4.24,3.9,5.63,7.55,11.09,11.41,16.4,1.5,2,.32,2.78-1.08,3.89a139,139,0,0,1-27.55,17c-7.51,3.53-15.17,6.78-22.35,11-9.49,5.6-15.06,13.36-14.23,24.9a81.21,81.21,0,0,1,0,10C323.43,714.79,324.43,721,330.17,726.15Z"/><path class="cls-1" d="M278.35,715.17c-4.92-8.1-11.64-11.35-18.52-14.2-14.72-6.11-29.53-12-43.06-20.58-9.73-6.16-19.07-12.78-26-22.19-8-10.78-10.17-22.13-3.52-34.45,2.15-4,4-8.16,6.6-13.51-1,13.5,5.27,22.27,13.39,30.09,10.76,10.36,23.2,18.26,36.69,24.59,7.35,3.46,14.82,6.67,21.85,10.8,8.63,5.08,13.36,12.12,12.67,22.49C278.06,703.33,278.35,708.5,278.35,715.17Z"/><path class="cls-1" d="M411.66,611.87c4.56,10.4,12.44,19.65,9.4,32.12-2.56,10.51-9.16,18.32-17.16,25.08C391.34,679.68,377,687.39,362,693.91c-7,3-14.09,5.89-21.06,9-5.36,2.38-10.16,5.59-13.52,10.72-5.55-17.42-.16-31.55,15.5-40,7.74-4.16,15.85-7.65,23.72-11.56a122.93,122.93,0,0,0,30.57-21.33C405.42,632.92,412.14,624.28,411.66,611.87Z"/><path class="cls-1" d="M244.08,721.21c7,6.66,15,7.94,23.5,7.92q35.22-.07,70.45,0c8.19,0,15.9-1.36,22.81-7.93,0,9.09.15,17.44-.09,25.78-.08,2.85-2.36,4.66-4.87,5.88a29.62,29.62,0,0,1-13,3.12q-40.47.09-80.94,0a32.37,32.37,0,0,1-6.89-1c-8.94-2-11-4.57-11-13.61Z"/><path class="cls-6" d="M360.14,523.19c0-13.61,0-26,0-38.47,0-3.06,1.84-4.56,4.2-5.51a14.78,14.78,0,0,1,15.08,2c2.63,2,5.36,3.3,8.71,2.89,2.29-.29,3.25.49,3.23,3q-.17,16.7,0,33.4c0,2.71-1,3.42-3.5,3.31a20.61,20.61,0,0,1-7.23-1.57C373.92,519.4,367.2,516.63,360.14,523.19Z"/><path class="cls-6" d="M244.11,523.12c-6.36-5.32-12.3-4.16-18.44-1.61-11.82,4.9-12.69,4.29-12.69-8.1,0-8.31.11-16.63-.06-24.93-.06-3,.44-4.79,4-4.27,2.79.41,5.19-.74,7.36-2.43a15.71,15.71,0,0,1,9.6-3.63c7.35-.1,10.24,2.72,10.24,10Z"/><path class="cls-6" d="M247,523c0-13.41.08-25.7-.05-38,0-3.3,1.83-4.89,4.42-5.85A15,15,0,0,1,266,481.24c2,1.44,4,3.33,6.67,2.92,4.87-.75,5.63,1.54,5.51,5.8-.28,10.13-.19,20.27,0,30.41.05,2.87-.88,3.62-3.66,3.58a23.05,23.05,0,0,1-9.06-2.37C259.35,518.91,253.38,517.76,247,523Z"/><path class="cls-7" d="M357.34,523c-7-6-13.44-3.79-19.85-1a24.14,24.14,0,0,1-2.31.92c-7.47,2.4-9,1.31-9-6.23,0-9.65.08-19.31-.06-29,0-2.74.61-4.08,3.56-3.66,3.17.44,5.82-.78,8.29-2.68a15,15,0,0,1,10.69-3.32c6.51.55,8.71,2.9,8.72,9.44Z"/><path class="cls-8" d="M289.82,510.91c0,5.66-.43,11.36.13,17,.54,5.39-1.57,6.35-6.37,6.11-7.64-.39-15.31-.13-23-.1-3.92,0-7.84-.45-11.43,2.17a6.26,6.26,0,0,1-7.15.07c-3.89-2.81-8.17-2.21-12.42-2.23-8.15,0-16.31-.13-24.46,0-2.9.06-4.1-.51-4.05-3.78.19-12.81.05-25.63.12-38.45,0-1.28-.88-3.49,1.46-3.51s1.43,2.19,1.44,3.44c.07,11.31.24,22.64-.06,34-.11,4.3,1.37,5.4,5.4,5.22,6.65-.29,13.32-.1,20-.07,4.26,0,8.57-.57,12.5,2.13a5.28,5.28,0,0,0,5.29.54c8.28-4.42,17.22-2.43,25.88-2.6,13.74-.28,13.74-.08,13.74-13.81,0-8.65,0-17.31,0-26,0-1.14-.65-3,1.6-2.84,1.67.14,1.31,1.66,1.32,2.75C289.84,497.6,289.82,504.25,289.82,510.91Z"/><path class="cls-9" d="M314.49,510.77c0-6.16-.08-12.33.05-18.49,0-1.44-1.08-4,1.32-4.1,2.62-.1,1.43,2.53,1.44,3.9.1,11.16.2,22.32,0,33.48-.08,3.88,1,5.36,5,5.16,6.65-.31,13.32-.1,20-.07,4.44,0,8.9-.52,13,2.17a5.7,5.7,0,0,0,5.79.31c6.49-3.73,13.56-2.25,20.44-2.46,4.49-.14,9-.25,13.49,0,3.84.24,5.22-.86,5.12-5-.3-11.32-.14-22.65-.05-34,0-1.25-1-3.5,1.24-3.59,2.8-.11,1.59,2.43,1.6,3.78.11,12.66,0,25.32.16,38,0,3-.66,4.06-3.85,4-8.32-.23-16.65-.1-25-.07-4.1,0-8.19-.47-11.95,2.17a6.38,6.38,0,0,1-7.17,0c-3.61-2.57-7.53-2.13-11.47-2.14-8.33,0-16.67-.16-25,.06-3.24.09-4.4-.79-4.28-4.13C314.65,523.43,314.49,517.1,314.49,510.77Z"/><path class="cls-6" d="M340.2,726.2c-5,1.45-8.12-2-10-5.82-2.11-4.26.84-7.54,4.12-10.18,8.77-7.09,10.24-7.15,18.86.25,2.37,2,6.62,3.29,5.71,7.37s-5,5.5-8.59,6.8A28.83,28.83,0,0,1,340.2,726.2Z"/><path class="cls-1" d="M264.19,726.23c-5.21-.2-10.23-1.11-14.65-4.09-4.6-3.12-4.77-5.77-.64-9.38a30.16,30.16,0,0,1,5-4.06c2.4-1.31,3.34-5.72,7.06-4,5.54,2.54,11.66,4.82,13.95,11.16C276.94,721.4,271.27,726.63,264.19,726.23Z"/><path class="cls-10" d="M224.49,621.52c-5.59.83-9.76-.23-12.38-4.61-1.7-2.84-2.75-2.09-4.2.07-2.3,3.44-4.72,6.8-7.14,10.27-7.41-9.9-4.31-21.56,1.33-25.86,4.7-3.58,7.05-3.18,10.2,1.71C216.14,609.08,220.14,615,224.49,621.52Z"/><path class="cls-10" d="M404.49,627.68c-2.61-3.74-4.95-6.94-7.13-10.25-1.6-2.45-2.94-3.83-4.69-.11a7.39,7.39,0,0,1-4.12,3.46c-2.32,1-5.43,2.31-7,.5-1.47-1.66,1.53-3.55,2.61-5.27,3.08-4.93,6.5-9.65,9.45-14.65,1.54-2.61,3.29-2.9,5.76-1.9,5.08,2,7.88,5.94,8.79,11.21C409.14,616.47,407.88,621.88,404.49,627.68Z"/><path class="cls-11" d="M396.9,527c-3.72,2-7.7.6-11.54.79-5.32.27-10.66.11-16,.05-2.36,0-4.52.13-6.57,1.67-1.75,1.3-4.14,2.18-6.1.83-5.29-3.65-11.19-2.29-16.89-2.45-5.49-.15-11,0-16.49,0-1.48,0-3.19.27-3.14-2.05.29-12.77-.68-25.55.5-38.31,0-.1.27-.18.41-.27,1.42,1.53,1,3.45,1,5.22,0,9.63,0,19.27.07,28.9,0,1.74-1,4.18,1.91,4.91a26.55,26.55,0,0,0,16.42-2.36c5.33-2.52,10.46-3,15.23,1.31a4.31,4.31,0,0,0,6.27,0c4.79-4.43,9.91-3.72,15.22-1.32s10.95,3.69,16.85,2A3.16,3.16,0,0,1,396.9,527Z"/><path class="cls-9" d="M210.13,525.89a20.43,20.43,0,0,0,15-1.11c6.21-2.8,12.14-4.56,17.91,1.06,1.56,1.53,3.83,1.19,5.45-.38,4.88-4.72,10.19-3.85,15.67-1.39s10.92,3.86,16.79,1.68c1.72-1.39,1.09-3.35,1.1-5.08.07-9.41,0-18.82.05-28.24,0-1.76-.46-3.67,1-5.19,1.2.53.94,1.62.94,2.57,0,11.64-.07,23.28.07,34.92,0,2.79-1.06,3.28-3.51,3.24-7-.13-14-.07-20.95,0-3.93,0-7.93-.55-11.39,2.24a4,4,0,0,1-4.75.29c-5.55-3.93-11.83-2.08-17.83-2.56s-12.36,1.18-18.4-.92A3.16,3.16,0,0,1,210.13,525.89Z"/><path class="cls-12" d="M223.72,625.07c-3.56,5.19-6.76,9.79-9.86,14.45-1,1.45-1.83,1.68-3.05.36-2.47-2.68-4.92-5.36-7.45-8-1.2-1.23-.84-2.29,0-3.45a31.57,31.57,0,0,0,2.54-3.67c2.12-4,4.16-6.65,8.59-2C216.53,624.92,220,624.56,223.72,625.07Z"/><path class="cls-13" d="M392.29,641.14c-3.58-5.19-7.16-10.36-11.05-16,4.9-.71,9.61-1.06,12.61-5.12.81-1.09,1.35-.49,1.93.08a9.8,9.8,0,0,1,.87,1.21C403.83,630.67,403.44,632.55,392.29,641.14Z"/><path class="cls-9" d="M324.38,621c-8.68,1.85-17.57-.09-26.3,2.12.24-3.14,3.16-3.07,4.54-4.86-3.8-1.43-5.84,1.61-8.66,2.93a7.12,7.12,0,0,1,7.16-6.09C309.26,615,316.89,617.6,324.38,621Z"/><path class="cls-14" d="M396.9,527c-1.08-.05-2.23.11-2.88-1.09V486.46c2.76-.34,3.22,1.18,3.21,3.16Z"/><path class="cls-1" d="M210.13,525.89c-.64,1.2-1.79,1.07-2.88,1.09-.07-12.42-.13-24.84-.26-37.25,0-2,.68-3.12,3.14-3.57Z"/><path class="cls-15" d="M263.91,612.76c-1.72-.86-.89-2.62-2.28-3.06-1.46,1.33.23,3.59-1.44,4.86-2.23-4.61-1.28-7.85,2.71-9.63,2.71-1.21,5.85-.95,8.46-2.77,1.32-.93,2.33.78,2.91,1.9.9,1.74,2.25,3.66,1.47,5.55-.49,1.19-2.49.87-3.68.35C268.4,608.36,265.29,608,263.91,612.76Z"/><path class="cls-16" d="M324,526.23c-4,1.5-2.9-1.72-2.91-3.42-.08-11.87,0-23.74,0-35.61,3-2.34,2.26.42,2.27,1.74,0,10.64,0,21.29,0,31.93C323.4,522.67,323,524.55,324,526.23Z"/><path class="cls-1" d="M283.07,487.24c0,11.91,0,23.81-.07,35.72,0,1,1.48,4-2.05,2.79,0-12.21-.05-24.42,0-36.64C281,488.17,279.78,484.92,283.07,487.24Z"/><path class="cls-1" d="M933.86,567.51c.31-9.31,0-18.64,1-27.93.81-7.13,3.07-9.28,10.18-9.54,6.17-.23,12.29,0,18.26,1.88,18.84,5.8,29.52,27.2,22.5,45.62-4.58,12-14.77,16.5-26.48,18.27-7.42,1.13-14.93.76-22.43.37-2.8-.15-3.14-1.36-3.11-3.71C933.93,584.15,933.86,575.83,933.86,567.51Z"/><path class="cls-1" d="M1794,616.43c-.42,19.08-6,36.05-20.94,48.83-15.59,13.36-39,13.24-57.34-.08-14.48-10.5-23-25.16-28.17-41.9-5.87-19.09-8.18-38.41-1.69-57.88,12.37-37.07,52.64-47,80.88-19.87,14.35,13.79,21.41,31.39,25.14,50.53A111.91,111.91,0,0,1,1794,616.43Z"/><path class="cls-1" d="M826.06,614.51c0,14.13-2.72,25.46-8.68,36C803,675.8,775.2,682.72,750.62,667c-13.57-8.68-22.39-21.23-28-36-8.55-22.26-12.15-45-3.57-68.15,7-19,20.14-31.27,41.24-32.42,17.51-1,31.66,6.48,42.89,19.56,13,15.14,19.21,33.19,21.87,52.64C825.63,607.27,825.83,611.93,826.06,614.51Z"/><path class="cls-1" d="M1092,591.29c0-12,1.75-22.09,6-31.67,13-29.43,45.69-38.4,72-19.69,13,9.21,21.16,22,26.43,36.69,7.09,19.74,10.59,39.91,4.54,60.64-7.3,25.06-26.27,39.53-49.62,37.6-16.23-1.35-28.82-9.68-38.66-22.26C1098.25,634.17,1092.85,612.68,1092,591.29Z"/><path class="cls-1" d="M285.81,273.33c1.56-5.08,5.83-2.74,8.66-3.87,1-.4.83,1.86.91,2.89.58,7.52,5.19,13.21,8.77,19.34,1.62,2.76,3,1.34,3.72-.71,2.08-6.06,3.13-12.25,1.82-18.66-.78-3.87,1-5.9,4.59-5.8,1.39,0,2.8-.87,5.9-1.92-5.27,7.26-5.47,14.65-6,22-.08,1.24-1,3,.38,3.68,1.88.94,2.33-1.28,3.32-2.22.36-.34.6-.8.93-1.17,1.58-1.8,2.69-5.08,5.87-1.66.42.46,1.88-.06,3.19-.14-.4.62-.54,1.12-.86,1.32-15.59,9.56-15.31,27.55-11.47,39.44,1.94,6,7,9.53,12.56,12.2,4.31,2.07,9,3.41,13.07,6.26-3.76,2-10,.87-12.36-2.12a11.88,11.88,0,0,0-5.64-4c-8.59-2.81-11.45-9.44-12.13-17.66a96.4,96.4,0,0,0-1.75-12.6c-2,7.52-1.33,14.89,1,22.24,2.57,8.14,11.28,9.13,16.56,14.4-4.24-.54-8.09,1.81-12.37.57-2.32-.68-3.9-1.1-5.21-3.52-2.29-4.24-7.58-3.71-10.41,1-1.38,2.32-2.4,3.73-5.2,2.29-3.12-1.59-1.24-3.81-.54-5.5,1.85-4.48,5-8.51,4.66-13.91-5.32,4.12-3.58,14-11.23,14.91-6.13.72-10.44,8.38-17.6,3.57,3.87-2,7.9-4.22,12-6.29a21.44,21.44,0,0,0,9.62-9.12c3-5.72,4.39-11.14-.23-17-3.35-4.28-5.59-9.42-8.47-14.09A31.66,31.66,0,0,0,271.31,287c4.75-3.15,8.51-6.68,8.25-13.2,3.28,2.74,3.39,6.25,3.31,9.57-.2,9.28,4.77,15.64,11.38,21.17,2.05,1.71,4.36,2.2,4.63-1.11.71-8.89.22-17.68-5.53-25.21C291.47,275.74,288.62,274.64,285.81,273.33Z"/><path class="cls-12" d="M296.09,256.85c2.72,2.91,5.28,5.4,7.51,8.17,1,1.21,3.11,3.14,1.3,4.45s-5.53.66-6.12-1.35c-1.2-4.07-3.32-2-5.22-1.54-1.45.32-2.95,1.19-4.14-.18s-.82-2.73.09-4.14c2-3.05-.63-3.24-2.49-3.72-2.72-.72-4-.88-2.38-4.79,1.43-3.55-1.08-9,6.24-6.88,3.93-6.56,4.81,0,6.23,1.71s2.29,3.24,4.61,1.46c1.94-1.49,2.51.07,3.14,1.48,1.13,2.56.18,6.18,4.8,7,1.36.23-.82,4.08-.7,7.55C304.66,262.2,301.31,258.32,296.09,256.85Z"/><path class="cls-10" d="M312.48,253c-.94-4-3.62-7,.91-9.55,2.1-1.18-.11-3.25-.28-4.93-.25-2.54-2.85-6.44,3.1-5.72.44,0,1.43-.69,1.42-1-.26-7,6.45-5.71,10-9,.65,3.18.5,5.95,4.14,7,1.71.48.33,2.89-.75,4.16-1.37,1.61-4.14,2.7-1.26,5.46.9.86-.63,1.65-1.34,2.2-1.69,1.31-3.47,2.5-5.06,3.63.17,1.81,3.48,1.41,2.23,3.39-2.3,3.64-6.13,5.27-10.36,6.86.12-5.58,4.23-9.53,5-15.37C316.42,243.76,314.89,247.94,312.48,253Z"/><path class="cls-13" d="M362.43,234l-6,3.62c-1.55-3,2.14-7.71-3.24-9-.07,0,1.52-2.1,2.44-1.39,4,3.07,6.16.51,8.54-2.25.94-1.08,2.79-2.3,3.77-.54,1.74,3.11,3.7,1.8,5.89,1,1.37-.48,3.1-1.16,4,.47s.05,3.2-1.39,4.32c-1.18.91-2.42,1.75-3.58,2.68-1.68,1.35-2.42,2.49,0,4.13,3,2,1.24,3.09-1.19,3.52a30,30,0,0,1-4.45.37c-2.6.06-5.15.08-2.76,3.74,1.17,1.79.35,2.77-1.29,3.41-3.2,1.25-6.54,1.11-9.84.75-2.07-.23-2.14-1.85-1.34-3.33a13.47,13.47,0,0,1,4.5-4.54C359,239.22,361.69,237.56,362.43,234Z"/><path class="cls-12" d="M252.09,232.94c-8.36,4-9.36-4.62-13.94-8.44-.06,5.4,3,8.32,6.08,11.18,4.66,4.33,4.71,4.6.19,9.63-1-3.76-2-7.39-7.16-5.18-1.63.7-2.1-1.25-2.83-2.24-.88-1.18.07-1.81,1-2.25,4-1.93,1.45-2.92-.53-4-1.3-.74-2.58-1.5-3.82-2.34-1.06-.73-1.9-2.14-.53-2.76,3.6-1.64,2.64-4.48,2.48-7.22,0-1-.16-2.06.8-2.72,1.14-.78,1.87.14,2.49.86,2.85,3.29,5,2.72,6.26-1.14,4.23.54-.47,11.92,8.81,5.66-.68,6.08,1.91,9.17,7.67,9.3C257.29,234.09,254.19,231.5,252.09,232.94Z"/><path class="cls-12" d="M268.79,261.93a36.92,36.92,0,0,0,1.92,4.56c.91,1.54-1.35,6.5,4,3.71.89-.46,1.38,2.32,1.57,3.76.17,1.26,1.14,2.78,0,3.78s-2.52-.11-3.58-.77c-3.73-2.3-7.39-4.72-12.24-7.83,2.8,7,10.06,7.87,12.34,13.44a11.23,11.23,0,0,1-6.71,1.56c-1.11,0-2.81,0-2.08-1.76,1.63-3.9-1.08-3.49-3.37-3.88-2.5-.44-6.24.1-3.73-4.73,1-1.94-1.43-2.2-2.72-2.58-2-.57-3.47-1.09-1.05-3.07,2-1.66.45-2.89-.5-4.17s-2.2-2.24-.75-3.87c1.26-1.42,2.51-.4,3.57.18,1.77,1,3,2.14,5-.16,1.37-1.57,2.87.55,3.16,1.8C264.92,267.19,266.76,265,268.79,261.93Z"/><path class="cls-12" d="M283.41,215.08c-2.88-3.34-4-8-8.74-10.44-.11,3.5,2.84,5.13,3.29,8.12-2.22.21-4.51.6-4.69,3.6-.08,1.52-1.13,1.24-2.17.94-1.49-.42-1.35-1.24-.58-2.16,3-3.51.5-4.38-2.41-5.22a12.21,12.21,0,0,1-3.56-1.72c-.94-.67-2-2.3-.77-2.87,4.86-2.29,2.11-5.33,1.11-8.2-.54-1.54-.75-3,.77-4,2.07-1.34,3.86-.37,5.34,1.15,2.35,2.4,4.4,4.91,7.17.23,1.07-1.8,2.37-.32,2.74,1a36.43,36.43,0,0,1,.87,5.42c.19,1.58.69,2.6,2.52,1.89,1.07-.41,2.38-1.27,2.57.72.13,1.38,1,3.49-.73,4.06C281.9,209.05,283.05,211.94,283.41,215.08Z"/><path class="cls-12" d="M305.14,213.77c.84-5.17,2-10.22-5.44-12.43,4.93-.65,5.32-2.75,3.42-6.24-1.31-2.39-3.78-5.77,2.33-5.46,2.37.12,2.27-2.47,3.09-4,.73-1.35.63-3.84,2.91-3.37,2,.42,2.41,2.54,2.52,4.43.13,2.23-1.9,5.33,3.33,4.88,1.72-.15.93,3.86-.15,5.95s-4.56,4,.85,6.1c2,.77-.81,5.22-2.95,7.13-1.44,1.28-3.49,1.87-5.56,2.92.49-5.16,2.36-10,1.27-16.11C308.06,203.22,308.55,209.08,305.14,213.77Z"/><path class="cls-13" d="M334.1,286c4.64.63,7.63,4.07,12.13,6.22-1.46-4.88-5.17-6.29-9-9.19,3.93-.18,7.23-4.23,9.49,1.76.26.68,2.06.87,3.18,1.1,2.28.47,5.84-.66,4.59,3.95-.08.3.53,1.11.82,1.11,5.22,0,3.05,5.42,5.49,7.45.72.6.33,2.2-.09,2-3.75-1.56-7.47,4.09-11.18,0-.7-.77-1.91-2.13-3-1.16-4.48,4.2-4.53-.74-5.91-2.77-1-1.54-1.35-3.12-4-3.63S334.17,288.81,334.1,286Z"/><path class="cls-13" d="M323.08,265.49c3.34-5.57,10.22-5.12,15.47-9.28-6.71-.62-11.58,3.13-17.41,3.89,1.72-3.16,2.05-6.94,6.92-6.42,1.16.12,2.56-1.91,3.85-3s2.52-2.37,4.16-.43c.28.33,1.15.68,1.27.55,4-4.1,7.79,1.65,11.71.16a1.59,1.59,0,0,1,2.17.64,1.89,1.89,0,0,1-.94,2.52c-1.87,1.13-3.5,2-2.8,5,.61,2.59-2.1,1.62-3.55,1.91-1.64.32-4.89-1.47-3.65,2.86.52,1.85-1.4,1.36-2.33,1.39-2.91.11-5.9-1.62-8.51,1.85C328.6,268.27,325.13,267.06,323.08,265.49Z"/><path class="cls-17" d="M283.4,243.28c-2.37,5.38-.76,9.44-2.69,13.12-.71,1.36.69,3.27,2.48,3.8,4.94,1.47,2.62,5.2,2.35,8a3.81,3.81,0,0,1-3.42,3.2c-2.35.12-2.2-2.18-2.54-3.64-.94-3.95-1.64-8-2.92-11.92-1.23,3-.56,6-.46,9,0,.73.62,1.75-.62,2-1.05.23-2.2-.05-2.32-1.24-.33-3.28-5.37-5.87-1.43-9.77.16-.16.18-.82,0-.91-5.52-3.68.38-7.72-.32-11.58a2.91,2.91,0,0,1,1.85-3.24c1.67-.53,2.46.83,3,2C277.5,245,279.19,246.2,283.4,243.28Z"/><path class="cls-17" d="M381.9,251.88c-1.75-.31-3.38-.64-5-.86-1.32-.19-3.31-.38-3.44,1.09-.42,4.85-4,3.62-6.67,3.62a70,70,0,0,1-10.3-1c-.71-.11-2.14-.54-2-1.81s1.43-1.11,2.37-1.12c2.84,0,6.58.34,8-1.75,2.92-4.23,6.11-7.22,11.21-8.56,1.83-.48,1.31-3.17.62-4.92-.42-1.06-2.3-2.1.11-2.91,1.47-.49,2.92.08,2.85,1.72-.18,4.21,2.14,4.18,5.1,3.38,1.35-.37,2.66-.61,3.39,1,.82,1.85.1,3.21-1.46,4.24-2.09,1.39-4.29,2.39-2.4,5.8C385.61,252.23,383.05,251.68,381.9,251.88Z"/><path class="cls-12" d="M307.32,250c-1.2-2.27-2.31-4.7-5.62-3.08-1.36.66-2.11.06-2.81-1.1a14.17,14.17,0,0,0-4.6-4.48c-2.63-1.7-4.73-3.58-.81-6.33,1.61-1.13.72-3.09.8-4.68s.08-3.21,1.58-4c1.8-.89,3.1.47,4.38,1.56,2.19,1.86,3.41,6.72,7.65,2.49.51-.5,1.43.23,1.49.82.36,3.51,1.87,7.68.51,10.37a17.35,17.35,0,0,0-1.69,8.44C307.88,250.43,307.59,250.41,307.32,250Z"/><path class="cls-18" d="M262,286.55A30.83,30.83,0,0,0,250.56,295c6.1-1.59,10.38-5.69,17.35-6.61-2.64,2.68,0,8.39-6.77,6.41-1.65-.48-2.4,1.94-3.05,3.47s-1.21,3.52-2.81,4.6c-.78.53-2.25,1.53-2.64.76-2.82-5.62-6.27-1.85-9.55-.84-1,.3-2.13.64-2.63-.46a2.74,2.74,0,0,1,.52-2.27c1.94-2.41,4.07-4.31,2.39-8.19-.8-1.84,2-2.9,4.27-2.81,1.84.07,4.1.42,2.56-2.79-.93-1.92.71-1.92,1.74-1.74a31.45,31.45,0,0,1,4.24,1.41c1.67.55,3.16.68,2.65-1.82-.21-1-1.53-2.31.31-2.78,2.57-.67,1.09,1.6,1.53,2.51S261.55,285.63,262,286.55Z"/><path class="cls-12" d="M323.5,218.65,321,211c3.94.83,4.88-1.74,6.08-4.43.83-1.85,2-5.81,4.53-.89.88,1.66,2.18,1,3.31.12s2-1.77,3-2.6c1.42-1.14,2.9-1.63,4.45-.19s1,2.93-.25,4.28c-1.72,1.85-3.28,3.27-1,6.26,1.83,2.4-1.47,3.46-3.09,4.52-1.9,1.23-4.43,1.66-2.93,5.05.73,1.64-.89,2.74-2.43,3.11-1.83.44-1.47-1.19-1.84-2.2-1.79-4.85-1.72-6.08,1-11.32C328,213.45,326.37,217,323.5,218.65Z"/><path class="cls-17" d="M231.19,253c-.66.21-1.74.63-2.85.91-.93.22-2.2.73-2.79.33-1.53-1,.07-1.92.53-2.84,1.22-2.43-1-2.3-2.19-2.81-2-.87-4.29-1.34-4.42-4.06a4.74,4.74,0,0,1,1-2.12c4.95,2,5.12-5,8.94-4.69,1.69.14,2.81,1.72,3.71,3.13,1.19,1.88,2.63,2.92,5,2.22,1-.31,2.37-1.08,2.84.68.28,1.05.91,2.22-.14,3.27-3.2,3.21-2.61,6.12.68,8.85,1.55,1.3.89,2.2-.58,3-3.93,2.09-5.1,1.5-5.18-2.53C235.63,253.75,234,252.92,231.19,253Z"/><path class="cls-10" d="M227.36,278.05c1.85-.36,2.93.86,4.22,1.54,2.47,1.3,3.75.45,4.06-2.22.18-1.54-.46-3.72,2-3.84a5.75,5.75,0,0,1,5.59,3.43c.86,2,1.39,3.88,3.18,5.41,1.44,1.23.11,3.08-.9,3.72-3.77,2.38-7.75,4.46-11.7,6.56-1.56.83-3.2.56-3.5-1.35-.49-3.2-2.62-3.39-5.08-3.37a2.68,2.68,0,0,1-2.79-1.7c-.51-1.57.83-2,1.95-2.26C227.91,283.23,226.77,280.14,227.36,278.05Z"/><path class="cls-12" d="M295.18,213.37a10.7,10.7,0,0,0-.56,7.83c.24,1,.69,2-.38,2.69s-1.69-.43-2.41-1.06c-3.24-2.84-2.39-7.85-5.7-10.66-.17-.15.12-1.29.25-1.3,5.16-.46,3-4.42,3.49-7.15.61-3.67,2.5-2.18,4.13-.89,2.06,1.61,2.89,5.22,7.09,2.64,1.55-.95,2.19,2.34,1.61,4-1.14,3.33-3.25,6.69,2.79,7.33,1.43.15.82,1.76.24,2.35a37.54,37.54,0,0,0-4.1,4.66c-1.26,1.8-3.46-.13-4.12-2C296.55,219.07,295.94,216.19,295.18,213.37Z"/><path class="cls-17" d="M359.51,216c-4.5,1.45-9,2.85-13.49,4.39-1.11.39-2,1.18-3-.19a1.86,1.86,0,0,1,.44-3c2.8-2.1,3.35-8.56,9.21-4.82a.51.51,0,0,0,.48-.07c4.18-5.32,9.34-.54,14-1.35,1.32-.23,2.82-.36,3.53,1.09s-1,2.16-1.54,3.25c-1.75,3.67-4.93,5.86-7.73,8.56s-4.34.92-5.84-.43c-2-1.81-.84-3.39,1.27-4.49a30,30,0,0,0,3.19-2.23Z"/><path class="cls-13" d="M276,236.75c-5.29,1.68-7.33-2.35-10-5.09-.41-.43-.5-1.73-.69-1.72-8.69.41-5.26-8-8.47-11.58a2.12,2.12,0,0,1-.18-3.12,3,3,0,0,1,3.6-.93c3.91,2,8.42,3.51,11.33,6.53,1.84,1.91,1.77,6.16,2.06,9.26A13.49,13.49,0,0,0,276,236.75Z"/><path class="cls-17" d="M221.94,269.8c11.17,3.08,11.17,3.08,10.7,6.71a10.85,10.85,0,0,0-11.33.34A3,3,0,0,1,218,277c-1.55-1.06-.13-2,.29-2.92,1.39-3-1.35-2.81-2.72-3.56-1.54-.83-4-1-3.35-3.5s2.68-1.13,4.22-1.1c3.44.06,3.44.06,3.88-5.33,2-.34,3.33.9,4.65,2,1.89,1.58,3.57,2.68,4.91-.58.71-1.72,1.86-.93,2.77-.15,2.16,1.84,4.08,3.86,4.33,7.23C232.37,269.09,227.82,268.36,221.94,269.8Z"/><path class="cls-12" d="M319.9,347.76c5.31.19,9.7.75,14.13,0,2.53-.44,10.47,8.43,10.86,11.4.3,2.28-1.69,1.85-2.64,1.53a11.68,11.68,0,0,0-8.45.06c-2.42.95-5-.5-6.57-2.56C324.82,355.08,322.7,351.77,319.9,347.76Z"/><path class="cls-17" d="M371.36,273.89l4.42-.22c-2.7-2.6-5.92-1.94-8.71-3.09l2.93-5.21c1.43,3.06,3.16,3.26,5.82,1.71,2.4-1.39,6.51-5.11,5.88,2.41-.18,2.1,2.55,1.62,4,2.15,1.75.65,3.69,1,3.5,3.43-.22,2.91-2.46,2-4.16,2-.66,0-1.87-.12-1.91,0-1.49,5.9-7,2.53-10.14,4.4-2,1.18-2.9,0-2.8-1.7a5.89,5.89,0,0,0-2.12-4.78C368.39,272.52,370.11,273.86,371.36,273.89Z"/><path class="cls-12" d="M305.21,361.09c-5.57-1-9.75-1.22-14-.39-2.42.47-4.47-1.81-5.92-4-1.76-2.61-3.55-5.21-5.32-7.8.1-.32.18-.85.3-.86,4.11-.39,8.2.8,12.39-.41,2-.57,4.1,1.1,5.41,3C300.19,353.71,302.28,356.81,305.21,361.09Z"/><path class="cls-12" d="M260.21,360.93c-3.16-1.95-6.55-.56-10.06-.11a6.56,6.56,0,0,1-7.62-7c.25-4.35,3.58-6.84,8.34-6.25,3.9.48,11,7.2,12.08,11.41C263.53,361.35,261.56,360.49,260.21,360.93Z"/><path class="cls-17" d="M318.88,186.44c2.42.74,3-1.2,4.06-2.31s2-2.45,3.7-2c2,.51,1.64,2.34,1.44,3.72-.31,2.26.64,3.35,2.69,4,1.14.34,2.59,1.88,2,2.33-3.36,2.37-2.33,7.18-5.67,9.48-1.67,1.15-2.48,3-3.14,4.95a1.79,1.79,0,0,1-2.26,1.39c-1.71-.44-.31-1.57-.43-2.36,0-.16.14-.36.09-.48-1.72-4.19-.82-8.41-.31-12.67a4.3,4.3,0,0,0-2.37-4.1c-.8-.46-2.19-.4-1.78-1.79C317.41,184.65,318.35,186.44,318.88,186.44Z"/><path class="cls-17" d="M340,278.69A11,11,0,0,1,349,276.9c4.86,1,10,.87,15,.77,2.33-.05,3.61.06,3.15,2.74a2.63,2.63,0,0,1-.05.49c-1,2.88,4.45,2.56,2.8,5.37-1,1.7-3.88,0-5.39,2.55-1.7,2.86-5.58,1.62-6.48-1.83-.33-1.24-.94-2.69-1.91-2.62C349.88,284.81,347.06,276.15,340,278.69Z"/><path class="cls-17" d="M278.16,189.22c2.09-1.94-.13-3.65-.33-5.47-.14-1.37-1.57-2.94.37-3.92,1.38-.71,2.39.56,3.41,1.38,1.89,1.52,2.61,4.95,6.65,2.6,1.68-1,1.66,2.49,2,4.14s-1.2,4.81,3,3.7c1.49-.39,1,1.43.87,2.1-.24,1.68.94,3.91-1,5-4.13,2.3-7.75.62-9.49-4.09a7.31,7.31,0,0,0-2.56-3.58C280.53,189.77,278,191.7,278.16,189.22Z"/><path class="cls-12" d="M296,302c-9.38-6.26-10.78-15.36-10.7-25.07C293.26,278.71,297.44,288.29,296,302Z"/><path class="cls-9" d="M267.16,261c-3.47-2.94-5.12-4.25-9.25-3.78-4.45.51-11.27,1.79-15.22-3.89-1.52-2.18-1.73-3.49,1-4.46,1.39-.49,3.13-.62,3.89-2,.88-1.6,1.44-1.84,2.58-.28s2.49,2.5,3.38,4.2c1.84,3.54,5.31,3.41,8.73,3.2,1.81-.12,3.7-2.15,5.47.14S266.61,257.86,267.16,261Z"/><path class="cls-19" d="M343.65,266.3c-.1.49-.39,1-.27,1.45,1.41,5-.52,7.46-5.66,7.67-.52,0-1.5.8-1.45,1.12,1.25,8.74-6.16,2.93-8.65,6.38-.31-6.76,5.57-7.69,8.46-11.68-5.62.23-9,3.58-13.32,6.17-.05-4.31,3.76-6.46,5.51-6.86,3.44-.76,6.33-3.88,10.43-2.59,1.4.44,3.38-1,5.09-1.54Z"/><path class="cls-20" d="M356,262.77c-.35-3.32.58-5.11,4.37-4.8,3.47.29,6.93,1,8.15,4.31.87,2.31-6.18,9.2-8.56,8.57C355.88,269.77,356.63,265.8,356,262.77Z"/><path class="cls-9" d="M335.43,232.79c-2.27-4.56,4.1-6.9,2.92-11.43-.24-.9,1.89-.58,2.52.59,1.28,2.38,2.93,2.85,5.32,1.52,2-1.09,4.92-3,5.78.17.67,2.44-1.88,5-4.84,5.57A61,61,0,0,0,335.43,232.79Z"/><path class="cls-14" d="M249.94,265.93c-1.46,2.27-3,5-4.88,7.43-.72.93-1.66-.43-2.35-1-2.62-2.11-3.33-5.3-4-8.29-.72-3.2,2.68-2.13,4.1-2.94C247.48,258.49,250,260.12,249.94,265.93Z"/><path class="cls-21" d="M348.34,232.09c2.23.43,5.63-.86,4.75,3.78-.55,2.91-.34,6.32-4,7-2.59.51-7.21-5.35-6.91-8.12C342.42,232.85,344.48,231.94,348.34,232.09Z"/><path class="cls-9" d="M305.63,288.4c-3.58-5.37-6.74-10-7.37-15.77.37-.22.66-.53.92-.51,2.56.22,6.59-.38,7.37.93,1.81,3.08,1.07,7.09.4,10.71C306.7,285.06,306.23,286.32,305.63,288.4Z"/><path class="cls-22" d="M256,234.84c2,1.2,4.77-.26,5.1,2.66.25,2.17-4.89,9.47-6.26,9-3.65-1.27-4.47-4.67-4.57-8C250.05,233.54,254.87,237.44,256,234.84Z"/><path class="cls-21" d="M276.16,215.63c3.4,2.31,7.36,1.58,9.79,4.56,1.12,1.38,1.73,2.3-.61,3.17a29.13,29.13,0,0,0-6.57,3.43c-2.91,2.06-3.3.1-3.62-2C274.71,221.81,276.91,219.23,276.16,215.63Z"/><path class="cls-23" d="M320.7,219.79c0,1.38-.1,2.47-1.87,2.05-2.87-.67-5.74-1.31-8.61-2-.73-.17-1.25-.68-.85-1.37a11.15,11.15,0,0,1,7.91-5.32c2.61-.47,2.11,2.72,2.91,4.32A9.51,9.51,0,0,1,320.7,219.79Z"/><path class="cls-24" d="M277.35,238.09c3.35-.21,6.47,1.44,9.86.45,2.23-.66,2.18,2,2.74,3.34.43,1-.61,1.75-1.71,2C286.41,244.16,278.51,240.08,277.35,238.09Z"/><path class="cls-24" d="M329.3,248.77c-1-3.73-1-3.73,3.08-6.65C334.07,246.11,334.07,246.11,329.3,248.77Z"/><path class="cls-25" d="M318.29,275.09a44.06,44.06,0,0,1,1.68-4.63c1.11-2.26,1.19-2.22,4.54-.51-2.85,2-5.28,4.24-4.61,8.08C317.63,278,319.15,275.9,318.29,275.09Z"/><path class="cls-4" d="M307.89,345.73l-6.59-1.06a3.17,3.17,0,0,1,3.72-2.9C307.07,341.91,307.52,343.51,307.89,345.73Z"/><path class="cls-26" d="M224.07,258.14a2.59,2.59,0,0,1,0-.92c2.94.73,5.55-1.94,8.62-.47C229.65,256.47,228,262.91,224.07,258.14Z"/><path class="cls-27" d="M371.36,273.89c-1.06.49-2.51-.09-3.3,1.18h-7.68C363.91,272.34,367.62,272.88,371.36,273.89Z"/><path class="cls-28" d="M319.45,257.07c-1,2.57-.63,5.15-3.3,5.76-1.15.26-.94-1-1.09-1.69C314.46,258.1,316.7,257.85,319.45,257.07Z"/><path class="cls-29" d="M318.29,275.09c.54,1,1.08,2,1.61,2.94,1.33,2.57-.37,3.8-2.85,5.71C317.54,280.34,317.91,277.72,318.29,275.09Z"/><path class="cls-30" d="M282.07,344.6c2.62-1,4.66-2.17,6.91-.73.16.1.1,1-.14,1.19C286.61,347.07,284.69,345,282.07,344.6Z"/><path class="cls-31" d="M252.09,232.94c1.95-2,5,.14,7-1.71,1.35.11,2.88-.32,4.11,1.71Z"/><path class="cls-32" d="M278.16,189.22l2.92,1.84a11.61,11.61,0,0,1-2.89,0c-1.27-.32-2.28,3.27-3.24.53C274.12,189.2,276.7,189.53,278.16,189.22Z"/><path class="cls-33" d="M307.32,250a1.08,1.08,0,0,1,.88.05c1.42,1.22,1.44,2.95,2.29,5.14C307.19,254.08,308.31,251.47,307.32,250Z"/><path class="cls-34" d="M343.65,266.3l.14.12c-.72-1.21-.52-2.16.91-2.5.58-.14,1.42.07,1.24.94C345.7,266,345.12,267,343.65,266.3Z"/><path class="cls-35" d="M254.2,224l1.73.94c0,.8,0,1.89-1,1.7C253.42,226.33,254.17,225,254.2,224Z"/><path class="cls-6" d="M1106.94,398.86c.26-4.25.44-8.07.74-11.88.14-1.67.45-3.53,2.48-3.88,10.62-1.8,21.22,2.75,21.85,14.37.28,5.36-2.31,9.25-7.22,11.41-.45.2-.94.33-1.41.49-4.5,1.49-9.51,2.68-13.71,1.1C1103.83,408.27,1108.85,402.35,1106.94,398.86Z"/><path class="cls-1" d="M1534,410c-.08-13.07,5.51-22.4,14.18-25.72,9.31-3.57,20.4-.68,27.52,7.67,7.85,9.17,11.2,20,9.39,31.94-2.86,18.78-22.53,26.26-37.42,14.38C1538,430.58,1534.55,419.88,1534,410Z"/><path class="cls-36" d="M320.34,417.83c-1.25-2.12-3.27-2.82-4.87-1.07s-.66,5.51.2,6.22c1.89,1.59,1.8-1.77,3.13-2.69,2.12,1.94,1.51,3.78-.2,5.43-2.59,2.5-8.33,2-13-1.57,5.57,1.4,4.82-2,4.76-4.79a6.47,6.47,0,0,0-.12-.93c-4,.4-5.54-5.76-10.25-3.78-1.38.58-2,.89-1.36,2.36.39.95.19,1.71-1,1.22-2.66-1.05-3.57-.2-3.44,2.6.14,3.16,0,3.17,3.71,3.78-5,4.64-11.26,3.46-13.54-2.54a2.93,2.93,0,0,1,.55-1.84c1-1.73,2.94,2.12,3.43-.41s-2.13-2.44-3.66-3.19c-1.8-1.14-.42-3.22-1.36-4.62-1.34-1.35-2.62-3.57-4.8-2.08-2.34,1.62-2.41,4.14-1.07,6.64.6,1.14,1.78,2,1.75,3.46-1,.52-1.89,0-2.84-.09a1.47,1.47,0,0,0-1.78,1.2A2.08,2.08,0,0,0,275,423c1,1.07,1.25-.21,1.77-.61,1.07-.82,1.75-.3,2.31.64,1.11,3.49-.2,5.78-3.5,7.11-3.47,1.41-6.95,1.93-9.55-1.38-3.71-4.71-7.11-9.67-8.91-15.48-3.22-10.35,2.81-18.71,13.72-19.21a26.39,26.39,0,0,1,9.75,1.77c3,1,6,1.94,9,2.85,3.52,1.05,5.48.16,4.81-4a9.89,9.89,0,0,1,0-2.49c.08-1,.19-2.19,1.51-2.15s1.23,1.33,1.24,2.26c0,5.17.35,10.36-.08,15.48-.38,4.59,2.31,4,5.21,4.17,3.23.14,5.36,0,5-4.35-.43-5-.1-10-.08-15,0-1.16-.06-2.65,1.54-2.6s1.23,1.64,1.32,2.72c.58,7.1.75,7.24,7.69,5.17,3.66-1.09,7.21-2.6,10.93-3.41,6.41-1.4,12.35-.16,16.8,5,4.25,4.94,3.25,10.51,1.12,16-1.83,4.7-4.71,8.8-7.69,12.8s-10.28,3.58-13-.53c-1.5-2.28-1.29-4.24,1.1-5.81,1.74,1.07-.29,4.29,2.07,3.81,1.23-.26,2.56-2.88,2.81-4.58.51-3.61-3.09-2.54-4.88-3.53.82-2.53,1.85-5-.31-7.41-.94-1-1.91-1-3.09-.33-2.86,1.64-2.82,4.24-2.45,7C321.66,417.92,321.19,418.05,320.34,417.83Z"/><path class="cls-12" d="M341,439.77c-.36,1.08-1.29,1.25-2.24,1.39A5.68,5.68,0,0,0,335,445l-.93.76c-1.48,1-2.86.15-4.26-.26-19.59-5.75-39.06-6-58.37,1.25a4.23,4.23,0,0,1-3.36.26l-2-2.05c.46-.9,2.31-1.05,1.7-2.38-.41-.89-1.74-.06-2.61-.4l-1.1-2.17c2.36-3.16,6-4.14,9.45-5.14,21.11-6.17,42.09-6.37,62.74,2.13A14.31,14.31,0,0,1,341,439.77Z"/><path class="cls-37" d="M327.9,458.94a96.74,96.74,0,0,1-51.78-.05c-2.4,0-3.68-1.29-4-3.55-.4-2.69,1.06-4.43,3.22-5.65,4.59-2.61,9.76-3.41,14.84-3.76,10.42-.72,20.88-1.12,31.21,1.17a23.81,23.81,0,0,1,7.49,2.59c1.94,1.18,3.33,2.7,3.27,5.17C332.06,457.65,330,458.31,327.9,458.94Z"/><path class="cls-17" d="M327.9,458.94c4.88-4,4.59-7.14-1.47-8.87a87,87,0,0,0-48.62,0c-6.16,1.75-6.5,4.81-1.69,8.85-1.23,1.91-2.58.74-3.91.15-2.45-1.71-5.43-3.2-4.86-6.85s3.69-5.4,6.89-6.46c12.5-4.16,25.34-5,38.36-3.62a83.36,83.36,0,0,1,11.29,1.78,42.62,42.62,0,0,1,7.11,2.26c2.94,1.33,5.84,3,5.83,6.72,0,3.59-2.79,5-5.72,6C330.06,460.17,329,458.67,327.9,458.94Z"/><path class="cls-37" d="M341,439.77a6.47,6.47,0,0,1-2.41,0q-36.57-16.31-73,.22a4.24,4.24,0,0,1-1.48.07c-1-3.33-2-6.65-3-10-.07-.25.19-.59.3-.89.16,0,.45,0,.47.1,2.73,8.28,7.9,5.08,13.58,3.54,20.2-5.48,40.39-5.44,60.15,2.27,2.36.93,3.47,1,4.4-1.54a29.36,29.36,0,0,1,2.67-4.75c.15-.25.52-.37,1.3-.88C342.87,432.15,341.92,436,341,439.77Z"/><path class="cls-38" d="M331.11,458.9c.73-.58,1.49-1.13,2.18-1.76,3.88-3.55,3.62-6.51-1-8.89-6.3-3.22-13.23-4.32-20.17-4.9-11.45-1-22.87-.67-34,2.58a33.28,33.28,0,0,0-6,2.27c-4.61,2.38-4.94,4.56-1.58,8.52.62.74,1.17,1.54,1.76,2.32-7.38-2.51-8.64-6.17-4.12-12,13.5-7.15,28.08-7.56,42.8-6.62a64.67,64.67,0,0,1,23.19,5.37c2.38,2.14,5.87,3.89,4.38,7.89C337.29,456.83,335.06,459.28,331.11,458.9Z"/><path class="cls-39" d="M307.66,384.91c-3,.26-3.83,2.89-5.25,5a15.44,15.44,0,0,0-5.39-5.56l5.54-5.16Z"/><path class="cls-25" d="M279.09,423c-.74-.11-1.78-1.74-2.1.17-.22,1.29-.33,3.54-1.54,2.74-1.57-1-2.62-3.48-3-5.48-.22-1.3,1.62-2.56,3.25-2.21a13,13,0,0,1,3.38,1.83C280.83,421,279.48,422,279.09,423Z"/><path class="cls-31" d="M285.29,416.15c1.62-.2,3.46-.84,4.39,1.15.85,1.82-.93,3.6-.31,5.69.19.64-2,.5-2.38-.84-.9-3.25-1.79-1-2.72-.08l-1.21-1a8.65,8.65,0,0,1,.31-2.58C283.69,417.47,283.92,416.35,285.29,416.15Z"/><path class="cls-40" d="M331.18,387.16c1.66.15,2.71.84,2.84,2.35a2.21,2.21,0,0,1-2.26,2.59,2.25,2.25,0,0,1-2.64-2.21C329,388.27,330.14,387.68,331.18,387.16Z"/><path class="cls-41" d="M352.28,406a2.48,2.48,0,0,1-2.41-2.63,2.21,2.21,0,0,1,2.49-2.36,2.27,2.27,0,0,1,2.4,2.49A2.61,2.61,0,0,1,352.28,406Z"/><path class="cls-40" d="M317.13,394.34c-.22,1.64-1.13,2.59-2.59,2.5a2.35,2.35,0,0,1-2.36-2.57,2.26,2.26,0,0,1,2.55-2.32A2.36,2.36,0,0,1,317.13,394.34Z"/><path class="cls-42" d="M258.08,420.47a2.4,2.4,0,0,1-2.4,2.55,2.27,2.27,0,0,1-2.56-2.33,2.3,2.3,0,0,1,2.35-2.57A2.46,2.46,0,0,1,258.08,420.47Z"/><path class="cls-43" d="M259.11,396.18a2.27,2.27,0,0,1-2.86,1.86,2.2,2.2,0,0,1-1.95-2.82,2.32,2.32,0,0,1,2.86-2A2.4,2.4,0,0,1,259.11,396.18Z"/><path class="cls-44" d="M350.27,395.74a2.44,2.44,0,0,1-4.88-.14,2.39,2.39,0,0,1,2.53-2.43C349.43,393.22,350.19,394.23,350.27,395.74Z"/><path class="cls-45" d="M255,403.35c-.42,1.52-1.15,2.61-2.69,2.53a2.27,2.27,0,0,1-2.31-2.57,2.21,2.21,0,0,1,2.52-2.34C254.08,401,254.59,402.17,255,403.35Z"/><path class="cls-46" d="M281.37,394.06a2.35,2.35,0,0,1-2.2-2.66,2.45,2.45,0,1,1,4.89.4A2.36,2.36,0,0,1,281.37,394.06Z"/><path class="cls-47" d="M252.53,414.9c-1.46-.19-2.47-.89-2.52-2.44a2.21,2.21,0,0,1,2.33-2.53,2.28,2.28,0,0,1,2.57,2.33C255,413.76,253.93,414.55,252.53,414.9Z"/><path class="cls-47" d="M299.83,407.83a2.21,2.21,0,0,1,2.59-2.31,2.3,2.3,0,0,1,2.22,2.73,2.42,2.42,0,0,1-4.81-.42Z"/><path class="cls-48" d="M290.14,396.93c-1.72-.22-2.65-1.19-2.66-2.58a2.24,2.24,0,0,1,2.44-2.42,2.21,2.21,0,0,1,2.4,2.44A2.53,2.53,0,0,1,290.14,396.93Z"/><path class="cls-49" d="M342.82,390.87a2.42,2.42,0,0,1-2.54,2.41,2.07,2.07,0,0,1-2.31-2c-.14-1.57.57-2.61,2.13-2.72S342.5,389.37,342.82,390.87Z"/><path class="cls-50" d="M304.73,401.18a2.45,2.45,0,0,1-3,2,2.13,2.13,0,0,1-1.89-2.82,2.17,2.17,0,0,1,2.78-2A2.52,2.52,0,0,1,304.73,401.18Z"/><path class="cls-51" d="M304.74,393.54c-.14,1.42-.73,2.47-2.33,2.57a2.18,2.18,0,0,1-2.57-2.26,2.3,2.3,0,0,1,2.22-2.66C303.62,391.05,304.34,392.16,304.74,393.54Z"/><path class="cls-43" d="M266.81,391.15a2.44,2.44,0,0,1-2.79,2.13,2.08,2.08,0,0,1-2.1-2.28,2.21,2.21,0,0,1,2.41-2.52A2.51,2.51,0,0,1,266.81,391.15Z"/><path class="cls-52" d="M349.24,423c-1.89-.07-2.69-1.15-2.6-2.58a2.26,2.26,0,0,1,2.63-2.3,2.46,2.46,0,0,1,0,4.88Z"/><path class="cls-53" d="M265.17,442.21c1.17-1.16,2.3-2.43,4.16-1.2a2.16,2.16,0,0,1,.8,2.6c-.69,2.16-2.42,1.71-4.05,1.38Z"/><path class="cls-52" d="M352.23,414.86a2.41,2.41,0,0,1-2.4-2.57,2.13,2.13,0,0,1,2.05-2.33,2.21,2.21,0,0,1,2.68,2.2A2.49,2.49,0,0,1,352.23,414.86Z"/><path class="cls-52" d="M272.9,387.21a2.42,2.42,0,0,1,2.47,2.51,2.12,2.12,0,0,1-2,2.36,2.18,2.18,0,0,1-2.72-2.12C270.52,388.44,271.41,387.55,272.9,387.21Z"/><path class="cls-54" d="M335,445c-1.24-4-.53-4.74,3.72-3.87C339.67,444.54,338.27,445.68,335,445Z"/><path class="cls-55" d="M325.33,391.23c-.08,1.7-.7,2.72-2.33,2.79a2.16,2.16,0,0,1-2.37-2,2.28,2.28,0,0,1,2-2.82C324.31,388.91,325,390,325.33,391.23Z"/><path class="cls-56" d="M285.29,416.15,284,418.93c-.93.32-1.32,0-1.07-1l.29-5.95C284.85,412.92,283.54,415.3,285.29,416.15Z"/><path class="cls-57" d="M320.34,417.83l.87-.92c1.19,1,.9,2.26.8,3.65C320.56,420,320.65,418.8,320.34,417.83Z"/><path class="cls-58" d="M282.94,418l1.07,1a1.79,1.79,0,0,1-.95,2.17C281.84,420.1,281.89,419.05,282.94,418Z"/><path class="cls-59" d="M257.29,579.06c-1.62,3.7-9,3.63-4.7,10.32-3.49-1-5.07-2.8-4.32-5.11C249.57,580.27,253.44,579.88,257.29,579.06Z"/><path class="cls-60" d="M312.83,649.35c-3.93,1.85-7.72,2-12.46-.53C305.29,647.55,309.1,647.62,312.83,649.35Z"/><path class="cls-61" d="M333,565.25a1.1,1.1,0,0,1-1.52.79c-2.48-.82-4.94-1.7-7.36-2.67a1.12,1.12,0,0,1-.57-1.63,1.54,1.54,0,0,1,1.15-.73,20.75,20.75,0,0,1,8,3.38C332.92,564.52,332.91,565,333,565.25Z"/><path class="cls-62" d="M314.12,636.21c4-1.72,7.21-.66,10.52-.33C322.49,638.68,319.19,638.85,314.12,636.21Z"/><path class="cls-63" d="M293.42,566.2c-2.26,1.23-4.5,2.53-6.8,3.69-.92.46-2.05.5-2.47-.74s.26-1.9,1.38-2.19c2.49-.66,4.77-2.21,7.45-2C293.13,565.35,293.27,565.78,293.42,566.2Z"/><path class="cls-55" d="M318.86,642.74c-3.92,2.11-7.77,1.52-11.61.1C311.11,641.3,315,641.85,318.86,642.74Z"/><path class="cls-64" d="M260.21,572.33c-.1-1.14,1.2-1.87,2.36-2.19a3.54,3.54,0,0,1,3.54,1.2,2.06,2.06,0,0,1,.51,2.67c-.31.48-1.23,1.41-1.35.74C264.62,571.36,260.49,575.57,260.21,572.33Z"/><path class="cls-65" d="M294.69,571.6c-.37.91-.39,1.11-.49,1.16-2.2,1.17-4.21,3.16-7,1.92a1.87,1.87,0,0,1-.13-1.67C289.19,571.33,291.7,571.57,294.69,571.6Z"/><path class="cls-66" d="M333.14,570.66c-.61.64-.72.85-.83.86a11.13,11.13,0,0,1-7-2.34c-.14-.1.09-1.14.28-1.19C328.56,567.24,330.64,569,333.14,570.66Z"/><path class="cls-67" d="M295.28,579.18c-2.42,2.12-4.53,2.49-6.8,1.56-.69-.29-.57-1.4-.13-1.72C290.52,577.44,292.61,578.32,295.28,579.18Z"/><path class="cls-68" d="M296.22,655.45a21.34,21.34,0,0,1,10.2.07C303.13,657.79,300.44,657.31,296.22,655.45Z"/><path class="cls-69" d="M345.43,576.58c-.76.37-.92.52-1,.48-2.3-.81-4.45-1.85-5.48-4.26-.08-.21.52-1,.74-1C342.54,572.13,344.06,574.1,345.43,576.58Z"/><path class="cls-70" d="M343.05,581.94c-2.58.59-3.9-.89-5.09-2.39-.32-.41.09-1.52.83-1.38A5.66,5.66,0,0,1,343.05,581.94Z"/><path class="cls-53" d="M294.12,586.17c-2.52,1.11-4.07,1.47-5.56.33a1.29,1.29,0,0,1,.1-1.2C290.29,584.26,291.69,585,294.12,586.17Z"/><path class="cls-40" d="M325.64,574.31c2.57-1,4,.23,5.37,1.9A4.62,4.62,0,0,1,325.64,574.31Z"/><path class="cls-71" d="M339.9,586.69c-2-.18-3.22-.77-3.61-2.4-.05-.21.69-.89,1-.83C338.72,583.76,340,584.41,339.9,586.69Z"/><path class="cls-72" d="M350.23,588c.09.92-.58,1.23-1.15.91a4.1,4.1,0,0,1-1.53-1.71c-.35-.71.14-1.24.92-1.16C349.59,586.13,350,587,350.23,588Z"/><path class="cls-45" d="M329.84,580.62a3.06,3.06,0,0,1-4-.22c.06-.36,0-.82.16-.93C327.46,578.51,328.38,579.65,329.84,580.62Z"/><path class="cls-59" d="M248.43,578.65a1.78,1.78,0,0,1,1.49-1.62c.72-.15,1.41.27,1.2,1a3,3,0,0,1-1.42,1.74C249.15,580,248.58,579.37,248.43,578.65Z"/><path class="cls-73" d="M347.27,591.24c-.71.35-1.28.81-1.46.69a6.94,6.94,0,0,1-1.23-1.4c.39-.24.9-.77,1.12-.67A7.31,7.31,0,0,1,347.27,591.24Z"/><path class="cls-74" d="M240.63,668.47l6,3.12c-3.34,1.57-3.85,4.63-5.23,7.11-3,5.35-5.85,6.87-9.72,5-4-2-4.61-5-2.16-10.66,1.14-2.64,3.47-4.92,2.39-8.54,2.48.3,4.11,1.61,6.19,2.78-4.83,2.52-6.07,7.08-6.86,11.5-.49,2.7,1.67,4.31,4.54,3.14S241.86,672.54,240.63,668.47Z"/><path class="cls-75" d="M195.61,634.32c1.5,2.18,5.84,3.15,2,7.4-1.77,2-1.23,6-1.89,10,3.44-2.74,5.91-5.09,7.29-9.05,1.51,1.92,5.56,2.67.55,5.26-2.27,1.18-3.83,3.67-5.89,5.35-1.16,1-2.09,3.26-4,2.13-1.66-1-.68-3.09-.53-4.66C193.7,645.29,195.41,640,195.61,634.32Z"/><path class="cls-76" d="M208,659c-1.95,1.41-3.58,3.14-2.35,5.67s3.43,1,5.76.06c-1.06,3.92-2.07,6-5.47,2.69-1.76-1.72-3.72-3.22-5.54-4.78A23.3,23.3,0,0,0,208,648c8.46,4.47,9.47,6.11,5.62,10.47.19-2.68.29-5.8-2.4-5.63-2,.13-3.08,2.78-2.2,5.26C209.07,658.91,208.94,659.48,208,659Z"/><path class="cls-39" d="M225.41,673.33c-2.5,6.29-3.41,6.14-12-.82,4.35-4.06,6.47-9.17,7.28-15.49l5.82,3.75c-5.54,2.41-7.19,7.6-7.81,11.86S222.14,675.24,225.41,673.33Z"/><path class="cls-77" d="M253.38,674.78c1.67.71,3.31,1.49,5,2.1,4.11,1.49,2.76,3.42.79,5.6-2-.72-.72-2.12-1.1-3.05-.5-1.21-1.29-2-2.63-.88-1.7,1.44-4.7,11.35-4,13.45-2.51.19-4.33-1.3-6.37-2.33,4.32-3.7,6.12-8.57,7-13.87C252,674.83,252.33,674.35,253.38,674.78Z"/><path class="cls-78" d="M253.38,674.78l-1.25,1c-2.1-1.52-3.21,1.76-5.17,1.18C248,671.76,248.1,671.72,253.38,674.78Z"/><path class="cls-60" d="M208,659l1.07-.9c3.92.78,3.92.78,1.09,5C209.34,661.64,208.65,660.33,208,659Z"/><path class="cls-54" d="M357.94,674.62c-.7-3.27,1.43-4.18,4-4.76,1.13-.5,1.29.09,1.14,1,0,2.37.59,5,2.71,5.74,1.73.56,3.07-1.78,3.79-3.65a3.21,3.21,0,0,1,1.56,4,3.15,3.15,0,0,1-1.06,1c-1.34.76-2.83,1.91-1.34,3.28s2.4-.54,3.2-1.64a4.74,4.74,0,0,1,1.23-1.44c2.94,1.66,3.42,3.52.16,5.23-2.75,1.44-5.38,3.21-9.51,4,2.23-2.47.47-4.22.2-6.17-.54-1.11-2.25-.67-2.65-2-.74-4.91-2.25,1.46-3.22-.22C357.22,677.56,357.54,676.09,357.94,674.62Z"/><path class="cls-79" d="M385.91,669c-.24,2.63,2.08,6.37-1,7.59-2.38,1-3.88-2.91-5.81-4.57-2.57-2.19-4.2-5.45-7.67-6.59.58-1.7,2.23-2,3.42-2.77,1.58-1,2.74-2.33,2.55,1.57-.12,2.47,3.63,5.12,5.65,7.7,1.63.64,1.37-.66,1.5-1.5S384.69,668.74,385.91,669Z"/><path class="cls-80" d="M393.85,649.87c2.83-2.4,5.77-2.38,8.35.17,3.39,3.35,3.76,7.52,2.29,11.87A5.54,5.54,0,0,1,401,665.8a1.55,1.55,0,0,1-1.33-1.44c2.18-8.17,1.41-10.3-4.62-12.82A2.54,2.54,0,0,1,393.85,649.87Z"/><path class="cls-79" d="M399.85,664.86l1.19.94c-5.06,2.24-7.66,1.59-10.09-2.51-2.91-4.91-1.91-9.53,2.9-13.42l1.21.9C392.68,658.66,393.21,660.22,399.85,664.86Z"/><path class="cls-53" d="M385.91,669c-1.51,3.31-1.51,3.31-2.83,2.93,2.45-3.36,1.45-7.6-.17-10-3.27-4.8.88-4.29,3.48-6.45C384.6,660.6,386.5,664.78,385.91,669Z"/><path class="cls-81" d="M373.13,678.12c.3,3-1.37,4.66-4,5.15-1.88.35-2.24-1.71-2.45-2.92-.65-3.65,2.55-2.75,4.42-3.39A1.92,1.92,0,0,1,373.13,678.12Z"/><path class="cls-82" d="M362.07,679l1.91,2.23c-1.84-1.25-3.19.46-4.76.8a6.55,6.55,0,0,0-.15,5.94c1.53,1.36,1.53,1.36-.56,2.23-3.26-.63-1.63-2.9-1.56-4.64.05-3.66-.18-7.34,1-10.9.43,1.41-.28,3.07.92,4.31C359.93,678.83,361,678.18,362.07,679Z"/><path class="cls-83" d="M363,670.89l-1.14-1c2.6-.82,5-5.81,8.4-.06C367.53,669.82,365.06,669.31,363,670.89Z"/><path class="cls-56" d="M357,685.52c.34,1.61-.42,3.58,1.56,4.64a2.3,2.3,0,0,1-2.57.9c-1.57-.71.07-1.51.2-2.28C356.31,687.68,356.67,686.61,357,685.52Z"/><path class="cls-56" d="M359.07,687.93c-1.92-2-1.29-4,.15-5.94Z"/><path class="cls-52" d="M328.83,742.19c.06,5.09-3.75,9.5-8.24,9.54-4.76,0-8.33-3.63-8.42-8.63a8.78,8.78,0,0,1,8.56-9.13C325.39,733.91,328.78,737.34,328.83,742.19Z"/><path class="cls-69" d="M284.37,751.06h-6a28.23,28.23,0,0,0-.05-16.51,16.31,16.31,0,0,1,8.65.23c3.39.83,4.76,3.78,2.81,6-3.46,3.87.28,5.69,1.35,8.28.25.62,1.1,1,1.83,1.63-2.94,1.38-4.67.8-5.88-1.91-.73-1.64-1.12-4.91-3.57-3.7S282.91,748.91,284.37,751.06Z"/><path class="cls-74" d="M295.58,734.51a16.85,16.85,0,0,1,6.86-.31c4.79.53,5.77,2.27,3.69,6.78-.57,1.24-.2,1.36.59,2.19,3.14,3.33,1.92,6.94-2.56,7.82a19.73,19.73,0,0,1-8.38,0C297.6,745.44,297.87,740,295.58,734.51Z"/><path class="cls-84" d="M347.05,750.74c-2.82,1.36-4.4.47-5.54-2.16-.73-1.69-1.38-4.93-3.59-3.73-2,1.06-1.37,4,1,5.72-2.17,1.09-4.07.78-6,.4,1.88-4.89,1.3-9.83.6-14.7-.1-.71-1.59-1.68,0-1.9,3.44-.47,7-.65,10.11,1.47,1.33.91,2.21,2.85,1.2,3.94C340.37,744.55,344.7,747.38,347.05,750.74Z"/><path class="cls-85" d="M275.28,751.4c-2.41-1.08-6.45,2.74-5.52-3.38.23-1.56-1.95-1.41-3.22-1.36s-3.59-.24-3.22,1.27c1.46,5.88-2.67,2.32-4.17,3.16,2.65-4.64,3.66-9.72,5.71-14.37.52-1.18.61-2.81,2.41-2.63,1.43.14,1.47,1.56,1.89,2.61C271.07,741.36,271.81,746.49,275.28,751.4Z"/><path class="cls-86" d="M365.43,486.62c3.25-1.48,6.44-2.32,9.25.89Z"/><path class="cls-87" d="M371.1,511.89c-1.87-.13-3.82.58-6-.65,2.54-2,4.89-1.55,7.28-.48C372.23,511.45,371.53,511.53,371.1,511.89Z"/><path class="cls-42" d="M373.78,503.58l-7.92-.6C368.24,502.06,370.61,501.23,373.78,503.58Z"/><path class="cls-88" d="M373,494.21c1.85.68,4,.86,5.74,3.48a17.34,17.34,0,0,1-6.79-2.6A1.68,1.68,0,0,1,373,494.21Z"/><path class="cls-44" d="M373,494.21l-1.05.88-7.56-.33C368.08,493.11,370.54,493.68,373,494.21Z"/><path class="cls-88" d="M379.72,506.9l-4.09-1.85c2.45-1.16,3.36.11,4.5.61Z"/><path class="cls-71" d="M381.14,506.75c2.15-.93,3.12-.11,4.93.69C383.84,508.21,382.56,508.35,381.14,506.75Z"/><path class="cls-89" d="M377.05,487.89c2.1.72,3.76.82,4.76,2.49C380.21,490.13,378.46,490.25,377.05,487.89Z"/><path class="cls-42" d="M381.88,515.32c-1.71,0-3.35-.12-4.75-2.12A6.23,6.23,0,0,1,381.88,515.32Z"/><path class="cls-90" d="M371.1,511.89l1.26-1.13c.95.27,2.83.11,2.11,1.54C373.84,513.53,372.3,511.82,371.1,511.89Z"/><path class="cls-90" d="M229.69,512.51c2.42-2.18,5-3.11,8-1.07Z"/><path class="cls-91" d="M228.78,487.71c3.06-3.66,6.21-1.16,8.7-2.75l.25,1.38Z"/><path class="cls-92" d="M227,504.57a7.12,7.12,0,0,1-7.82,2.53Z"/><path class="cls-71" d="M219.38,499.83c1.17-2.36,3-1.8,4.59-2.42l.31,1.32Z"/><path class="cls-44" d="M231.18,494.23c2.42-.6,4.83-1,7.33.57l-6.29.3C231.21,495.61,231.06,495.08,231.18,494.23Z"/><path class="cls-93" d="M226.07,513.77c-1.26,1.58-2.74,2.53-5.11,1.9C222.4,513.77,224.21,513.71,226.07,513.77Z"/><path class="cls-94" d="M233.09,503l-3.73,1.59a3.6,3.6,0,0,1,3.73-2.41c.34.18.45.36.34.54S233.21,503,233.09,503Z"/><path class="cls-95" d="M231.18,494.23l1,.87c-1.49,1-3,2-5,1.63C227.85,494.62,229.77,494.84,231.18,494.23Z"/><path class="cls-96" d="M225.74,488.82a4.51,4.51,0,0,1-4.41,1.81C222.42,488.72,224.32,489.25,225.74,488.82Z"/><path class="cls-80" d="M233.09,503a7.48,7.48,0,0,0,0-.82h6.17C236.72,503.69,234.87,503,233.09,503Z"/><path class="cls-97" d="M261.59,487.27c-2.71-.33-5.49-.56-8.25-.93C256.27,485.09,259.09,484.57,261.59,487.27Z"/><path class="cls-98" d="M259.4,510.94c-2.59,1.31-4.27,1.05-6.66.27C255.1,509.43,256.78,509.92,259.4,510.94Z"/><path class="cls-99" d="M266.78,497.32l6.28,1.39c-3.21,1.63-4.75-.1-6.6.11C266.57,498.32,266.67,497.82,266.78,497.32Z"/><path class="cls-100" d="M266,505.22l6.12,1.88c-3.66.92-5.42.2-7.06-1.09A1.43,1.43,0,0,1,266,505.22Z"/><path class="cls-40" d="M257.08,502.13a6.54,6.54,0,0,1,5,1.73q.53.31.33.6c-.12.19-.24.28-.36.28l-5-1.75c-.33-.19-.43-.38-.33-.57S257,502.13,257.08,502.13Z"/><path class="cls-53" d="M258.94,495.1l-7.71-.35a12.61,12.61,0,0,1,8.74-.51C260.1,495.1,259.94,495.61,258.94,495.1Z"/><path class="cls-42" d="M264.09,487.85c2.09.91,3.81.81,4.72,2.6C267.28,490.12,265.5,490.36,264.09,487.85Z"/><path class="cls-101" d="M264.49,514.06c-1,0-2.58-.53-1.82-1.34,1.15-1.22,2.57.27,3.72,1.08A1.44,1.44,0,0,1,264.49,514.06Z"/><path class="cls-102" d="M258.94,495.1l1-.86c1.09.5,2.63.25,3.31,2.23A5.32,5.32,0,0,1,258.94,495.1Z"/><path class="cls-103" d="M264.49,514.06l1.9-.26c1.06.21,2.34,0,2.74,1.82A5.91,5.91,0,0,1,264.49,514.06Z"/><path class="cls-89" d="M262.09,504.74c0-.29,0-.58,0-.88,1.52-.21,2.59.89,3.87,1.36l-.94.79Z"/><path class="cls-69" d="M257.08,502.13V503h-5.3A6.79,6.79,0,0,1,257.08,502.13Z"/><path class="cls-91" d="M342.76,487.38c2.28-2.87,5.28-1.24,8-1.78C348.34,487.6,345.29,486.19,342.76,487.38Z"/><path class="cls-97" d="M341.07,504.58c-1.88,2.71-4.84,2.73-7.78,2.82,2.46-1.4,4.9-2.83,7.88-3Z"/><path class="cls-93" d="M345.41,511.51c1.64-2,3.48-1.44,5.92-1.28C349.28,512.91,347.09,511,345.41,511.51Z"/><path class="cls-61" d="M341.07,504.58l.1-.19a7.94,7.94,0,0,1,5.9-2.26c.33.19.43.38.33.57s-.22.28-.33.28C345.09,503.58,343.32,505,341.07,504.58Z"/><path class="cls-104" d="M334.11,490.71c1.37-1.77,3.1-1.7,4.75-1.87A5,5,0,0,1,334.11,490.71Z"/><path class="cls-98" d="M341.07,496.91c-1.38.8-2.66,1.9-4.91,1.51,1.16-2.12,3.16-2.14,4.81-2.72a.74.74,0,0,1,.36.78C341.25,496.76,341.16,496.91,341.07,496.91Z"/><path class="cls-41" d="M344.19,494.27a12.05,12.05,0,0,1,8.59.43l-7.56.41C344.26,495.6,344.06,495.14,344.19,494.27Z"/><path class="cls-90" d="M339.58,514.23c-1.61,1-3.22,2-5.36,1.58.5-1.91,2.08-1.74,3.41-2A1.52,1.52,0,0,1,339.58,514.23Z"/><path class="cls-105" d="M344.19,494.27l1,.84a8.75,8.75,0,0,1-4.15,1.8l-.1-1.21Z"/><path class="cls-39" d="M347.07,503v-.85c1.56-.21,3.13-.55,4.64.45C350.19,503.66,348.61,503.05,347.07,503Z"/><path class="cls-106" d="M333.57,499.9c-.87,0-1.58-.07-1.43-1a1.37,1.37,0,0,1,.91-.84,1,1,0,0,1,1.22,1.08C334.28,499.45,333.75,499.73,333.57,499.9Z"/><path class="cls-88" d="M339.58,514.23l-1.95-.41c1.17-.51,2.3-2.51,3.58-.63C341.76,514,340.26,514,339.58,514.23Z"/><path class="cls-17" d="M344.64,412.59c-5.65-9.29-16.26-7.68-23.7-12.42,6.39-3.1,13.21-5.42,20.21-.86C345.82,402.35,346.49,407,344.64,412.59Z"/><path class="cls-17" d="M283,400.63c-5.86,1.24-10.43,4.82-16.14,5.52-3.21.4-4.87,3.51-6.54,6.36-2.29-5.72-1.47-9.59,2.45-12.77C267.84,395.66,276.25,395.92,283,400.63Z"/><path class="cls-31" d="M278.09,406.06c-4.41,4.47-5.64,8.09-7.37,21.61-4.84-5.2-4.81-7,.58-15.58-5.09.37-5.7,4.5-7.32,7.69-2.46-5.74,0-10.87,5.92-11.59a18.94,18.94,0,0,0,8.19-2.9c.35.17.46.34.35.51S278.21,406.06,278.09,406.06Z"/><path class="cls-22" d="M330.33,407.85c9.62.33,13.4,4.77,10.29,12.79-.76-2.24-1.05-4.29-2.38-5.86a9.71,9.71,0,0,0-5.62-3.66c3.74,5.7,7.67,11.13.43,16.68,5.29-8.21-2.88-13.15-4.21-19.74A1,1,0,0,1,330.33,407.85Z"/><path class="cls-15" d="M326.06,406.12c-2.69.56-5.38,1.6-6.56,4.06-1.59,3.33-4.2,3.47-7.35,3.67.6-3.69,4.38-4.07,6-6.55-3.33-1-5.26,1.64-7.79,2.7.27-6.25,7-8.28,15.69-4.93.3.23.4.47.3.7S326.16,406.12,326.06,406.12Z"/><path class="cls-19" d="M278.09,406.06c0-.26,0-.51,0-.77,8.36-3.57,15.28-1.84,16.1,4.37-2.69-.59-4.61-3.45-7.9-2.34,1.8,2.3,5.15,2.95,6.51,7-3.11-1-5.87-.32-7.44-3.68C284,407.7,281.11,406.64,278.09,406.06Z"/><path class="cls-107" d="M326.06,406.12v-1.05c1.85.26,3.05,1.54,4.27,2.78l-1.49.21Z"/><path class="cls-43" d="M287.11,437.41c-.32,1.61-1.19,2.61-2.74,2.42a2.31,2.31,0,0,1-2.18-2.78A2.26,2.26,0,0,1,284.6,435C286.21,435,286.9,436,287.11,437.41Z"/><path class="cls-69" d="M302.17,438.31a2.18,2.18,0,0,1-2.21-2.57,2.07,2.07,0,0,1,2.21-2.09,2.22,2.22,0,0,1,2.52,2.32C304.71,437.46,303.71,438.27,302.17,438.31Z"/><path class="cls-53" d="M320.06,439.9a2.47,2.47,0,0,1-2.56-2.53,2.24,2.24,0,0,1,2.55-2.38,2.15,2.15,0,0,1,2.19,2.2A2.39,2.39,0,0,1,320.06,439.9Z"/><path class="cls-108" d="M294.52,436.86c-.42.5-.8,1.15-1.6.67-.59-.35-1.07-.85-.67-1.61s.88-1.08,1.59-.66C294.37,435.58,294.93,436.06,294.52,436.86Z"/><path class="cls-2" d="M310.48,435.13c1.49.3,1.79.86,1.55,1.54a1.34,1.34,0,0,1-1,.77c-.77,0-1.07-.62-.9-1.36A6.18,6.18,0,0,1,310.48,435.13Z"/><path class="cls-2" d="M277.09,439.73c-.29.22-.61.68-1,.73-.84.1-1.12-.59-1-1.25a1.39,1.39,0,0,1,.91-.9C276.82,438.21,277,438.87,277.09,439.73Z"/><path class="cls-109" d="M329.73,439.74c-.47.59-.83,1.18-1.58.86s-1.26-1-.75-1.85a1.11,1.11,0,0,1,1.61-.46C329.5,438.62,330,439.1,329.73,439.74Z"/><path class="cls-10" d="M328.47,454.73c-3.06,2.71-6.91,3.09-10.63,3.61-12.6,1.79-25.17,1.9-37.61-1.3-1.57-.4-4-.67-4.06-2.29-.09-2.14,2.52-2.26,4.13-2.63a95.69,95.69,0,0,1,43.47,0C325.47,452.46,327.34,452.83,328.47,454.73Z"/><path class="cls-110" d="M362.07,679c-1.07-.2-2.16,2.13-3.21,0,.16-1.61.31-3.22.51-5.25C361.32,675.16,362.23,676.77,362.07,679Z"/><path class="cls-14" d="M399.85,664.86c-4.2.35-5.78-2.49-7-5.76s-.92-6.19,2.23-8.33c3.74-.6,5.43,1.88,6.55,4.72C402.94,658.87,403.13,662.24,399.85,664.86Z"/><path class="cls-12" d="M325.29,742.38c-.15,3.61-.62,7.33-5,7.31-3.83,0-4.53-3.52-4.5-6.59,0-3.37.35-7.16,5-7.12C324.88,736,324.91,739.51,325.29,742.38Z"/><path class="cls-110" d="M282.48,739.5c.41-1.33-.9-3.72,2-3.52,1.95.14,2.82,1.57,2.84,3.43a3,3,0,0,1-3,3.27C281.71,742.91,282.83,740.75,282.48,739.5Z"/><path class="cls-111" d="M300,746.26c.33-1-.7-2.93,1.66-2.7,1.9.18,3.71.66,3.72,3.07,0,2-1.46,2.9-3.21,3.07C299.37,750,300.21,747.75,300,746.26Z"/><path class="cls-16" d="M300,738.93c.32-1.39-.51-3.15,1.75-3,1.7.14,2.78,1,2.78,2.76a2.85,2.85,0,0,1-3.19,2.94C299,741.62,300.77,739.53,300,738.93Z"/><path class="cls-112" d="M337,739.18c.47-1.14-1-3.32,1.72-3.19a3.16,3.16,0,0,1,3.12,3.25,3.1,3.1,0,0,1-3.43,3.41C336.05,742.55,337.5,740.38,337,739.18Z"/><path class="cls-113" d="M266.54,738.49c1.17,1.86,2.26,4,1.78,5.84-.31,1.22-2.52.49-4,.33A16,16,0,0,1,266.54,738.49Z"/></g></g></svg>